<svg width="199" height="32" viewBox="0 0 199 32" fill="none" xmlns="http://www.w3.org/2000/svg">
<path fill-rule="evenodd" clip-rule="evenodd" d="M45.3913 4.47623C41.5588 4.47623 37.8225 4.47623 34.106 4.47623C34.106 7.6779 34.106 10.8116 34.106 13.9493C37.9077 13.9493 41.6422 13.9493 45.3913 13.9493C45.3913 10.7583 45.3913 7.64666 45.3913 4.47623ZM39.735 1.71717C41.962 1.71717 44.1935 1.62954 46.4146 1.74603C48.0648 1.83262 48.7696 2.56966 48.8094 4.24116C48.8906 7.65276 48.9003 11.0697 48.8066 14.4804C48.7653 15.9874 48.0108 16.6048 46.5368 16.7847C45.9614 16.8547 45.3791 16.898 44.7998 16.9012C41.2871 16.9193 37.7742 16.9287 34.2616 16.9285C31.377 16.9284 30.5972 16.1247 30.5947 13.1747C30.5923 10.3037 30.5598 7.43168 30.6094 4.56148C30.6423 2.65744 31.4059 1.8286 33.2724 1.75332C35.4234 1.66673 37.5801 1.73324 39.7344 1.73324C39.7346 1.72788 39.7349 1.72252 39.735 1.71717Z" fill="#D0AA6B"/>
<path fill-rule="evenodd" clip-rule="evenodd" d="M61.9807 6.56736C61.9807 10.0011 61.9807 13.4192 61.9807 16.8926C60.9442 16.8926 59.8945 16.8926 58.7812 16.8926C58.7812 11.8435 58.7812 6.81868 58.7812 1.71519C60.0183 1.70208 61.1622 1.50111 62.303 2.48034C65.6053 5.31551 69.0426 8.00081 72.4221 10.7505C72.9035 11.142 73.3581 11.5648 73.8726 12.0147C73.8726 8.54666 73.8726 5.14508 73.8726 1.68555C74.9078 1.68555 75.9584 1.68555 77.0728 1.68555C77.0728 6.74866 77.0728 11.7936 77.0728 16.9202C76.3313 16.9202 75.5988 16.9473 74.8705 16.9038C74.6486 16.8905 74.414 16.7118 74.2274 16.5598C70.1501 13.24 66.0786 9.91352 61.9807 6.56736Z" fill="#D0AA6B"/>
<path fill-rule="evenodd" clip-rule="evenodd" d="M102.058 2.44727C102.058 3.19421 102.058 3.93118 102.058 4.76293C98.0108 4.76293 93.9666 4.76293 89.8632 4.76293C89.8632 5.80716 89.8632 6.75675 89.8632 7.76553C92.2657 7.76553 94.6081 7.76553 96.9932 7.76553C96.9932 8.57611 96.9932 9.32791 96.9932 10.1664C94.6379 10.1664 92.2928 10.1664 89.9008 10.1664C89.9008 11.3387 89.9008 12.4253 89.9008 13.5557C94.0058 13.5557 98.0804 13.5557 102.224 13.5557C102.224 14.4269 102.224 15.2642 102.224 16.166C96.9146 16.166 91.6042 16.166 86.2188 16.166C86.2188 11.6281 86.2188 7.07939 86.2188 2.44727C91.4484 2.44727 96.7082 2.44727 102.058 2.44727Z" fill="#D0AA6B"/>
<path fill-rule="evenodd" clip-rule="evenodd" d="M170.818 13.2545C170.818 14.2544 170.818 15.1863 170.818 16.1668C165.478 16.1668 160.188 16.1668 154.812 16.1668C154.812 11.1141 154.812 6.05617 154.812 0.923828C160.049 0.923828 165.286 0.923828 170.594 0.923828C170.594 1.7386 170.594 2.58729 170.594 3.51891C166.566 3.51891 162.546 3.51891 158.455 3.51891C158.455 4.6503 158.455 5.70086 158.455 6.81925C160.83 6.81925 163.17 6.81925 165.561 6.81925C165.561 7.71799 165.561 8.551 165.561 9.48127C163.234 9.48127 160.891 9.48127 158.492 9.48127C158.492 10.7794 158.492 11.9825 158.492 13.2545C162.588 13.2545 166.679 13.2545 170.818 13.2545Z" fill="#D0AA6B"/>
<mask id="mask0" mask-type="alpha" maskUnits="userSpaceOnUse" x="1" y="1" width="198" height="16">
<path fill-rule="evenodd" clip-rule="evenodd" d="M1.61914 1.05859H198.12V16.8514H1.61914V1.05859Z" fill="white"/>
</mask>
<g mask="url(#mask0)">
<path fill-rule="evenodd" clip-rule="evenodd" d="M5.10712 10.3975C5.10712 12.5807 5.10712 14.6937 5.10712 16.8514C3.93202 16.8514 2.81776 16.8514 1.61914 16.8514C1.61914 11.8449 1.61914 6.82985 1.61914 1.76022C2.7165 1.76022 3.82929 1.76022 5.05657 1.76022C5.05657 3.66735 5.05657 5.57582 5.05657 7.53333C8.7503 7.53333 12.3301 7.53333 15.9651 7.53333C15.9651 5.57078 15.9651 3.65861 15.9651 1.69531C17.1547 1.69531 18.2902 1.69531 19.4828 1.69531C19.4828 6.70092 19.4828 11.701 19.4828 16.7871C18.3733 16.7871 17.2431 16.7871 16.0105 16.7871C16.0105 14.6971 16.0105 12.5692 16.0105 10.3975C12.3479 10.3975 8.78616 10.3975 5.10712 10.3975Z" fill="#D0AA6B"/>
<path fill-rule="evenodd" clip-rule="evenodd" d="M183.557 16.2711C182.317 16.2711 181.198 16.2711 180.014 16.2711C180.014 11.2395 180.014 6.24117 180.014 1.17792C181.148 1.17792 182.303 1.17792 183.516 1.17792C183.516 3.20538 183.516 5.19891 183.516 7.32774C183.767 7.17229 183.924 7.09137 184.064 6.98526C186.445 5.17031 188.811 3.3355 191.215 1.55197C191.591 1.27232 192.129 1.10797 192.602 1.08619C193.941 1.02454 195.284 1.06455 196.707 1.22282C193.496 3.55009 190.286 5.87735 187.008 8.25456C190.696 10.8893 194.322 13.4782 198.119 16.1901C197.652 16.2315 197.379 16.2754 197.104 16.2768C195.783 16.2841 194.46 16.3087 193.14 16.2622C192.758 16.2485 192.326 16.1 192.015 15.8752C189.431 14.0065 186.869 12.1048 184.301 10.2153C184.093 10.0623 183.873 9.92576 183.557 9.71369C183.557 11.9602 183.557 14.0909 183.557 16.2711Z" fill="#D0AA6B"/>
</g>
<path fill-rule="evenodd" clip-rule="evenodd" d="M142.199 4.38783C142.199 8.64178 142.199 12.765 142.199 16.9285C140.974 16.9285 139.787 16.9285 138.484 16.9285C138.484 12.7863 138.484 8.64536 138.484 4.42788C135.988 4.42788 133.608 4.42788 131.186 4.42788C131.186 3.48971 131.186 2.62864 131.186 1.68555C137.283 1.68555 143.355 1.68555 149.477 1.68555C149.477 2.55678 149.477 3.43518 149.477 4.38783C147.052 4.38783 144.669 4.38783 142.199 4.38783Z" fill="#D0AA6B"/>
<path fill-rule="evenodd" clip-rule="evenodd" d="M119.351 16.1668C118.079 16.1668 116.902 16.1668 115.646 16.1668C115.646 14.2859 115.599 12.4341 115.666 10.5863C115.697 9.72468 115.423 9.11792 114.812 8.50729C112.548 6.23998 110.337 3.92126 108.108 1.62008C107.954 1.46122 107.817 1.28705 107.559 0.989982C109.208 0.989982 110.717 0.970663 112.223 1.01123C112.442 1.01718 112.685 1.2811 112.863 1.4731C114.327 3.04953 115.779 4.63696 117.234 6.22171C117.384 6.38547 117.53 6.5534 117.732 6.78002C118.098 6.38844 118.42 6.0511 118.734 5.70678C120.049 4.26544 121.344 2.80686 122.69 1.3933C122.926 1.14498 123.362 0.971555 123.715 0.954762C124.866 0.900223 126.021 0.934403 127.374 0.934403C126.223 2.13753 125.212 3.19621 124.199 4.25281C122.745 5.76979 121.271 7.26954 119.849 8.81505C119.578 9.1093 119.385 9.57919 119.373 9.9739C119.323 11.7551 119.351 13.5382 119.351 15.3208C119.351 15.5869 119.351 15.8532 119.351 16.1668Z" fill="#D0AA6B"/>
<path fill-rule="evenodd" clip-rule="evenodd" d="M63.4638 31.3857C63.1451 31.3857 62.952 31.3857 62.7012 31.3857C62.7012 29.4202 62.7012 27.4744 62.7012 25.5298C63.8887 25.2904 63.8934 25.288 64.3901 26.3648C65.0489 27.7931 65.6996 29.2254 66.4042 30.7667C66.5589 30.5262 66.6783 30.3811 66.7555 30.214C67.3314 28.9701 67.9026 27.7236 68.4684 26.4744C68.9735 25.3591 68.9698 25.3571 70.2223 25.4926C70.2223 27.435 70.2223 29.3825 70.2223 31.3681C69.9874 31.3681 69.7775 31.3681 69.4733 31.3681C69.4733 29.6476 69.4733 27.9415 69.4733 26.2354C69.4156 26.2218 69.3579 26.2081 69.3001 26.1946C68.9836 26.882 68.6671 27.5697 68.3502 28.257C67.9601 29.1028 67.5967 29.9644 67.1638 30.7848C67.0249 31.0484 66.73 31.2836 66.4573 31.3893C66.0248 31.5569 65.8863 31.1594 65.7337 30.8181C65.029 29.2427 64.3123 27.6731 63.4638 26.13C63.4638 27.8588 63.4638 29.5876 63.4638 31.3857Z" fill="#D0AA6B"/>
<path fill-rule="evenodd" clip-rule="evenodd" d="M6.23105 26.9486C5.78153 27.0279 5.46073 27.1052 5.17509 26.5571C4.70924 25.6628 2.85685 25.6746 2.29683 26.5036C1.96387 26.9967 2.07733 27.4763 2.64625 27.6741C3.15703 27.8515 3.70281 27.9154 4.23213 28.0341C4.64161 28.1257 5.06029 28.1903 5.45569 28.3286C5.98026 28.5122 6.451 28.8931 6.38099 29.5013C6.32093 30.0222 6.11018 30.6502 5.7575 30.9816C4.87357 31.8123 2.71254 31.7907 1.77626 31.0003C1.4439 30.7197 1.25466 30.2484 0.908203 29.7255C1.37671 29.6998 1.61609 29.6868 1.84582 29.6742C2.50016 31.1443 3.78868 31.1784 4.91406 30.6727C5.21646 30.5369 5.49395 30.0384 5.53666 29.6739C5.5598 29.4772 5.0944 29.0935 4.79304 29.0014C4.08604 28.785 3.33634 28.7306 2.62 28.5416C1.69232 28.2969 1.28788 27.8173 1.2944 27.1002C1.30152 26.3206 1.78813 25.6092 2.64047 25.4671C3.40011 25.3405 4.21018 25.3487 4.96893 25.4823C5.64612 25.6016 6.15141 26.0963 6.23105 26.9486Z" fill="#D0AA6B"/>
<path fill-rule="evenodd" clip-rule="evenodd" d="M25.9941 29.7143C26.4503 29.7143 26.6928 29.7143 26.9407 29.7143C27.5234 31.121 28.8457 31.189 29.9923 30.6693C30.2842 30.5369 30.6171 30.0512 30.6012 29.7473C30.5872 29.4757 30.155 29.1011 29.8419 29.0003C29.1388 28.7737 28.3861 28.7275 27.6703 28.5369C26.7446 28.2903 26.3456 27.8073 26.3587 27.0851C26.3728 26.3061 26.8621 25.6042 27.719 25.4648C28.4791 25.341 29.29 25.3475 30.047 25.4877C30.7169 25.6117 31.2368 26.096 31.2795 26.9498C30.8308 27.0414 30.5127 27.0774 30.2321 26.5442C29.782 25.6886 27.9871 25.6778 27.3957 26.4532C27.0148 26.9524 27.1271 27.4756 27.7236 27.6813C28.235 27.8577 28.7813 27.9181 29.3109 28.0368C29.7203 28.1284 30.1447 28.182 30.5323 28.3373C31.6488 28.7848 31.8293 30.1864 30.8913 30.9708C29.9232 31.7803 27.7049 31.8 26.7702 30.9445C26.4652 30.6653 26.3005 30.2136 25.9941 29.7143Z" fill="#D0AA6B"/>
<path fill-rule="evenodd" clip-rule="evenodd" d="M77.6035 29.7202C78.0556 29.6982 78.2966 29.6864 78.5284 29.6753C79.1581 31.134 80.4625 31.1853 81.5956 30.6695C81.8969 30.5323 82.1722 30.0315 82.2118 29.6674C82.2332 29.4697 81.7649 29.0916 81.4621 28.9992C80.755 28.7835 80.0052 28.729 79.2894 28.5392C78.3624 28.2937 77.9605 27.8124 77.97 27.0931C77.9804 26.3138 78.4682 25.6069 79.3226 25.4658C80.0825 25.3405 80.8927 25.3487 81.6512 25.4843C82.3275 25.6052 82.8316 26.1021 82.9055 26.9443C82.4504 27.0365 82.1293 27.0929 81.8476 26.5507C81.4022 25.6942 79.6096 25.675 79.012 26.446C78.6258 26.9439 78.7335 27.4697 79.3281 27.6772C79.8385 27.8553 80.3851 27.9166 80.9145 28.0353C81.3239 28.1269 81.7486 28.1786 82.1366 28.3328C83.2556 28.7775 83.4429 30.177 82.509 30.965C81.5468 31.7769 79.3281 31.8021 78.3878 30.9493C78.0808 30.6709 77.9135 30.2196 77.6035 29.7202Z" fill="#D0AA6B"/>
<path fill-rule="evenodd" clip-rule="evenodd" d="M52.643 28.0151C53.57 28.0151 54.4617 28.0151 55.365 28.0151C55.5419 28.4875 55.4716 28.6948 55.0577 28.6879C54.2713 28.6749 53.4848 28.684 52.6497 28.684C52.6497 29.3894 52.6497 30.0468 52.6497 30.7995C53.5336 30.7995 54.4025 30.8094 55.2711 30.7948C55.6122 30.7891 55.845 30.8485 55.6764 31.4097C54.4467 31.4097 53.2077 31.4097 51.9219 31.4097C51.9219 29.3778 51.9219 27.3673 51.9219 25.3125C53.1369 25.3125 54.3333 25.3125 55.5307 25.3125C55.6343 25.8864 55.6346 25.9076 55.2345 25.9142C54.3846 25.9284 53.5345 25.9185 52.643 25.9185C52.643 26.6222 52.643 27.2598 52.643 28.0151Z" fill="#D0AA6B"/>
<path fill-rule="evenodd" clip-rule="evenodd" d="M13.0527 25.4827C13.6967 25.2391 14.0603 25.4705 14.3842 25.9647C14.9088 26.7654 15.4888 27.5271 16.0431 28.302C17.234 27.4936 17.4359 25.6467 18.9699 25.3125C19.0299 25.3718 19.0899 25.4311 19.1499 25.4903C18.5188 26.3298 17.9275 27.2064 17.2441 27.9974C16.68 28.6501 16.4165 29.3406 16.5212 30.208C16.5645 30.5662 16.5284 30.9346 16.5284 31.3449C16.2551 31.3687 16.0384 31.3876 15.7847 31.4097C15.7547 31.2286 15.6877 31.0728 15.7117 30.9342C15.9642 29.4816 15.4051 28.3561 14.4677 27.3353C13.9522 26.7737 13.5321 26.1178 13.0527 25.4827Z" fill="#D0AA6B"/>
<path fill-rule="evenodd" clip-rule="evenodd" d="M41.7392 31.4097C41.3606 31.4097 41.1345 31.4097 40.8513 31.4097C40.8513 29.6085 40.8513 27.8461 40.8513 25.9999C39.9871 25.9999 39.1787 25.9999 38.3704 25.9999C38.3146 25.9245 38.2589 25.849 38.2031 25.7736C38.3566 25.6206 38.508 25.3376 38.6641 25.3347C40.4169 25.3033 42.1705 25.3091 43.9234 25.3279C44.0501 25.3292 44.1748 25.5098 44.3003 25.607C44.1676 25.7241 44.0395 25.9354 43.9014 25.9424C43.2138 25.9773 42.5239 25.9582 41.7392 25.9582C41.7392 27.7794 41.7392 29.5604 41.7392 31.4097Z" fill="#D0AA6B"/>
</svg>
