<?xml version="1.0" encoding="UTF-8"?>
<svg width="596px" height="680px" viewBox="0 0 596 680" version="1.1" xmlns="http://www.w3.org/2000/svg" xmlns:xlink="http://www.w3.org/1999/xlink">
    <!-- Generator: Sketch 58 (84663) - https://sketch.com -->
    <title>HONEYCOMB PATTERN</title>
    <desc>Created with Sketch.</desc>
    <g id="PAGES---DESKTOP-+-MOBILE" stroke="none" stroke-width="1" fill="none" fill-rule="evenodd" opacity="0.7">
        <g id="Desktop-HD" transform="translate(-712.000000, -1190.000000)" fill="#DCB06F">
            <g id="SECTION_2" transform="translate(278.000000, 1190.000000)">
                <g id="HONEYCOMB-PATTERN" transform="translate(434.614274, 0.000000)">
                    <g id="HONEYCOMBS" transform="translate(77.739214, 0.000000)">
                        <polygon id="Fill-16" points="392.887969 112.035926 385.647474 99.8413871 392.887969 87.6471532 407.36896 87.6471532 414.609142 99.8413871 407.36896 112.035926"></polygon>
                        <polygon id="Fill-16" points="366.974898 126.51676 359.734403 114.322221 366.974898 102.127987 381.455889 102.127987 388.696071 114.322221 381.455889 126.51676"></polygon>
                        <polygon id="Fill-16" points="341.823976 141.759743 334.58348 129.565204 341.823976 117.37097 356.304967 117.37097 363.545148 129.565204 356.304967 141.759743"></polygon>
                        <polygon id="Fill-16" points="392.887969 140.997594 385.647474 128.803055 392.887969 116.608821 407.36896 116.608821 414.609142 128.803055 407.36896 140.997594"></polygon>
                        <polygon id="Fill-16" points="366.974898 155.478428 359.734403 143.283889 366.974898 131.089655 381.455889 131.089655 388.696071 143.283889 381.455889 155.478428"></polygon>
                        <polygon id="Fill-16" points="392.887969 112.035926 385.647474 99.8413871 392.887969 87.6471532 407.36896 87.6471532 414.609142 99.8413871 407.36896 112.035926"></polygon>
                        <polygon id="Fill-16" points="366.974898 126.51676 359.734403 114.322221 366.974898 102.127987 381.455889 102.127987 388.696071 114.322221 381.455889 126.51676"></polygon>
                        <polygon id="Fill-16" points="341.823976 141.759743 334.58348 129.565204 341.823976 117.37097 356.304967 117.37097 363.545148 129.565204 356.304967 141.759743"></polygon>
                        <polygon id="Fill-16" points="392.887969 140.997594 385.647474 128.803055 392.887969 116.608821 407.36896 116.608821 414.609142 128.803055 407.36896 140.997594"></polygon>
                        <polygon id="Fill-16" points="366.974898 155.478428 359.734403 143.283889 366.974898 131.089655 381.455889 131.089655 388.696071 143.283889 381.455889 155.478428"></polygon>
                        <polygon id="Fill-16" points="366.974898 126.51676 359.734403 114.322221 366.974898 102.127987 381.455889 102.127987 388.696071 114.322221 381.455889 126.51676"></polygon>
                        <polygon id="Fill-16" points="418.801041 128.041059 411.560545 115.846519 418.801041 103.652285 433.282032 103.652285 440.522213 115.846519 433.282032 128.041059"></polygon>
                        <polygon id="Fill-16" points="418.801041 98.3172414 411.560545 86.1227022 418.801041 73.9284683 433.282032 73.9284683 440.522213 86.1227022 433.282032 98.3172414"></polygon>
                        <polygon id="Fill-16" points="418.801041 157.002727 411.560545 144.808187 418.801041 132.613953 433.282032 132.613953 440.522213 144.808187 433.282032 157.002727"></polygon>
                        <polygon id="Fill-16" points="392.887969 53.3504411 385.647474 41.1559019 392.887969 28.961668 407.36896 28.961668 414.609142 41.1559019 407.36896 53.3504411"></polygon>
                        <polygon id="Fill-16" points="392.887969 24.3887731 385.647474 12.1942339 392.887969 0 407.36896 0 414.609142 12.1942339 407.36896 24.3887731"></polygon>
                        <polygon id="Fill-16" points="366.974898 38.8696071 359.734403 26.6750679 366.974898 14.480834 381.455889 14.480834 388.696071 26.6750679 381.455889 38.8696071"></polygon>
                        <polygon id="Fill-16" points="418.801041 67.8312751 411.560545 55.6367359 418.801041 43.442502 433.282032 43.442502 440.522213 55.6367359 433.282032 67.8312751"></polygon>
                        <polygon id="Fill-16" points="392.887969 82.3121091 385.647474 70.1175699 392.887969 57.923336 407.36896 57.923336 414.609142 70.1175699 407.36896 82.3121091"></polygon>
                        <polygon id="Fill-16" points="392.887969 53.3504411 385.647474 41.1559019 392.887969 28.961668 407.36896 28.961668 414.609142 41.1559019 407.36896 53.3504411"></polygon>
                        <polygon id="Fill-16" points="392.887969 24.3887731 385.647474 12.1942339 392.887969 0 407.36896 0 414.609142 12.1942339 407.36896 24.3887731"></polygon>
                        <polygon id="Fill-16" points="366.974898 38.8696071 359.734403 26.6750679 366.974898 14.480834 381.455889 14.480834 388.696071 26.6750679 381.455889 38.8696071"></polygon>
                        <polygon id="Fill-16" points="418.801041 67.8312751 411.560545 55.6367359 418.801041 43.442502 433.282032 43.442502 440.522213 55.6367359 433.282032 67.8312751"></polygon>
                        <polygon id="Fill-16" points="392.887969 82.3121091 385.647474 70.1175699 392.887969 57.923336 407.36896 57.923336 414.609142 70.1175699 407.36896 82.3121091"></polygon>
                        <polygon id="Fill-16" points="392.887969 53.3504411 385.647474 41.1559019 392.887969 28.961668 407.36896 28.961668 414.609142 41.1559019 407.36896 53.3504411"></polygon>
                        <polygon id="Fill-16" points="469.865034 69.3555734 462.624539 57.1610342 469.865034 44.9668003 484.346025 44.9668003 491.586207 57.1610342 484.346025 69.3555734"></polygon>
                        <polygon id="Fill-16" points="444.714112 54.8747394 437.473617 42.6802002 444.714112 30.4859663 459.195103 30.4859663 466.435285 42.6802002 459.195103 54.8747394"></polygon>
                        <polygon id="Fill-16" points="341.823976 24.3887731 334.58348 12.1942339 341.823976 0 356.304967 0 363.545148 12.1942339 356.304967 24.3887731"></polygon>
                        <polygon id="Fill-16" points="264.846911 155.478428 257.606415 143.283889 264.846911 131.089655 279.327902 131.089655 286.568083 143.283889 279.327902 155.478428"></polygon>
                        <polygon id="Fill-16" points="392.887969 257.606415 385.647474 245.411876 392.887969 233.217642 407.36896 233.217642 414.609142 245.411876 407.36896 257.606415"></polygon>
                        <polygon id="Fill-16" points="366.974898 272.087249 359.734403 259.89271 366.974898 247.698476 381.455889 247.698476 388.696071 259.89271 381.455889 272.087249"></polygon>
                        <polygon id="Fill-16" points="366.974898 243.125581 359.734403 230.931042 366.974898 218.736808 381.455889 218.736808 388.696071 230.931042 381.455889 243.125581"></polygon>
                        <polygon id="Fill-16" points="341.061827 257.606415 333.821331 245.411876 341.061827 233.217642 355.542818 233.217642 362.782999 245.411876 355.542818 257.606415"></polygon>
                        <polygon id="Fill-16" points="341.823976 287.330233 334.58348 275.135693 341.823976 262.94146 356.304967 262.94146 363.545148 275.135693 356.304967 287.330233"></polygon>
                        <polygon id="Fill-16" points="392.887969 286.568083 385.647474 274.373544 392.887969 262.17931 407.36896 262.17931 414.609142 274.373544 407.36896 286.568083"></polygon>
                        <polygon id="Fill-16" points="366.974898 301.048917 359.734403 288.854378 366.974898 276.660144 381.455889 276.660144 388.696071 288.854378 381.455889 301.048917"></polygon>
                        <polygon id="Fill-16" points="392.887969 257.606415 385.647474 245.411876 392.887969 233.217642 407.36896 233.217642 414.609142 245.411876 407.36896 257.606415"></polygon>
                        <polygon id="Fill-16" points="366.974898 272.087249 359.734403 259.89271 366.974898 247.698476 381.455889 247.698476 388.696071 259.89271 381.455889 272.087249"></polygon>
                        <polygon id="Fill-16" points="366.974898 243.125581 359.734403 230.931042 366.974898 218.736808 381.455889 218.736808 388.696071 230.931042 381.455889 243.125581"></polygon>
                        <polygon id="Fill-16" points="341.061827 257.606415 333.821331 245.411876 341.061827 233.217642 355.542818 233.217642 362.782999 245.411876 355.542818 257.606415"></polygon>
                        <polygon id="Fill-16" points="341.823976 287.330233 334.58348 275.135693 341.823976 262.94146 356.304967 262.94146 363.545148 275.135693 356.304967 287.330233"></polygon>
                        <polygon id="Fill-16" points="392.887969 286.568083 385.647474 274.373544 392.887969 262.17931 407.36896 262.17931 414.609142 274.373544 407.36896 286.568083"></polygon>
                        <polygon id="Fill-16" points="366.974898 301.048917 359.734403 288.854378 366.974898 276.660144 381.455889 276.660144 388.696071 288.854378 381.455889 301.048917"></polygon>
                        <polygon id="Fill-16" points="366.974898 272.087249 359.734403 259.89271 366.974898 247.698476 381.455889 247.698476 388.696071 259.89271 381.455889 272.087249"></polygon>
                        <polygon id="Fill-16" points="443.951963 257.606415 436.711468 245.411876 443.951963 233.217642 458.432954 233.217642 465.673136 245.411876 458.432954 257.606415"></polygon>
                        <polygon id="Fill-16" points="418.801041 273.611548 411.560545 261.417009 418.801041 249.222775 433.282032 249.222775 440.522213 261.417009 433.282032 273.611548"></polygon>
                        <polygon id="Fill-16" points="418.801041 243.887731 411.560545 231.693191 418.801041 219.498957 433.282032 219.498957 440.522213 231.693191 433.282032 243.887731"></polygon>
                        <polygon id="Fill-16" points="418.801041 302.573216 411.560545 290.378677 418.801041 278.184443 433.282032 278.184443 440.522213 290.378677 433.282032 302.573216"></polygon>
                        <polygon id="Fill-16" points="444.714112 287.330233 437.473617 275.135693 444.714112 262.94146 459.195103 262.94146 466.435285 275.135693 459.195103 287.330233"></polygon>
                        <polygon id="Fill-16" points="495.778106 286.568083 488.53761 274.373544 495.778106 262.17931 510.259097 262.17931 517.499278 274.373544 510.259097 286.568083"></polygon>
                        <polygon id="Fill-16" points="469.865034 301.048917 462.624539 288.854378 469.865034 276.660144 484.346025 276.660144 491.586207 288.854378 484.346025 301.048917"></polygon>
                        <polygon id="Fill-16" points="469.865034 330.010585 462.624539 317.816046 469.865034 305.621812 484.346025 305.621812 491.586207 317.816046 484.346025 330.010585"></polygon>
                        <polygon id="Fill-16" points="443.951963 344.491419 436.711468 332.29688 443.951963 320.102646 458.432954 320.102646 465.673136 332.29688 458.432954 344.491419"></polygon>
                        <polygon id="Fill-16" points="470.627184 359.734403 463.386688 347.539863 470.627184 335.34563 485.108174 335.34563 492.348356 347.539863 485.108174 359.734403"></polygon>
                        <polygon id="Fill-16" points="444.714112 374.215237 437.473617 362.020697 444.714112 349.826464 459.195103 349.826464 466.435285 362.020697 459.195103 374.215237"></polygon>
                        <polygon id="Fill-16" points="418.801041 184.440096 411.560545 172.245557 418.801041 160.051323 433.282032 160.051323 440.522213 172.245557 433.282032 184.440096"></polygon>
                        <polygon id="Fill-16" points="392.887969 198.92093 385.647474 186.726391 392.887969 174.532157 407.36896 174.532157 414.609142 186.726391 407.36896 198.92093"></polygon>
                        <polygon id="Fill-16" points="392.887969 169.959262 385.647474 157.764723 392.887969 145.570489 407.36896 145.570489 414.609142 157.764723 407.36896 169.959262"></polygon>
                        <polygon id="Fill-16" points="366.974898 184.440096 359.734403 172.245557 366.974898 160.051323 381.455889 160.051323 388.696071 172.245557 381.455889 184.440096"></polygon>
                        <polygon id="Fill-16" points="367.737047 214.163913 360.496552 201.969374 367.737047 189.77514 382.218038 189.77514 389.45822 201.969374 382.218038 214.163913"></polygon>
                        <polygon id="Fill-16" points="418.801041 213.401764 411.560545 201.207225 418.801041 189.012991 433.282032 189.012991 440.522213 201.207225 433.282032 213.401764"></polygon>
                        <polygon id="Fill-16" points="392.887969 227.882598 385.647474 215.688059 392.887969 203.493825 407.36896 203.493825 414.609142 215.688059 407.36896 227.882598"></polygon>
                        <polygon id="Fill-16" points="418.801041 184.440096 411.560545 172.245557 418.801041 160.051323 433.282032 160.051323 440.522213 172.245557 433.282032 184.440096"></polygon>
                        <polygon id="Fill-16" points="392.887969 198.92093 385.647474 186.726391 392.887969 174.532157 407.36896 174.532157 414.609142 186.726391 407.36896 198.92093"></polygon>
                        <polygon id="Fill-16" points="392.887969 169.959262 385.647474 157.764723 392.887969 145.570489 407.36896 145.570489 414.609142 157.764723 407.36896 169.959262"></polygon>
                        <polygon id="Fill-16" points="366.974898 184.440096 359.734403 172.245557 366.974898 160.051323 381.455889 160.051323 388.696071 172.245557 381.455889 184.440096"></polygon>
                        <polygon id="Fill-16" points="367.737047 214.163913 360.496552 201.969374 367.737047 189.77514 382.218038 189.77514 389.45822 201.969374 382.218038 214.163913"></polygon>
                        <polygon id="Fill-16" points="418.801041 213.401764 411.560545 201.207225 418.801041 189.012991 433.282032 189.012991 440.522213 201.207225 433.282032 213.401764"></polygon>
                        <polygon id="Fill-16" points="392.887969 227.882598 385.647474 215.688059 392.887969 203.493825 407.36896 203.493825 414.609142 215.688059 407.36896 227.882598"></polygon>
                        <polygon id="Fill-16" points="392.887969 198.92093 385.647474 186.726391 392.887969 174.532157 407.36896 174.532157 414.609142 186.726391 407.36896 198.92093"></polygon>
                        <polygon id="Fill-16" points="469.865034 184.440096 462.624539 172.245557 469.865034 160.051323 484.346025 160.051323 491.586207 172.245557 484.346025 184.440096"></polygon>
                        <polygon id="Fill-16" points="495.778106 198.92093 488.53761 186.726391 495.778106 174.532157 510.259097 174.532157 517.499278 186.726391 510.259097 198.92093"></polygon>
                        <polygon id="Fill-16" points="444.714112 170.721411 437.473617 158.526872 444.714112 146.332638 459.195103 146.332638 466.435285 158.526872 459.195103 170.721411"></polygon>
                        <polygon id="Fill-16" points="444.714112 229.406897 437.473617 217.212357 444.714112 205.018123 459.195103 205.018123 466.435285 217.212357 459.195103 229.406897"></polygon>
                        <polygon id="Fill-16" points="264.846911 184.440096 257.606415 172.245557 264.846911 160.051323 279.327902 160.051323 286.568083 172.245557 279.327902 184.440096"></polygon>
                        <polygon id="Fill-16" points="238.933839 198.92093 231.693344 186.726391 238.933839 174.532157 253.41483 174.532157 260.655012 186.726391 253.41483 198.92093"></polygon>
                        <polygon id="Fill-16" points="213.782917 214.163913 206.542422 201.969374 213.782917 189.77514 228.263908 189.77514 235.50409 201.969374 228.263908 214.163913"></polygon>
                        <polygon id="Fill-16" points="264.846911 213.401764 257.606415 201.207225 264.846911 189.012991 279.327902 189.012991 286.568083 201.207225 279.327902 213.401764"></polygon>
                        <polygon id="Fill-16" points="238.933839 227.882598 231.693344 215.688059 238.933839 203.493825 253.41483 203.493825 260.655012 215.688059 253.41483 227.882598"></polygon>
                        <polygon id="Fill-16" points="264.846911 184.440096 257.606415 172.245557 264.846911 160.051323 279.327902 160.051323 286.568083 172.245557 279.327902 184.440096"></polygon>
                        <polygon id="Fill-16" points="238.933839 198.92093 231.693344 186.726391 238.933839 174.532157 253.41483 174.532157 260.655012 186.726391 253.41483 198.92093"></polygon>
                        <polygon id="Fill-16" points="213.782917 214.163913 206.542422 201.969374 213.782917 189.77514 228.263908 189.77514 235.50409 201.969374 228.263908 214.163913"></polygon>
                        <polygon id="Fill-16" points="264.846911 213.401764 257.606415 201.207225 264.846911 189.012991 279.327902 189.012991 286.568083 201.207225 279.327902 213.401764"></polygon>
                        <polygon id="Fill-16" points="238.933839 227.882598 231.693344 215.688059 238.933839 203.493825 253.41483 203.493825 260.655012 215.688059 253.41483 227.882598"></polygon>
                        <polygon id="Fill-16" points="238.933839 198.92093 231.693344 186.726391 238.933839 174.532157 253.41483 174.532157 260.655012 186.726391 253.41483 198.92093"></polygon>
                        <polygon id="Fill-16" points="341.823976 169.959262 334.58348 157.764723 341.823976 145.570489 356.304967 145.570489 363.545148 157.764723 356.304967 169.959262"></polygon>
                        <polygon id="Fill-16" points="315.910904 184.440096 308.670409 172.245557 315.910904 160.051323 330.391895 160.051323 337.632077 172.245557 330.391895 184.440096"></polygon>
                        <polygon id="Fill-16" points="341.823976 198.92093 334.58348 186.726391 341.823976 174.532157 356.304967 174.532157 363.545148 186.726391 356.304967 198.92093"></polygon>
                        <polygon id="Fill-16" points="290.759982 200.445229 283.519487 188.250689 290.759982 176.056455 305.240973 176.056455 312.481155 188.250689 305.240973 200.445229"></polygon>
                        <polygon id="Fill-16" points="290.759982 170.721411 283.519487 158.526872 290.759982 146.332638 305.240973 146.332638 312.481155 158.526872 305.240973 170.721411"></polygon>
                        <polygon id="Fill-16" points="290.759982 229.406897 283.519487 217.212357 290.759982 205.018123 305.240973 205.018123 312.481155 217.212357 305.240973 229.406897"></polygon>
                        <polygon id="Fill-16" points="316.673054 214.163913 309.432558 201.969374 316.673054 189.77514 331.154045 189.77514 338.394226 201.969374 331.154045 214.163913"></polygon>
                        <polygon id="Fill-16" points="264.846911 242.363432 257.606415 230.168893 264.846911 217.974659 279.327902 217.974659 286.568083 230.168893 279.327902 242.363432"></polygon>
                        <polygon id="Fill-16" points="238.933839 256.844266 231.693344 244.649727 238.933839 232.455493 253.41483 232.455493 260.655012 244.649727 253.41483 256.844266"></polygon>
                        <polygon id="Fill-16" points="238.933839 227.882598 231.693344 215.688059 238.933839 203.493825 253.41483 203.493825 260.655012 215.688059 253.41483 227.882598"></polygon>
                        <polygon id="Fill-16" points="213.020768 242.363432 205.780273 230.168893 213.020768 217.974659 227.501759 217.974659 234.741941 230.168893 227.501759 242.363432"></polygon>
                        <polygon id="Fill-16" points="213.782917 272.087249 206.542422 259.89271 213.782917 247.698476 228.263908 247.698476 235.50409 259.89271 228.263908 272.087249"></polygon>
                        <polygon id="Fill-16" points="264.846911 271.3251 257.606415 259.130561 264.846911 246.936327 279.327902 246.936327 286.568083 259.130561 279.327902 271.3251"></polygon>
                        <polygon id="Fill-16" points="238.933839 285.805934 231.693344 273.611395 238.933839 261.417161 253.41483 261.417161 260.655012 273.611395 253.41483 285.805934"></polygon>
                        <polygon id="Fill-16" points="264.846911 242.363432 257.606415 230.168893 264.846911 217.974659 279.327902 217.974659 286.568083 230.168893 279.327902 242.363432"></polygon>
                        <polygon id="Fill-16" points="238.933839 256.844266 231.693344 244.649727 238.933839 232.455493 253.41483 232.455493 260.655012 244.649727 253.41483 256.844266"></polygon>
                        <polygon id="Fill-16" points="238.933839 227.882598 231.693344 215.688059 238.933839 203.493825 253.41483 203.493825 260.655012 215.688059 253.41483 227.882598"></polygon>
                        <polygon id="Fill-16" points="213.020768 242.363432 205.780273 230.168893 213.020768 217.974659 227.501759 217.974659 234.741941 230.168893 227.501759 242.363432"></polygon>
                        <polygon id="Fill-16" points="213.782917 272.087249 206.542422 259.89271 213.782917 247.698476 228.263908 247.698476 235.50409 259.89271 228.263908 272.087249"></polygon>
                        <polygon id="Fill-16" points="264.846911 271.3251 257.606415 259.130561 264.846911 246.936327 279.327902 246.936327 286.568083 259.130561 279.327902 271.3251"></polygon>
                        <polygon id="Fill-16" points="238.933839 285.805934 231.693344 273.611395 238.933839 261.417161 253.41483 261.417161 260.655012 273.611395 253.41483 285.805934"></polygon>
                        <polygon id="Fill-16" points="238.933839 256.844266 231.693344 244.649727 238.933839 232.455493 253.41483 232.455493 260.655012 244.649727 253.41483 256.844266"></polygon>
                        <polygon id="Fill-16" points="315.910904 242.363432 308.670409 230.168893 315.910904 217.974659 330.391895 217.974659 337.632077 230.168893 330.391895 242.363432"></polygon>
                        <polygon id="Fill-16" points="290.759982 258.368565 283.519487 246.174025 290.759982 233.979791 305.240973 233.979791 312.481155 246.174025 305.240973 258.368565"></polygon>
                        <polygon id="Fill-16" points="290.759982 287.330233 283.519487 275.135693 290.759982 262.94146 305.240973 262.94146 312.481155 275.135693 305.240973 287.330233"></polygon>
                        <polygon id="Fill-16" points="316.673054 272.087249 309.432558 259.89271 316.673054 247.698476 331.154045 247.698476 338.394226 259.89271 331.154045 272.087249"></polygon>
                        <polygon id="Fill-16" points="341.823976 227.882598 334.58348 215.688059 341.823976 203.493825 356.304967 203.493825 363.545148 215.688059 356.304967 227.882598"></polygon>
                        <polygon id="Fill-16" points="84.2175604 228.644747 76.977065 216.450208 84.2175604 204.255974 98.6985514 204.255974 105.938733 216.450208 98.6985514 228.644747"></polygon>
                        <polygon id="Fill-16" points="58.3044891 243.125581 51.0639936 230.931042 58.3044891 218.736808 72.78548 218.736808 80.0256616 230.931042 72.78548 243.125581"></polygon>
                        <polygon id="Fill-16" points="33.1535668 258.368565 25.9130714 246.174025 33.1535668 233.979791 47.6345578 233.979791 54.8747394 246.174025 47.6345578 258.368565"></polygon>
                        <polygon id="Fill-16" points="84.2175604 257.606415 76.977065 245.411876 84.2175604 233.217642 98.6985514 233.217642 105.938733 245.411876 98.6985514 257.606415"></polygon>
                        <polygon id="Fill-16" points="84.2175604 228.644747 76.977065 216.450208 84.2175604 204.255974 98.6985514 204.255974 105.938733 216.450208 98.6985514 228.644747"></polygon>
                        <polygon id="Fill-16" points="58.3044891 243.125581 51.0639936 230.931042 58.3044891 218.736808 72.78548 218.736808 80.0256616 230.931042 72.78548 243.125581"></polygon>
                        <polygon id="Fill-16" points="33.1535668 258.368565 25.9130714 246.174025 33.1535668 233.979791 47.6345578 233.979791 54.8747394 246.174025 47.6345578 258.368565"></polygon>
                        <polygon id="Fill-16" points="84.2175604 257.606415 76.977065 245.411876 84.2175604 233.217642 98.6985514 233.217642 105.938733 245.411876 98.6985514 257.606415"></polygon>
                        <polygon id="Fill-16" points="187.107697 228.644747 179.867201 216.450208 187.107697 204.255974 201.588688 204.255974 208.828869 216.450208 201.588688 228.644747"></polygon>
                        <polygon id="Fill-16" points="58.3044891 243.125581 51.0639936 230.931042 58.3044891 218.736808 72.78548 218.736808 80.0256616 230.931042 72.78548 243.125581"></polygon>
                        <polygon id="Fill-16" points="161.194625 214.163913 153.95413 201.969374 161.194625 189.77514 175.675616 189.77514 182.915798 201.969374 175.675616 214.163913"></polygon>
                        <polygon id="Fill-16" points="135.281554 228.644747 128.041059 216.450208 135.281554 204.255974 149.762545 204.255974 157.002727 216.450208 149.762545 228.644747"></polygon>
                        <polygon id="Fill-16" points="161.194625 243.125581 153.95413 230.931042 161.194625 218.736808 175.675616 218.736808 182.915798 230.931042 175.675616 243.125581"></polygon>
                        <polygon id="Fill-16" points="110.130632 244.64988 102.890136 232.455341 110.130632 220.261107 124.611623 220.261107 131.851804 232.455341 124.611623 244.64988"></polygon>
                        <polygon id="Fill-16" points="110.130632 214.926063 102.890136 202.731523 110.130632 190.537289 124.611623 190.537289 131.851804 202.731523 124.611623 214.926063"></polygon>
                        <polygon id="Fill-16" points="110.130632 273.611548 102.890136 261.417009 110.130632 249.222775 124.611623 249.222775 131.851804 261.417009 124.611623 273.611548"></polygon>
                        <polygon id="Fill-16" points="136.043703 258.368565 128.803208 246.174025 136.043703 233.979791 150.524694 233.979791 157.764876 246.174025 150.524694 258.368565"></polygon>
                        <polygon id="Fill-16" points="187.107697 257.606415 179.867201 245.411876 187.107697 233.217642 201.588688 233.217642 208.828869 245.411876 201.588688 257.606415"></polygon>
                        <polygon id="Fill-16" points="161.194625 272.087249 153.95413 259.89271 161.194625 247.698476 175.675616 247.698476 182.915798 259.89271 175.675616 272.087249"></polygon>
                        <polygon id="Fill-16" points="59.0666382 185.202245 51.8261427 173.007706 59.0666382 160.813472 73.5476292 160.813472 80.7878107 173.007706 73.5476292 185.202245"></polygon>
                        <polygon id="Fill-16" points="110.130632 184.440096 102.890136 172.245557 110.130632 160.051323 124.611623 160.051323 131.851804 172.245557 124.611623 184.440096"></polygon>
                        <polygon id="Fill-16" points="84.2175604 198.92093 76.977065 186.726391 84.2175604 174.532157 98.6985514 174.532157 105.938733 186.726391 98.6985514 198.92093"></polygon>
                        <polygon id="Fill-16" points="59.0666382 185.202245 51.8261427 173.007706 59.0666382 160.813472 73.5476292 160.813472 80.7878107 173.007706 73.5476292 185.202245"></polygon>
                        <polygon id="Fill-16" points="110.130632 184.440096 102.890136 172.245557 110.130632 160.051323 124.611623 160.051323 131.851804 172.245557 124.611623 184.440096"></polygon>
                        <polygon id="Fill-16" points="84.2175604 198.92093 76.977065 186.726391 84.2175604 174.532157 98.6985514 174.532157 105.938733 186.726391 98.6985514 198.92093"></polygon>
                        <polygon id="Fill-16" points="187.107697 140.997594 179.867201 128.803055 187.107697 116.608821 201.588688 116.608821 208.828869 128.803055 201.588688 140.997594"></polygon>
                        <polygon id="Fill-16" points="161.194625 155.478428 153.95413 143.283889 161.194625 131.089655 175.675616 131.089655 182.915798 143.283889 175.675616 155.478428"></polygon>
                        <polygon id="Fill-16" points="136.043703 200.445229 128.803208 188.250689 136.043703 176.056455 150.524694 176.056455 157.764876 188.250689 150.524694 200.445229"></polygon>
                        <polygon id="Fill-16" points="161.956775 185.202245 154.716279 173.007706 161.956775 160.813472 176.437765 160.813472 183.677947 173.007706 176.437765 185.202245"></polygon>
                        <polygon id="Fill-16" points="187.107697 198.92093 179.867201 186.726391 187.107697 174.532157 201.588688 174.532157 208.828869 186.726391 201.588688 198.92093"></polygon>
                        <polygon id="Fill-16" points="7.24049547 155.478428 0 143.283889 7.24049547 131.089655 21.7214864 131.089655 28.961668 143.283889 21.7214864 155.478428"></polygon>
                        <polygon id="Fill-16" points="33.1535668 169.959262 25.9130714 157.764723 33.1535668 145.570489 47.6345578 145.570489 54.8747394 157.764723 47.6345578 169.959262"></polygon>
                        <polygon id="Fill-16" points="8.00264463 185.202245 0.762149158 173.007706 8.00264463 160.813472 22.4836356 160.813472 29.7238172 173.007706 22.4836356 185.202245"></polygon>
                        <polygon id="Fill-16" points="84.2175604 374.215237 76.977065 362.020697 84.2175604 349.826464 98.6985514 349.826464 105.938733 362.020697 98.6985514 374.215237"></polygon>
                        <polygon id="Fill-16" points="58.3044891 359.734403 51.0639936 347.539863 58.3044891 335.34563 72.78548 335.34563 80.0256616 347.539863 72.78548 359.734403"></polygon>
                        <polygon id="Fill-16" points="84.2175604 403.176905 76.977065 390.982365 84.2175604 378.788132 98.6985514 378.788132 105.938733 390.982365 98.6985514 403.176905"></polygon>
                        <polygon id="Fill-16" points="58.3044891 417.657739 51.0639936 405.463199 58.3044891 393.268966 72.78548 393.268966 80.0256616 405.463199 72.78548 417.657739"></polygon>
                        <polygon id="Fill-16" points="84.2175604 374.215237 76.977065 362.020697 84.2175604 349.826464 98.6985514 349.826464 105.938733 362.020697 98.6985514 374.215237"></polygon>
                        <polygon id="Fill-16" points="58.3044891 359.734403 51.0639936 347.539863 58.3044891 335.34563 72.78548 335.34563 80.0256616 347.539863 72.78548 359.734403"></polygon>
                        <polygon id="Fill-16" points="84.2175604 403.176905 76.977065 390.982365 84.2175604 378.788132 98.6985514 378.788132 105.938733 390.982365 98.6985514 403.176905"></polygon>
                        <polygon id="Fill-16" points="58.3044891 417.657739 51.0639936 405.463199 58.3044891 393.268966 72.78548 393.268966 80.0256616 405.463199 72.78548 417.657739"></polygon>
                        <polygon id="Fill-16" points="187.107697 374.215237 179.867201 362.020697 187.107697 349.826464 201.588688 349.826464 208.828869 362.020697 201.588688 374.215237"></polygon>
                        <polygon id="Fill-16" points="161.194625 359.734403 153.95413 347.539863 161.194625 335.34563 175.675616 335.34563 182.915798 347.539863 175.675616 359.734403"></polygon>
                        <polygon id="Fill-16" points="135.281554 374.215237 128.041059 362.020697 135.281554 349.826464 149.762545 349.826464 157.002727 362.020697 149.762545 374.215237"></polygon>
                        <polygon id="Fill-16" points="161.194625 388.696071 153.95413 376.501531 161.194625 364.307298 175.675616 364.307298 182.915798 376.501531 175.675616 388.696071"></polygon>
                        <polygon id="Fill-16" points="110.130632 390.220369 102.890136 378.02583 110.130632 365.831596 124.611623 365.831596 131.851804 378.02583 124.611623 390.220369"></polygon>
                        <polygon id="Fill-16" points="110.130632 360.496552 102.890136 348.302013 110.130632 336.107779 124.611623 336.107779 131.851804 348.302013 124.611623 360.496552"></polygon>
                        <polygon id="Fill-16" points="110.130632 419.182037 102.890136 406.987498 110.130632 394.793264 124.611623 394.793264 131.851804 406.987498 124.611623 419.182037"></polygon>
                        <polygon id="Fill-16" points="136.043703 403.939054 128.803208 391.744515 136.043703 379.550281 150.524694 379.550281 157.764876 391.744515 150.524694 403.939054"></polygon>
                        <polygon id="Fill-16" points="187.107697 403.176905 179.867201 390.982365 187.107697 378.788132 201.588688 378.788132 208.828869 390.982365 201.588688 403.176905"></polygon>
                        <polygon id="Fill-16" points="161.194625 417.657739 153.95413 405.463199 161.194625 393.268966 175.675616 393.268966 182.915798 405.463199 175.675616 417.657739"></polygon>
                        <polygon id="Fill-16" points="110.130632 301.048917 102.890136 288.854378 110.130632 276.660144 124.611623 276.660144 131.851804 288.854378 124.611623 301.048917"></polygon>
                        <polygon id="Fill-16" points="84.2175604 286.568083 76.977065 274.373544 84.2175604 262.17931 98.6985514 262.17931 105.938733 274.373544 98.6985514 286.568083"></polygon>
                        <polygon id="Fill-16" points="110.130632 330.010585 102.890136 317.816046 110.130632 305.621812 124.611623 305.621812 131.851804 317.816046 124.611623 330.010585"></polygon>
                        <polygon id="Fill-16" points="84.2175604 344.491419 76.977065 332.29688 84.2175604 320.102646 98.6985514 320.102646 105.938733 332.29688 98.6985514 344.491419"></polygon>
                        <polygon id="Fill-16" points="110.130632 301.048917 102.890136 288.854378 110.130632 276.660144 124.611623 276.660144 131.851804 288.854378 124.611623 301.048917"></polygon>
                        <polygon id="Fill-16" points="84.2175604 286.568083 76.977065 274.373544 84.2175604 262.17931 98.6985514 262.17931 105.938733 274.373544 98.6985514 286.568083"></polygon>
                        <polygon id="Fill-16" points="110.130632 330.010585 102.890136 317.816046 110.130632 305.621812 124.611623 305.621812 131.851804 317.816046 124.611623 330.010585"></polygon>
                        <polygon id="Fill-16" points="84.2175604 344.491419 76.977065 332.29688 84.2175604 320.102646 98.6985514 320.102646 105.938733 332.29688 98.6985514 344.491419"></polygon>
                        <polygon id="Fill-16" points="213.020768 301.048917 205.780273 288.854378 213.020768 276.660144 227.501759 276.660144 234.741941 288.854378 227.501759 301.048917"></polygon>
                        <polygon id="Fill-16" points="187.107697 286.568083 179.867201 274.373544 187.107697 262.17931 201.588688 262.17931 208.828869 274.373544 201.588688 286.568083"></polygon>
                        <polygon id="Fill-16" points="161.194625 301.048917 153.95413 288.854378 161.194625 276.660144 175.675616 276.660144 182.915798 288.854378 175.675616 301.048917"></polygon>
                        <polygon id="Fill-16" points="187.107697 315.529751 179.867201 303.335212 187.107697 291.140978 201.588688 291.140978 208.828869 303.335212 201.588688 315.529751"></polygon>
                        <polygon id="Fill-16" points="136.043703 317.05405 128.803208 304.859511 136.043703 292.665277 150.524694 292.665277 157.764876 304.859511 150.524694 317.05405"></polygon>
                        <polygon id="Fill-16" points="136.043703 287.330233 128.803208 275.135693 136.043703 262.94146 150.524694 262.94146 157.764876 275.135693 150.524694 287.330233"></polygon>
                        <polygon id="Fill-16" points="136.043703 346.015718 128.803208 333.821179 136.043703 321.626945 150.524694 321.626945 157.764876 333.821179 150.524694 346.015718"></polygon>
                        <polygon id="Fill-16" points="161.956775 330.772735 154.716279 318.578195 161.956775 306.383962 176.437765 306.383962 183.677947 318.578195 176.437765 330.772735"></polygon>
                        <polygon id="Fill-16" points="213.020768 330.010585 205.780273 317.816046 213.020768 305.621812 227.501759 305.621812 234.741941 317.816046 227.501759 330.010585"></polygon>
                        <polygon id="Fill-16" points="187.107697 344.491419 179.867201 332.29688 187.107697 320.102646 201.588688 320.102646 208.828869 332.29688 201.588688 344.491419"></polygon>
                        <polygon id="Fill-16" points="213.020768 330.010585 205.780273 317.816046 213.020768 305.621812 227.501759 305.621812 234.741941 317.816046 227.501759 330.010585"></polygon>
                    </g>
                    <g id="HONEYCOMBS" transform="translate(270.000000, 529.337049) scale(1, -1) translate(-270.000000, -529.337049) translate(0.000000, 378.837049)">
                        <polygon id="Fill-16" points="264.846911 38.1074579 257.606415 25.9129188 264.846911 13.7186848 279.327902 13.7186848 286.568083 25.9129188 279.327902 38.1074579"></polygon>
                        <polygon id="Fill-16" points="392.887969 140.235445 385.647474 128.040906 392.887969 115.846672 407.36896 115.846672 414.609142 128.040906 407.36896 140.235445"></polygon>
                        <polygon id="Fill-16" points="366.974898 154.716279 359.734403 142.52174 366.974898 130.327506 381.455889 130.327506 388.696071 142.52174 381.455889 154.716279"></polygon>
                        <polygon id="Fill-16" points="366.974898 125.754611 359.734403 113.560072 366.974898 101.365838 381.455889 101.365838 388.696071 113.560072 381.455889 125.754611"></polygon>
                        <polygon id="Fill-16" points="341.061827 140.235445 333.821331 128.040906 341.061827 115.846672 355.542818 115.846672 362.782999 128.040906 355.542818 140.235445"></polygon>
                        <polygon id="Fill-16" points="341.823976 169.959262 334.58348 157.764723 341.823976 145.570489 356.304967 145.570489 363.545148 157.764723 356.304967 169.959262"></polygon>
                        <polygon id="Fill-16" points="392.887969 169.197113 385.647474 157.002574 392.887969 144.80834 407.36896 144.80834 414.609142 157.002574 407.36896 169.197113"></polygon>
                        <polygon id="Fill-16" points="366.974898 183.677947 359.734403 171.483408 366.974898 159.289174 381.455889 159.289174 388.696071 171.483408 381.455889 183.677947"></polygon>
                        <polygon id="Fill-16" points="392.887969 140.235445 385.647474 128.040906 392.887969 115.846672 407.36896 115.846672 414.609142 128.040906 407.36896 140.235445"></polygon>
                        <polygon id="Fill-16" points="366.974898 154.716279 359.734403 142.52174 366.974898 130.327506 381.455889 130.327506 388.696071 142.52174 381.455889 154.716279"></polygon>
                        <polygon id="Fill-16" points="366.974898 125.754611 359.734403 113.560072 366.974898 101.365838 381.455889 101.365838 388.696071 113.560072 381.455889 125.754611"></polygon>
                        <polygon id="Fill-16" points="341.061827 140.235445 333.821331 128.040906 341.061827 115.846672 355.542818 115.846672 362.782999 128.040906 355.542818 140.235445"></polygon>
                        <polygon id="Fill-16" points="341.823976 169.959262 334.58348 157.764723 341.823976 145.570489 356.304967 145.570489 363.545148 157.764723 356.304967 169.959262"></polygon>
                        <polygon id="Fill-16" points="392.887969 169.197113 385.647474 157.002574 392.887969 144.80834 407.36896 144.80834 414.609142 157.002574 407.36896 169.197113"></polygon>
                        <polygon id="Fill-16" points="366.974898 183.677947 359.734403 171.483408 366.974898 159.289174 381.455889 159.289174 388.696071 171.483408 381.455889 183.677947"></polygon>
                        <polygon id="Fill-16" points="366.974898 154.716279 359.734403 142.52174 366.974898 130.327506 381.455889 130.327506 388.696071 142.52174 381.455889 154.716279"></polygon>
                        <polygon id="Fill-16" points="443.951963 140.235445 436.711468 128.040906 443.951963 115.846672 458.432954 115.846672 465.673136 128.040906 458.432954 140.235445"></polygon>
                        <polygon id="Fill-16" points="418.801041 156.240577 411.560545 144.046038 418.801041 131.851804 433.282032 131.851804 440.522213 144.046038 433.282032 156.240577"></polygon>
                        <polygon id="Fill-16" points="418.801041 126.51676 411.560545 114.322221 418.801041 102.127987 433.282032 102.127987 440.522213 114.322221 433.282032 126.51676"></polygon>
                        <polygon id="Fill-16" points="418.801041 185.202245 411.560545 173.007706 418.801041 160.813472 433.282032 160.813472 440.522213 173.007706 433.282032 185.202245"></polygon>
                        <polygon id="Fill-16" points="444.714112 169.959262 437.473617 157.764723 444.714112 145.570489 459.195103 145.570489 466.435285 157.764723 459.195103 169.959262"></polygon>
                        <polygon id="Fill-16" points="495.778106 169.197113 488.53761 157.002574 495.778106 144.80834 510.259097 144.80834 517.499278 157.002574 510.259097 169.197113"></polygon>
                        <polygon id="Fill-16" points="469.102885 212.639615 461.86239 200.445076 469.102885 188.250842 483.583876 188.250842 490.824058 200.445076 483.583876 212.639615"></polygon>
                        <polygon id="Fill-16" points="517.880431 241.601283 510.639936 229.406744 517.880431 217.21251 532.361422 217.21251 539.601604 229.406744 532.361422 241.601283"></polygon>
                        <polygon id="Fill-16" points="494.253807 285.043785 487.013312 272.849246 494.253807 260.655012 508.734798 260.655012 515.97498 272.849246 508.734798 285.043785"></polygon>
                        <polygon id="Fill-16" points="492.729509 255.319968 485.489014 243.125429 492.729509 230.931195 507.2105 230.931195 514.450682 243.125429 507.2105 255.319968"></polygon>
                        <polygon id="Fill-16" points="469.865034 270.562951 462.624539 258.368412 469.865034 246.174178 484.346025 246.174178 491.586207 258.368412 484.346025 270.562951"></polygon>
                        <polygon id="Fill-16" points="469.865034 183.677947 462.624539 171.483408 469.865034 159.289174 484.346025 159.289174 491.586207 171.483408 484.346025 183.677947"></polygon>
                        <polygon id="Fill-16" points="418.801041 67.0691259 411.560545 54.8745868 418.801041 42.6803528 433.282032 42.6803528 440.522213 54.8745868 433.282032 67.0691259"></polygon>
                        <polygon id="Fill-16" points="367.737047 96.7929431 360.496552 84.5984039 367.737047 72.40417 382.218038 72.40417 389.45822 84.5984039 382.218038 96.7929431"></polygon>
                        <polygon id="Fill-16" points="418.801041 96.0307939 411.560545 83.8362548 418.801041 71.6420209 433.282032 71.6420209 440.522213 83.8362548 433.282032 96.0307939"></polygon>
                        <polygon id="Fill-16" points="392.887969 110.511628 385.647474 98.3170888 392.887969 86.1228549 407.36896 86.1228549 414.609142 98.3170888 407.36896 110.511628"></polygon>
                        <polygon id="Fill-16" points="418.801041 67.0691259 411.560545 54.8745868 418.801041 42.6803528 433.282032 42.6803528 440.522213 54.8745868 433.282032 67.0691259"></polygon>
                        <polygon id="Fill-16" points="418.801041 96.0307939 411.560545 83.8362548 418.801041 71.6420209 433.282032 71.6420209 440.522213 83.8362548 433.282032 96.0307939"></polygon>
                        <polygon id="Fill-16" points="392.887969 110.511628 385.647474 98.3170888 392.887969 86.1228549 407.36896 86.1228549 414.609142 98.3170888 407.36896 110.511628"></polygon>
                        <polygon id="Fill-16" points="444.714112 53.3504411 437.473617 41.1559019 444.714112 28.961668 459.195103 28.961668 466.435285 41.1559019 459.195103 53.3504411"></polygon>
                        <polygon id="Fill-16" points="444.714112 112.035926 437.473617 99.8413871 444.714112 87.6471532 459.195103 87.6471532 466.435285 99.8413871 459.195103 112.035926"></polygon>
                        <polygon id="Fill-16" points="238.933839 81.5499599 231.693344 69.3554208 238.933839 57.1611868 253.41483 57.1611868 260.655012 69.3554208 253.41483 81.5499599"></polygon>
                        <polygon id="Fill-16" points="213.782917 96.7929431 206.542422 84.5984039 213.782917 72.40417 228.263908 72.40417 235.50409 84.5984039 228.263908 96.7929431"></polygon>
                        <polygon id="Fill-16" points="264.846911 96.0307939 257.606415 83.8362548 264.846911 71.6420209 279.327902 71.6420209 286.568083 83.8362548 279.327902 96.0307939"></polygon>
                        <polygon id="Fill-16" points="238.933839 110.511628 231.693344 98.3170888 238.933839 86.1228549 253.41483 86.1228549 260.655012 98.3170888 253.41483 110.511628"></polygon>
                        <polygon id="Fill-16" points="238.933839 81.5499599 231.693344 69.3554208 238.933839 57.1611868 253.41483 57.1611868 260.655012 69.3554208 253.41483 81.5499599"></polygon>
                        <polygon id="Fill-16" points="213.782917 96.7929431 206.542422 84.5984039 213.782917 72.40417 228.263908 72.40417 235.50409 84.5984039 228.263908 96.7929431"></polygon>
                        <polygon id="Fill-16" points="264.846911 96.0307939 257.606415 83.8362548 264.846911 71.6420209 279.327902 71.6420209 286.568083 83.8362548 279.327902 96.0307939"></polygon>
                        <polygon id="Fill-16" points="238.933839 110.511628 231.693344 98.3170888 238.933839 86.1228549 253.41483 86.1228549 260.655012 98.3170888 253.41483 110.511628"></polygon>
                        <polygon id="Fill-16" points="238.933839 81.5499599 231.693344 69.3554208 238.933839 57.1611868 253.41483 57.1611868 260.655012 69.3554208 253.41483 81.5499599"></polygon>
                        <polygon id="Fill-16" points="341.823976 81.5499599 334.58348 69.3554208 341.823976 57.1611868 356.304967 57.1611868 363.545148 69.3554208 356.304967 81.5499599"></polygon>
                        <polygon id="Fill-16" points="290.759982 83.0742582 283.519487 70.8797191 290.759982 58.6854852 305.240973 58.6854852 312.481155 70.8797191 305.240973 83.0742582"></polygon>
                        <polygon id="Fill-16" points="290.759982 53.3504411 283.519487 41.1559019 290.759982 28.961668 305.240973 28.961668 312.481155 41.1559019 305.240973 53.3504411"></polygon>
                        <polygon id="Fill-16" points="290.759982 112.035926 283.519487 99.8413871 290.759982 87.6471532 305.240973 87.6471532 312.481155 99.8413871 305.240973 112.035926"></polygon>
                        <polygon id="Fill-16" points="316.673054 96.7929431 309.432558 84.5984039 316.673054 72.40417 331.154045 72.40417 338.394226 84.5984039 331.154045 96.7929431"></polygon>
                        <polygon id="Fill-16" points="264.846911 124.992462 257.606415 112.797923 264.846911 100.603689 279.327902 100.603689 286.568083 112.797923 279.327902 124.992462"></polygon>
                        <polygon id="Fill-16" points="238.933839 139.473296 231.693344 127.278757 238.933839 115.084523 253.41483 115.084523 260.655012 127.278757 253.41483 139.473296"></polygon>
                        <polygon id="Fill-16" points="238.933839 110.511628 231.693344 98.3170888 238.933839 86.1228549 253.41483 86.1228549 260.655012 98.3170888 253.41483 110.511628"></polygon>
                        <polygon id="Fill-16" points="213.020768 124.992462 205.780273 112.797923 213.020768 100.603689 227.501759 100.603689 234.741941 112.797923 227.501759 124.992462"></polygon>
                        <polygon id="Fill-16" points="213.782917 154.716279 206.542422 142.52174 213.782917 130.327506 228.263908 130.327506 235.50409 142.52174 228.263908 154.716279"></polygon>
                        <polygon id="Fill-16" points="264.846911 153.95413 257.606415 141.759591 264.846911 129.565357 279.327902 129.565357 286.568083 141.759591 279.327902 153.95413"></polygon>
                        <polygon id="Fill-16" points="238.933839 168.434964 231.693344 156.240425 238.933839 144.046191 253.41483 144.046191 260.655012 156.240425 253.41483 168.434964"></polygon>
                        <polygon id="Fill-16" points="264.846911 124.992462 257.606415 112.797923 264.846911 100.603689 279.327902 100.603689 286.568083 112.797923 279.327902 124.992462"></polygon>
                        <polygon id="Fill-16" points="238.933839 139.473296 231.693344 127.278757 238.933839 115.084523 253.41483 115.084523 260.655012 127.278757 253.41483 139.473296"></polygon>
                        <polygon id="Fill-16" points="238.933839 110.511628 231.693344 98.3170888 238.933839 86.1228549 253.41483 86.1228549 260.655012 98.3170888 253.41483 110.511628"></polygon>
                        <polygon id="Fill-16" points="213.020768 124.992462 205.780273 112.797923 213.020768 100.603689 227.501759 100.603689 234.741941 112.797923 227.501759 124.992462"></polygon>
                        <polygon id="Fill-16" points="213.782917 154.716279 206.542422 142.52174 213.782917 130.327506 228.263908 130.327506 235.50409 142.52174 228.263908 154.716279"></polygon>
                        <polygon id="Fill-16" points="264.846911 153.95413 257.606415 141.759591 264.846911 129.565357 279.327902 129.565357 286.568083 141.759591 279.327902 153.95413"></polygon>
                        <polygon id="Fill-16" points="238.933839 168.434964 231.693344 156.240425 238.933839 144.046191 253.41483 144.046191 260.655012 156.240425 253.41483 168.434964"></polygon>
                        <polygon id="Fill-16" points="238.933839 139.473296 231.693344 127.278757 238.933839 115.084523 253.41483 115.084523 260.655012 127.278757 253.41483 139.473296"></polygon>
                        <polygon id="Fill-16" points="315.910904 124.992462 308.670409 112.797923 315.910904 100.603689 330.391895 100.603689 337.632077 112.797923 330.391895 124.992462"></polygon>
                        <polygon id="Fill-16" points="290.759982 140.997594 283.519487 128.803055 290.759982 116.608821 305.240973 116.608821 312.481155 128.803055 305.240973 140.997594"></polygon>
                        <polygon id="Fill-16" points="290.759982 169.959262 283.519487 157.764723 290.759982 145.570489 305.240973 145.570489 312.481155 157.764723 305.240973 169.959262"></polygon>
                        <polygon id="Fill-16" points="316.673054 154.716279 309.432558 142.52174 316.673054 130.327506 331.154045 130.327506 338.394226 142.52174 331.154045 154.716279"></polygon>
                        <polygon id="Fill-16" points="341.823976 110.511628 334.58348 98.3170888 341.823976 86.1228549 356.304967 86.1228549 363.545148 98.3170888 356.304967 110.511628"></polygon>
                        <polygon id="Fill-16" points="58.3044891 125.754611 51.0639936 113.560072 58.3044891 101.365838 72.78548 101.365838 80.0256616 113.560072 72.78548 125.754611"></polygon>
                        <polygon id="Fill-16" points="33.1535668 140.997594 25.9130714 128.803055 33.1535668 116.608821 47.6345578 116.608821 54.8747394 128.803055 47.6345578 140.997594"></polygon>
                        <polygon id="Fill-16" points="84.2175604 140.235445 76.977065 128.040906 84.2175604 115.846672 98.6985514 115.846672 105.938733 128.040906 98.6985514 140.235445"></polygon>
                        <polygon id="Fill-16" points="58.3044891 125.754611 51.0639936 113.560072 58.3044891 101.365838 72.78548 101.365838 80.0256616 113.560072 72.78548 125.754611"></polygon>
                        <polygon id="Fill-16" points="33.1535668 140.997594 25.9130714 128.803055 33.1535668 116.608821 47.6345578 116.608821 54.8747394 128.803055 47.6345578 140.997594"></polygon>
                        <polygon id="Fill-16" points="84.2175604 140.235445 76.977065 128.040906 84.2175604 115.846672 98.6985514 115.846672 105.938733 128.040906 98.6985514 140.235445"></polygon>
                        <polygon id="Fill-16" points="187.107697 111.273777 179.867201 99.0792379 187.107697 86.885004 201.588688 86.885004 208.828869 99.0792379 201.588688 111.273777"></polygon>
                        <polygon id="Fill-16" points="58.3044891 125.754611 51.0639936 113.560072 58.3044891 101.365838 72.78548 101.365838 80.0256616 113.560072 72.78548 125.754611"></polygon>
                        <polygon id="Fill-16" points="161.194625 96.7929431 153.95413 84.5984039 161.194625 72.40417 175.675616 72.40417 182.915798 84.5984039 175.675616 96.7929431"></polygon>
                        <polygon id="Fill-16" points="161.194625 125.754611 153.95413 113.560072 161.194625 101.365838 175.675616 101.365838 182.915798 113.560072 175.675616 125.754611"></polygon>
                        <polygon id="Fill-16" points="110.130632 127.278909 102.890136 115.08437 110.130632 102.890136 124.611623 102.890136 131.851804 115.08437 124.611623 127.278909"></polygon>
                        <polygon id="Fill-16" points="110.130632 156.240577 102.890136 144.046038 110.130632 131.851804 124.611623 131.851804 131.851804 144.046038 124.611623 156.240577"></polygon>
                        <polygon id="Fill-16" points="136.043703 140.997594 128.803208 128.803055 136.043703 116.608821 150.524694 116.608821 157.764876 128.803055 150.524694 140.997594"></polygon>
                        <polygon id="Fill-16" points="187.107697 140.235445 179.867201 128.040906 187.107697 115.846672 201.588688 115.846672 208.828869 128.040906 201.588688 140.235445"></polygon>
                        <polygon id="Fill-16" points="161.194625 154.716279 153.95413 142.52174 161.194625 130.327506 175.675616 130.327506 182.915798 142.52174 175.675616 154.716279"></polygon>
                        <polygon id="Fill-16" points="161.956775 67.8312751 154.716279 55.6367359 161.956775 43.442502 176.437765 43.442502 183.677947 55.6367359 176.437765 67.8312751"></polygon>
                        <polygon id="Fill-16" points="187.107697 81.5499599 179.867201 69.3554208 187.107697 57.1611868 201.588688 57.1611868 208.828869 69.3554208 201.588688 81.5499599"></polygon>
                        <polygon id="Fill-16" points="7.24049547 156.240577 0 144.046038 7.24049547 131.851804 21.7214864 131.851804 28.961668 144.046038 21.7214864 156.240577"></polygon>
                        <polygon id="Fill-16" points="32.3914177 111.273777 25.1509222 99.0792379 32.3914177 86.885004 46.8724086 86.885004 54.1125902 99.0792379 46.8724086 111.273777"></polygon>
                        <polygon id="Fill-16" points="58.3044891 97.5550922 51.0639936 85.3605531 58.3044891 73.1663192 72.78548 73.1663192 80.0256616 85.3605531 72.78548 97.5550922"></polygon>
                        <polygon id="Fill-16" points="137.568001 52.5882919 130.327506 40.3937528 137.568001 28.1995188 152.048992 28.1995188 159.289174 40.3937528 152.048992 52.5882919"></polygon>
                        <polygon id="Fill-16" points="137.568001 24.3887731 130.327506 12.1942339 137.568001 0 152.048992 0 159.289174 12.1942339 152.048992 24.3887731"></polygon>
                        <polygon id="Fill-16" points="84.2175604 256.844266 76.977065 244.649727 84.2175604 232.455493 98.6985514 232.455493 105.938733 244.649727 98.6985514 256.844266"></polygon>
                        <polygon id="Fill-16" points="58.3044891 242.363432 51.0639936 230.168893 58.3044891 217.974659 72.78548 217.974659 80.0256616 230.168893 72.78548 242.363432"></polygon>
                        <polygon id="Fill-16" points="84.2175604 256.844266 76.977065 244.649727 84.2175604 232.455493 98.6985514 232.455493 105.938733 244.649727 98.6985514 256.844266"></polygon>
                        <polygon id="Fill-16" points="58.3044891 242.363432 51.0639936 230.168893 58.3044891 217.974659 72.78548 217.974659 80.0256616 230.168893 72.78548 242.363432"></polygon>
                        <polygon id="Fill-16" points="187.107697 256.844266 179.867201 244.649727 187.107697 232.455493 201.588688 232.455493 208.828869 244.649727 201.588688 256.844266"></polygon>
                        <polygon id="Fill-16" points="161.194625 242.363432 153.95413 230.168893 161.194625 217.974659 175.675616 217.974659 182.915798 230.168893 175.675616 242.363432"></polygon>
                        <polygon id="Fill-16" points="135.281554 256.844266 128.041059 244.649727 135.281554 232.455493 149.762545 232.455493 157.002727 244.649727 149.762545 256.844266"></polygon>
                        <polygon id="Fill-16" points="161.194625 271.3251 153.95413 259.130561 161.194625 246.936327 175.675616 246.936327 182.915798 259.130561 175.675616 271.3251"></polygon>
                        <polygon id="Fill-16" points="110.130632 272.849399 102.890136 260.654859 110.130632 248.460626 124.611623 248.460626 131.851804 260.654859 124.611623 272.849399"></polygon>
                        <polygon id="Fill-16" points="110.130632 243.125581 102.890136 230.931042 110.130632 218.736808 124.611623 218.736808 131.851804 230.931042 124.611623 243.125581"></polygon>
                        <polygon id="Fill-16" points="136.043703 286.568083 128.803208 274.373544 136.043703 262.17931 150.524694 262.17931 157.764876 274.373544 150.524694 286.568083"></polygon>
                        <polygon id="Fill-16" points="187.107697 285.805934 179.867201 273.611395 187.107697 261.417161 201.588688 261.417161 208.828869 273.611395 201.588688 285.805934"></polygon>
                        <polygon id="Fill-16" points="161.194625 300.286768 153.95413 288.092229 161.194625 275.897995 175.675616 275.897995 182.915798 288.092229 175.675616 300.286768"></polygon>
                        <polygon id="Fill-16" points="110.130632 183.677947 102.890136 171.483408 110.130632 159.289174 124.611623 159.289174 131.851804 171.483408 124.611623 183.677947"></polygon>
                        <polygon id="Fill-16" points="84.2175604 169.197113 76.977065 157.002574 84.2175604 144.80834 98.6985514 144.80834 105.938733 157.002574 98.6985514 169.197113"></polygon>
                        <polygon id="Fill-16" points="110.130632 212.639615 102.890136 200.445076 110.130632 188.250842 124.611623 188.250842 131.851804 200.445076 124.611623 212.639615"></polygon>
                        <polygon id="Fill-16" points="110.130632 183.677947 102.890136 171.483408 110.130632 159.289174 124.611623 159.289174 131.851804 171.483408 124.611623 183.677947"></polygon>
                        <polygon id="Fill-16" points="84.2175604 169.197113 76.977065 157.002574 84.2175604 144.80834 98.6985514 144.80834 105.938733 157.002574 98.6985514 169.197113"></polygon>
                        <polygon id="Fill-16" points="110.130632 212.639615 102.890136 200.445076 110.130632 188.250842 124.611623 188.250842 131.851804 200.445076 124.611623 212.639615"></polygon>
                        <polygon id="Fill-16" points="213.020768 183.677947 205.780273 171.483408 213.020768 159.289174 227.501759 159.289174 234.741941 171.483408 227.501759 183.677947"></polygon>
                        <polygon id="Fill-16" points="187.107697 169.197113 179.867201 157.002574 187.107697 144.80834 201.588688 144.80834 208.828869 157.002574 201.588688 169.197113"></polygon>
                        <polygon id="Fill-16" points="161.194625 183.677947 153.95413 171.483408 161.194625 159.289174 175.675616 159.289174 182.915798 171.483408 175.675616 183.677947"></polygon>
                        <polygon id="Fill-16" points="187.107697 198.158781 179.867201 185.964242 187.107697 173.770008 201.588688 173.770008 208.828869 185.964242 201.588688 198.158781"></polygon>
                        <polygon id="Fill-16" points="136.043703 199.683079 128.803208 187.48854 136.043703 175.294306 150.524694 175.294306 157.764876 187.48854 150.524694 199.683079"></polygon>
                        <polygon id="Fill-16" points="136.043703 169.959262 128.803208 157.764723 136.043703 145.570489 150.524694 145.570489 157.764876 157.764723 150.524694 169.959262"></polygon>
                        <polygon id="Fill-16" points="136.043703 228.644747 128.803208 216.450208 136.043703 204.255974 150.524694 204.255974 157.764876 216.450208 150.524694 228.644747"></polygon>
                        <polygon id="Fill-16" points="161.956775 213.401764 154.716279 201.207225 161.956775 189.012991 176.437765 189.012991 183.677947 201.207225 176.437765 213.401764"></polygon>
                        <polygon id="Fill-16" points="213.020768 212.639615 205.780273 200.445076 213.020768 188.250842 227.501759 188.250842 234.741941 200.445076 227.501759 212.639615"></polygon>
                        <polygon id="Fill-16" points="187.107697 227.120449 179.867201 214.92591 187.107697 202.731676 201.588688 202.731676 208.828869 214.92591 201.588688 227.120449"></polygon>
                        <polygon id="Fill-16" points="213.020768 212.639615 205.780273 200.445076 213.020768 188.250842 227.501759 188.250842 234.741941 200.445076 227.501759 212.639615"></polygon>
                    </g>
                </g>
            </g>
        </g>
    </g>
</svg>