<?xml version="1.0" encoding="UTF-8"?>
<svg width="540px" height="696px" viewBox="0 0 540 696" version="1.1" xmlns="http://www.w3.org/2000/svg" xmlns:xlink="http://www.w3.org/1999/xlink">
    <!-- Generator: Sketch 58 (84663) - https://sketch.com -->
    <title>HONEYCOMB_PATTERN</title>
    <desc>Created with Sketch.</desc>
    <g id="PAGES---DESKTOP-+-MOBILE" stroke="none" stroke-width="1" fill="none" fill-rule="evenodd" opacity="0.7">
        <g id="Desktop-HD" transform="translate(-824.000000, -2301.000000)" fill="#DCB06F">
            <g id="SECTION_4" transform="translate(279.000000, 2301.000000)">
                <g id="HONEYCOMB_PATTERN" transform="translate(543.854499, 0.000000)">
                    <g id="HONEYCOMBS" transform="translate(268.922326, 485.080032) scale(1, -1) translate(-268.922326, -485.080032) translate(23.422326, 275.080032)">
                        <polygon id="Fill-16" points="366.974898 112.035926 359.734403 99.8413871 366.974898 87.6471532 381.455889 87.6471532 388.696071 99.8413871 381.455889 112.035926"></polygon>
                        <polygon id="Fill-16" points="341.061827 126.51676 333.821331 114.322221 341.061827 102.127987 355.542818 102.127987 362.782999 114.322221 355.542818 126.51676"></polygon>
                        <polygon id="Fill-16" points="315.910904 141.759743 308.670409 129.565204 315.910904 117.37097 330.391895 117.37097 337.632077 129.565204 330.391895 141.759743"></polygon>
                        <polygon id="Fill-16" points="366.974898 140.997594 359.734403 128.803055 366.974898 116.608821 381.455889 116.608821 388.696071 128.803055 381.455889 140.997594"></polygon>
                        <polygon id="Fill-16" points="341.061827 155.478428 333.821331 143.283889 341.061827 131.089655 355.542818 131.089655 362.782999 143.283889 355.542818 155.478428"></polygon>
                        <polygon id="Fill-16" points="366.974898 112.035926 359.734403 99.8413871 366.974898 87.6471532 381.455889 87.6471532 388.696071 99.8413871 381.455889 112.035926"></polygon>
                        <polygon id="Fill-16" points="341.061827 126.51676 333.821331 114.322221 341.061827 102.127987 355.542818 102.127987 362.782999 114.322221 355.542818 126.51676"></polygon>
                        <polygon id="Fill-16" points="315.910904 141.759743 308.670409 129.565204 315.910904 117.37097 330.391895 117.37097 337.632077 129.565204 330.391895 141.759743"></polygon>
                        <polygon id="Fill-16" points="366.974898 140.997594 359.734403 128.803055 366.974898 116.608821 381.455889 116.608821 388.696071 128.803055 381.455889 140.997594"></polygon>
                        <polygon id="Fill-16" points="341.061827 155.478428 333.821331 143.283889 341.061827 131.089655 355.542818 131.089655 362.782999 143.283889 355.542818 155.478428"></polygon>
                        <polygon id="Fill-16" points="341.061827 126.51676 333.821331 114.322221 341.061827 102.127987 355.542818 102.127987 362.782999 114.322221 355.542818 126.51676"></polygon>
                        <polygon id="Fill-16" points="392.887969 128.041059 385.647474 115.846519 392.887969 103.652285 407.36896 103.652285 414.609142 115.846519 407.36896 128.041059"></polygon>
                        <polygon id="Fill-16" points="392.887969 98.3172414 385.647474 86.1227022 392.887969 73.9284683 407.36896 73.9284683 414.609142 86.1227022 407.36896 98.3172414"></polygon>
                        <polygon id="Fill-16" points="392.887969 157.002727 385.647474 144.808187 392.887969 132.613953 407.36896 132.613953 414.609142 144.808187 407.36896 157.002727"></polygon>
                        <polygon id="Fill-16" points="366.974898 53.3504411 359.734403 41.1559019 366.974898 28.961668 381.455889 28.961668 388.696071 41.1559019 381.455889 53.3504411"></polygon>
                        <polygon id="Fill-16" points="366.974898 24.3887731 359.734403 12.1942339 366.974898 0 381.455889 0 388.696071 12.1942339 381.455889 24.3887731"></polygon>
                        <polygon id="Fill-16" points="341.061827 38.8696071 333.821331 26.6750679 341.061827 14.480834 355.542818 14.480834 362.782999 26.6750679 355.542818 38.8696071"></polygon>
                        <polygon id="Fill-16" points="392.887969 67.8312751 385.647474 55.6367359 392.887969 43.442502 407.36896 43.442502 414.609142 55.6367359 407.36896 67.8312751"></polygon>
                        <polygon id="Fill-16" points="366.974898 82.3121091 359.734403 70.1175699 366.974898 57.923336 381.455889 57.923336 388.696071 70.1175699 381.455889 82.3121091"></polygon>
                        <polygon id="Fill-16" points="366.974898 53.3504411 359.734403 41.1559019 366.974898 28.961668 381.455889 28.961668 388.696071 41.1559019 381.455889 53.3504411"></polygon>
                        <polygon id="Fill-16" points="366.974898 24.3887731 359.734403 12.1942339 366.974898 0 381.455889 0 388.696071 12.1942339 381.455889 24.3887731"></polygon>
                        <polygon id="Fill-16" points="341.061827 38.8696071 333.821331 26.6750679 341.061827 14.480834 355.542818 14.480834 362.782999 26.6750679 355.542818 38.8696071"></polygon>
                        <polygon id="Fill-16" points="392.887969 67.8312751 385.647474 55.6367359 392.887969 43.442502 407.36896 43.442502 414.609142 55.6367359 407.36896 67.8312751"></polygon>
                        <polygon id="Fill-16" points="366.974898 82.3121091 359.734403 70.1175699 366.974898 57.923336 381.455889 57.923336 388.696071 70.1175699 381.455889 82.3121091"></polygon>
                        <polygon id="Fill-16" points="366.974898 53.3504411 359.734403 41.1559019 366.974898 28.961668 381.455889 28.961668 388.696071 41.1559019 381.455889 53.3504411"></polygon>
                        <polygon id="Fill-16" points="443.951963 69.3555734 436.711468 57.1610342 443.951963 44.9668003 458.432954 44.9668003 465.673136 57.1610342 458.432954 69.3555734"></polygon>
                        <polygon id="Fill-16" points="418.801041 54.8747394 411.560545 42.6802002 418.801041 30.4859663 433.282032 30.4859663 440.522213 42.6802002 433.282032 54.8747394"></polygon>
                        <polygon id="Fill-16" points="315.910904 24.3887731 308.670409 12.1942339 315.910904 0 330.391895 0 337.632077 12.1942339 330.391895 24.3887731"></polygon>
                        <polygon id="Fill-16" points="238.933839 155.478428 231.693344 143.283889 238.933839 131.089655 253.41483 131.089655 260.655012 143.283889 253.41483 155.478428"></polygon>
                        <polygon id="Fill-16" points="366.974898 257.606415 359.734403 245.411876 366.974898 233.217642 381.455889 233.217642 388.696071 245.411876 381.455889 257.606415"></polygon>
                        <polygon id="Fill-16" points="341.061827 272.087249 333.821331 259.89271 341.061827 247.698476 355.542818 247.698476 362.782999 259.89271 355.542818 272.087249"></polygon>
                        <polygon id="Fill-16" points="341.061827 243.125581 333.821331 230.931042 341.061827 218.736808 355.542818 218.736808 362.782999 230.931042 355.542818 243.125581"></polygon>
                        <polygon id="Fill-16" points="315.148755 257.606415 307.90826 245.411876 315.148755 233.217642 329.629746 233.217642 336.869928 245.411876 329.629746 257.606415"></polygon>
                        <polygon id="Fill-16" points="315.910904 287.330233 308.670409 275.135693 315.910904 262.94146 330.391895 262.94146 337.632077 275.135693 330.391895 287.330233"></polygon>
                        <polygon id="Fill-16" points="366.974898 286.568083 359.734403 274.373544 366.974898 262.17931 381.455889 262.17931 388.696071 274.373544 381.455889 286.568083"></polygon>
                        <polygon id="Fill-16" points="341.061827 301.048917 333.821331 288.854378 341.061827 276.660144 355.542818 276.660144 362.782999 288.854378 355.542818 301.048917"></polygon>
                        <polygon id="Fill-16" points="366.974898 257.606415 359.734403 245.411876 366.974898 233.217642 381.455889 233.217642 388.696071 245.411876 381.455889 257.606415"></polygon>
                        <polygon id="Fill-16" points="341.061827 272.087249 333.821331 259.89271 341.061827 247.698476 355.542818 247.698476 362.782999 259.89271 355.542818 272.087249"></polygon>
                        <polygon id="Fill-16" points="341.061827 243.125581 333.821331 230.931042 341.061827 218.736808 355.542818 218.736808 362.782999 230.931042 355.542818 243.125581"></polygon>
                        <polygon id="Fill-16" points="315.148755 257.606415 307.90826 245.411876 315.148755 233.217642 329.629746 233.217642 336.869928 245.411876 329.629746 257.606415"></polygon>
                        <polygon id="Fill-16" points="315.910904 287.330233 308.670409 275.135693 315.910904 262.94146 330.391895 262.94146 337.632077 275.135693 330.391895 287.330233"></polygon>
                        <polygon id="Fill-16" points="366.974898 286.568083 359.734403 274.373544 366.974898 262.17931 381.455889 262.17931 388.696071 274.373544 381.455889 286.568083"></polygon>
                        <polygon id="Fill-16" points="341.061827 301.048917 333.821331 288.854378 341.061827 276.660144 355.542818 276.660144 362.782999 288.854378 355.542818 301.048917"></polygon>
                        <polygon id="Fill-16" points="341.061827 272.087249 333.821331 259.89271 341.061827 247.698476 355.542818 247.698476 362.782999 259.89271 355.542818 272.087249"></polygon>
                        <polygon id="Fill-16" points="418.038892 257.606415 410.798396 245.411876 418.038892 233.217642 432.519883 233.217642 439.760064 245.411876 432.519883 257.606415"></polygon>
                        <polygon id="Fill-16" points="392.887969 273.611548 385.647474 261.417009 392.887969 249.222775 407.36896 249.222775 414.609142 261.417009 407.36896 273.611548"></polygon>
                        <polygon id="Fill-16" points="392.887969 243.887731 385.647474 231.693191 392.887969 219.498957 407.36896 219.498957 414.609142 231.693191 407.36896 243.887731"></polygon>
                        <polygon id="Fill-16" points="392.887969 302.573216 385.647474 290.378677 392.887969 278.184443 407.36896 278.184443 414.609142 290.378677 407.36896 302.573216"></polygon>
                        <polygon id="Fill-16" points="418.801041 287.330233 411.560545 275.135693 418.801041 262.94146 433.282032 262.94146 440.522213 275.135693 433.282032 287.330233"></polygon>
                        <polygon id="Fill-16" points="469.102885 343.72927 461.86239 331.534731 469.102885 319.340497 483.583876 319.340497 490.824058 331.534731 483.583876 343.72927"></polygon>
                        <polygon id="Fill-16" points="443.951963 301.048917 436.711468 288.854378 443.951963 276.660144 458.432954 276.660144 465.673136 288.854378 458.432954 301.048917"></polygon>
                        <polygon id="Fill-16" points="443.951963 330.010585 436.711468 317.816046 443.951963 305.621812 458.432954 305.621812 465.673136 317.816046 458.432954 330.010585"></polygon>
                        <polygon id="Fill-16" points="418.038892 344.491419 410.798396 332.29688 418.038892 320.102646 432.519883 320.102646 439.760064 332.29688 432.519883 344.491419"></polygon>
                        <polygon id="Fill-16" points="418.801041 374.215237 411.560545 362.020697 418.801041 349.826464 433.282032 349.826464 440.522213 362.020697 433.282032 374.215237"></polygon>
                        <polygon id="Fill-16" points="392.887969 184.440096 385.647474 172.245557 392.887969 160.051323 407.36896 160.051323 414.609142 172.245557 407.36896 184.440096"></polygon>
                        <polygon id="Fill-16" points="366.974898 198.92093 359.734403 186.726391 366.974898 174.532157 381.455889 174.532157 388.696071 186.726391 381.455889 198.92093"></polygon>
                        <polygon id="Fill-16" points="366.974898 169.959262 359.734403 157.764723 366.974898 145.570489 381.455889 145.570489 388.696071 157.764723 381.455889 169.959262"></polygon>
                        <polygon id="Fill-16" points="341.061827 184.440096 333.821331 172.245557 341.061827 160.051323 355.542818 160.051323 362.782999 172.245557 355.542818 184.440096"></polygon>
                        <polygon id="Fill-16" points="341.823976 214.163913 334.58348 201.969374 341.823976 189.77514 356.304967 189.77514 363.545148 201.969374 356.304967 214.163913"></polygon>
                        <polygon id="Fill-16" points="392.887969 213.401764 385.647474 201.207225 392.887969 189.012991 407.36896 189.012991 414.609142 201.207225 407.36896 213.401764"></polygon>
                        <polygon id="Fill-16" points="366.974898 227.882598 359.734403 215.688059 366.974898 203.493825 381.455889 203.493825 388.696071 215.688059 381.455889 227.882598"></polygon>
                        <polygon id="Fill-16" points="392.887969 184.440096 385.647474 172.245557 392.887969 160.051323 407.36896 160.051323 414.609142 172.245557 407.36896 184.440096"></polygon>
                        <polygon id="Fill-16" points="366.974898 198.92093 359.734403 186.726391 366.974898 174.532157 381.455889 174.532157 388.696071 186.726391 381.455889 198.92093"></polygon>
                        <polygon id="Fill-16" points="366.974898 169.959262 359.734403 157.764723 366.974898 145.570489 381.455889 145.570489 388.696071 157.764723 381.455889 169.959262"></polygon>
                        <polygon id="Fill-16" points="341.061827 184.440096 333.821331 172.245557 341.061827 160.051323 355.542818 160.051323 362.782999 172.245557 355.542818 184.440096"></polygon>
                        <polygon id="Fill-16" points="341.823976 214.163913 334.58348 201.969374 341.823976 189.77514 356.304967 189.77514 363.545148 201.969374 356.304967 214.163913"></polygon>
                        <polygon id="Fill-16" points="392.887969 213.401764 385.647474 201.207225 392.887969 189.012991 407.36896 189.012991 414.609142 201.207225 407.36896 213.401764"></polygon>
                        <polygon id="Fill-16" points="366.974898 227.882598 359.734403 215.688059 366.974898 203.493825 381.455889 203.493825 388.696071 215.688059 381.455889 227.882598"></polygon>
                        <polygon id="Fill-16" points="366.974898 198.92093 359.734403 186.726391 366.974898 174.532157 381.455889 174.532157 388.696071 186.726391 381.455889 198.92093"></polygon>
                        <polygon id="Fill-16" points="443.951963 184.440096 436.711468 172.245557 443.951963 160.051323 458.432954 160.051323 465.673136 172.245557 458.432954 184.440096"></polygon>
                        <polygon id="Fill-16" points="469.102885 169.959262 461.86239 157.764723 469.102885 145.570489 483.583876 145.570489 490.824058 157.764723 483.583876 169.959262"></polygon>
                        <polygon id="Fill-16" points="418.801041 170.721411 411.560545 158.526872 418.801041 146.332638 433.282032 146.332638 440.522213 158.526872 433.282032 170.721411"></polygon>
                        <polygon id="Fill-16" points="418.801041 229.406897 411.560545 217.212357 418.801041 205.018123 433.282032 205.018123 440.522213 217.212357 433.282032 229.406897"></polygon>
                        <polygon id="Fill-16" points="238.933839 184.440096 231.693344 172.245557 238.933839 160.051323 253.41483 160.051323 260.655012 172.245557 253.41483 184.440096"></polygon>
                        <polygon id="Fill-16" points="213.020768 198.92093 205.780273 186.726391 213.020768 174.532157 227.501759 174.532157 234.741941 186.726391 227.501759 198.92093"></polygon>
                        <polygon id="Fill-16" points="187.869846 214.163913 180.62935 201.969374 187.869846 189.77514 202.350837 189.77514 209.591018 201.969374 202.350837 214.163913"></polygon>
                        <polygon id="Fill-16" points="238.933839 213.401764 231.693344 201.207225 238.933839 189.012991 253.41483 189.012991 260.655012 201.207225 253.41483 213.401764"></polygon>
                        <polygon id="Fill-16" points="213.020768 227.882598 205.780273 215.688059 213.020768 203.493825 227.501759 203.493825 234.741941 215.688059 227.501759 227.882598"></polygon>
                        <polygon id="Fill-16" points="238.933839 184.440096 231.693344 172.245557 238.933839 160.051323 253.41483 160.051323 260.655012 172.245557 253.41483 184.440096"></polygon>
                        <polygon id="Fill-16" points="213.020768 198.92093 205.780273 186.726391 213.020768 174.532157 227.501759 174.532157 234.741941 186.726391 227.501759 198.92093"></polygon>
                        <polygon id="Fill-16" points="187.869846 214.163913 180.62935 201.969374 187.869846 189.77514 202.350837 189.77514 209.591018 201.969374 202.350837 214.163913"></polygon>
                        <polygon id="Fill-16" points="238.933839 213.401764 231.693344 201.207225 238.933839 189.012991 253.41483 189.012991 260.655012 201.207225 253.41483 213.401764"></polygon>
                        <polygon id="Fill-16" points="213.020768 227.882598 205.780273 215.688059 213.020768 203.493825 227.501759 203.493825 234.741941 215.688059 227.501759 227.882598"></polygon>
                        <polygon id="Fill-16" points="213.020768 198.92093 205.780273 186.726391 213.020768 174.532157 227.501759 174.532157 234.741941 186.726391 227.501759 198.92093"></polygon>
                        <polygon id="Fill-16" points="315.910904 169.959262 308.670409 157.764723 315.910904 145.570489 330.391895 145.570489 337.632077 157.764723 330.391895 169.959262"></polygon>
                        <polygon id="Fill-16" points="289.997833 184.440096 282.757338 172.245557 289.997833 160.051323 304.478824 160.051323 311.719006 172.245557 304.478824 184.440096"></polygon>
                        <polygon id="Fill-16" points="315.910904 198.92093 308.670409 186.726391 315.910904 174.532157 330.391895 174.532157 337.632077 186.726391 330.391895 198.92093"></polygon>
                        <polygon id="Fill-16" points="264.846911 200.445229 257.606415 188.250689 264.846911 176.056455 279.327902 176.056455 286.568083 188.250689 279.327902 200.445229"></polygon>
                        <polygon id="Fill-16" points="264.846911 170.721411 257.606415 158.526872 264.846911 146.332638 279.327902 146.332638 286.568083 158.526872 279.327902 170.721411"></polygon>
                        <polygon id="Fill-16" points="264.846911 229.406897 257.606415 217.212357 264.846911 205.018123 279.327902 205.018123 286.568083 217.212357 279.327902 229.406897"></polygon>
                        <polygon id="Fill-16" points="290.759982 214.163913 283.519487 201.969374 290.759982 189.77514 305.240973 189.77514 312.481155 201.969374 305.240973 214.163913"></polygon>
                        <polygon id="Fill-16" points="238.933839 242.363432 231.693344 230.168893 238.933839 217.974659 253.41483 217.974659 260.655012 230.168893 253.41483 242.363432"></polygon>
                        <polygon id="Fill-16" points="213.020768 256.844266 205.780273 244.649727 213.020768 232.455493 227.501759 232.455493 234.741941 244.649727 227.501759 256.844266"></polygon>
                        <polygon id="Fill-16" points="213.020768 227.882598 205.780273 215.688059 213.020768 203.493825 227.501759 203.493825 234.741941 215.688059 227.501759 227.882598"></polygon>
                        <polygon id="Fill-16" points="187.107697 242.363432 179.867201 230.168893 187.107697 217.974659 201.588688 217.974659 208.828869 230.168893 201.588688 242.363432"></polygon>
                        <polygon id="Fill-16" points="187.869846 272.087249 180.62935 259.89271 187.869846 247.698476 202.350837 247.698476 209.591018 259.89271 202.350837 272.087249"></polygon>
                        <polygon id="Fill-16" points="238.933839 271.3251 231.693344 259.130561 238.933839 246.936327 253.41483 246.936327 260.655012 259.130561 253.41483 271.3251"></polygon>
                        <polygon id="Fill-16" points="213.020768 285.805934 205.780273 273.611395 213.020768 261.417161 227.501759 261.417161 234.741941 273.611395 227.501759 285.805934"></polygon>
                        <polygon id="Fill-16" points="238.933839 242.363432 231.693344 230.168893 238.933839 217.974659 253.41483 217.974659 260.655012 230.168893 253.41483 242.363432"></polygon>
                        <polygon id="Fill-16" points="213.020768 256.844266 205.780273 244.649727 213.020768 232.455493 227.501759 232.455493 234.741941 244.649727 227.501759 256.844266"></polygon>
                        <polygon id="Fill-16" points="213.020768 227.882598 205.780273 215.688059 213.020768 203.493825 227.501759 203.493825 234.741941 215.688059 227.501759 227.882598"></polygon>
                        <polygon id="Fill-16" points="187.107697 242.363432 179.867201 230.168893 187.107697 217.974659 201.588688 217.974659 208.828869 230.168893 201.588688 242.363432"></polygon>
                        <polygon id="Fill-16" points="187.869846 272.087249 180.62935 259.89271 187.869846 247.698476 202.350837 247.698476 209.591018 259.89271 202.350837 272.087249"></polygon>
                        <polygon id="Fill-16" points="238.933839 271.3251 231.693344 259.130561 238.933839 246.936327 253.41483 246.936327 260.655012 259.130561 253.41483 271.3251"></polygon>
                        <polygon id="Fill-16" points="213.020768 285.805934 205.780273 273.611395 213.020768 261.417161 227.501759 261.417161 234.741941 273.611395 227.501759 285.805934"></polygon>
                        <polygon id="Fill-16" points="213.020768 256.844266 205.780273 244.649727 213.020768 232.455493 227.501759 232.455493 234.741941 244.649727 227.501759 256.844266"></polygon>
                        <polygon id="Fill-16" points="289.997833 242.363432 282.757338 230.168893 289.997833 217.974659 304.478824 217.974659 311.719006 230.168893 304.478824 242.363432"></polygon>
                        <polygon id="Fill-16" points="264.846911 258.368565 257.606415 246.174025 264.846911 233.979791 279.327902 233.979791 286.568083 246.174025 279.327902 258.368565"></polygon>
                        <polygon id="Fill-16" points="264.846911 287.330233 257.606415 275.135693 264.846911 262.94146 279.327902 262.94146 286.568083 275.135693 279.327902 287.330233"></polygon>
                        <polygon id="Fill-16" points="290.759982 272.087249 283.519487 259.89271 290.759982 247.698476 305.240973 247.698476 312.481155 259.89271 305.240973 272.087249"></polygon>
                        <polygon id="Fill-16" points="315.910904 227.882598 308.670409 215.688059 315.910904 203.493825 330.391895 203.493825 337.632077 215.688059 330.391895 227.882598"></polygon>
                        <polygon id="Fill-16" points="58.3044891 228.644747 51.0639936 216.450208 58.3044891 204.255974 72.78548 204.255974 80.0256616 216.450208 72.78548 228.644747"></polygon>
                        <polygon id="Fill-16" points="32.3914177 243.125581 25.1509222 230.931042 32.3914177 218.736808 46.8724086 218.736808 54.1125902 230.931042 46.8724086 243.125581"></polygon>
                        <polygon id="Fill-16" points="7.24049547 258.368565 0 246.174025 7.24049547 233.979791 21.7214864 233.979791 28.961668 246.174025 21.7214864 258.368565"></polygon>
                        <polygon id="Fill-16" points="58.3044891 257.606415 51.0639936 245.411876 58.3044891 233.217642 72.78548 233.217642 80.0256616 245.411876 72.78548 257.606415"></polygon>
                        <polygon id="Fill-16" points="58.3044891 228.644747 51.0639936 216.450208 58.3044891 204.255974 72.78548 204.255974 80.0256616 216.450208 72.78548 228.644747"></polygon>
                        <polygon id="Fill-16" points="32.3914177 243.125581 25.1509222 230.931042 32.3914177 218.736808 46.8724086 218.736808 54.1125902 230.931042 46.8724086 243.125581"></polygon>
                        <polygon id="Fill-16" points="7.24049547 258.368565 0 246.174025 7.24049547 233.979791 21.7214864 233.979791 28.961668 246.174025 21.7214864 258.368565"></polygon>
                        <polygon id="Fill-16" points="58.3044891 257.606415 51.0639936 245.411876 58.3044891 233.217642 72.78548 233.217642 80.0256616 245.411876 72.78548 257.606415"></polygon>
                        <polygon id="Fill-16" points="161.194625 228.644747 153.95413 216.450208 161.194625 204.255974 175.675616 204.255974 182.915798 216.450208 175.675616 228.644747"></polygon>
                        <polygon id="Fill-16" points="32.3914177 243.125581 25.1509222 230.931042 32.3914177 218.736808 46.8724086 218.736808 54.1125902 230.931042 46.8724086 243.125581"></polygon>
                        <polygon id="Fill-16" points="135.281554 214.163913 128.041059 201.969374 135.281554 189.77514 149.762545 189.77514 157.002727 201.969374 149.762545 214.163913"></polygon>
                        <polygon id="Fill-16" points="109.368483 228.644747 102.127987 216.450208 109.368483 204.255974 123.849474 204.255974 131.089655 216.450208 123.849474 228.644747"></polygon>
                        <polygon id="Fill-16" points="135.281554 243.125581 128.041059 230.931042 135.281554 218.736808 149.762545 218.736808 157.002727 230.931042 149.762545 243.125581"></polygon>
                        <polygon id="Fill-16" points="84.2175604 244.64988 76.977065 232.455341 84.2175604 220.261107 98.6985514 220.261107 105.938733 232.455341 98.6985514 244.64988"></polygon>
                        <polygon id="Fill-16" points="84.2175604 214.926063 76.977065 202.731523 84.2175604 190.537289 98.6985514 190.537289 105.938733 202.731523 98.6985514 214.926063"></polygon>
                        <polygon id="Fill-16" points="84.2175604 273.611548 76.977065 261.417009 84.2175604 249.222775 98.6985514 249.222775 105.938733 261.417009 98.6985514 273.611548"></polygon>
                        <polygon id="Fill-16" points="110.130632 258.368565 102.890136 246.174025 110.130632 233.979791 124.611623 233.979791 131.851804 246.174025 124.611623 258.368565"></polygon>
                        <polygon id="Fill-16" points="161.194625 257.606415 153.95413 245.411876 161.194625 233.217642 175.675616 233.217642 182.915798 245.411876 175.675616 257.606415"></polygon>
                        <polygon id="Fill-16" points="135.281554 272.087249 128.041059 259.89271 135.281554 247.698476 149.762545 247.698476 157.002727 259.89271 149.762545 272.087249"></polygon>
                        <polygon id="Fill-16" points="33.1535668 185.202245 25.9130714 173.007706 33.1535668 160.813472 47.6345578 160.813472 54.8747394 173.007706 47.6345578 185.202245"></polygon>
                        <polygon id="Fill-16" points="84.2175604 184.440096 76.977065 172.245557 84.2175604 160.051323 98.6985514 160.051323 105.938733 172.245557 98.6985514 184.440096"></polygon>
                        <polygon id="Fill-16" points="58.3044891 198.92093 51.0639936 186.726391 58.3044891 174.532157 72.78548 174.532157 80.0256616 186.726391 72.78548 198.92093"></polygon>
                        <polygon id="Fill-16" points="33.1535668 185.202245 25.9130714 173.007706 33.1535668 160.813472 47.6345578 160.813472 54.8747394 173.007706 47.6345578 185.202245"></polygon>
                        <polygon id="Fill-16" points="84.2175604 184.440096 76.977065 172.245557 84.2175604 160.051323 98.6985514 160.051323 105.938733 172.245557 98.6985514 184.440096"></polygon>
                        <polygon id="Fill-16" points="58.3044891 198.92093 51.0639936 186.726391 58.3044891 174.532157 72.78548 174.532157 80.0256616 186.726391 72.78548 198.92093"></polygon>
                        <polygon id="Fill-16" points="161.194625 140.997594 153.95413 128.803055 161.194625 116.608821 175.675616 116.608821 182.915798 128.803055 175.675616 140.997594"></polygon>
                        <polygon id="Fill-16" points="161.956775 113.560225 154.716279 101.365685 161.956775 89.1714515 176.437765 89.1714515 183.677947 101.365685 176.437765 113.560225"></polygon>
                        <polygon id="Fill-16" points="135.281554 155.478428 128.041059 143.283889 135.281554 131.089655 149.762545 131.089655 157.002727 143.283889 149.762545 155.478428"></polygon>
                        <polygon id="Fill-16" points="110.130632 200.445229 102.890136 188.250689 110.130632 176.056455 124.611623 176.056455 131.851804 188.250689 124.611623 200.445229"></polygon>
                        <polygon id="Fill-16" points="136.043703 185.202245 128.803208 173.007706 136.043703 160.813472 150.524694 160.813472 157.764876 173.007706 150.524694 185.202245"></polygon>
                        <polygon id="Fill-16" points="161.194625 198.92093 153.95413 186.726391 161.194625 174.532157 175.675616 174.532157 182.915798 186.726391 175.675616 198.92093"></polygon>
                        <polygon id="Fill-16" points="113.941378 85.3607057 106.700882 73.1661666 113.941378 60.9719326 128.422369 60.9719326 135.66255 73.1661666 128.422369 85.3607057"></polygon>
                        <polygon id="Fill-16" points="185.583398 98.3172414 178.342903 86.1227022 185.583398 73.9284683 200.064389 73.9284683 207.304571 86.1227022 200.064389 98.3172414"></polygon>
                        <polygon id="Fill-16" points="138.330151 99.0793905 131.089655 86.8848514 138.330151 74.6906175 152.811142 74.6906175 160.051323 86.8848514 152.811142 99.0793905"></polygon>
                        <polygon id="Fill-16" points="58.3044891 374.215237 51.0639936 362.020697 58.3044891 349.826464 72.78548 349.826464 80.0256616 362.020697 72.78548 374.215237"></polygon>
                        <polygon id="Fill-16" points="32.3914177 359.734403 25.1509222 347.539863 32.3914177 335.34563 46.8724086 335.34563 54.1125902 347.539863 46.8724086 359.734403"></polygon>
                        <polygon id="Fill-16" points="58.3044891 403.176905 51.0639936 390.982365 58.3044891 378.788132 72.78548 378.788132 80.0256616 390.982365 72.78548 403.176905"></polygon>
                        <polygon id="Fill-16" points="32.3914177 417.657739 25.1509222 405.463199 32.3914177 393.268966 46.8724086 393.268966 54.1125902 405.463199 46.8724086 417.657739"></polygon>
                        <polygon id="Fill-16" points="58.3044891 374.215237 51.0639936 362.020697 58.3044891 349.826464 72.78548 349.826464 80.0256616 362.020697 72.78548 374.215237"></polygon>
                        <polygon id="Fill-16" points="32.3914177 359.734403 25.1509222 347.539863 32.3914177 335.34563 46.8724086 335.34563 54.1125902 347.539863 46.8724086 359.734403"></polygon>
                        <polygon id="Fill-16" points="58.3044891 403.176905 51.0639936 390.982365 58.3044891 378.788132 72.78548 378.788132 80.0256616 390.982365 72.78548 403.176905"></polygon>
                        <polygon id="Fill-16" points="32.3914177 417.657739 25.1509222 405.463199 32.3914177 393.268966 46.8724086 393.268966 54.1125902 405.463199 46.8724086 417.657739"></polygon>
                        <polygon id="Fill-16" points="161.194625 374.215237 153.95413 362.020697 161.194625 349.826464 175.675616 349.826464 182.915798 362.020697 175.675616 374.215237"></polygon>
                        <polygon id="Fill-16" points="135.281554 359.734403 128.041059 347.539863 135.281554 335.34563 149.762545 335.34563 157.002727 347.539863 149.762545 359.734403"></polygon>
                        <polygon id="Fill-16" points="109.368483 374.215237 102.127987 362.020697 109.368483 349.826464 123.849474 349.826464 131.089655 362.020697 123.849474 374.215237"></polygon>
                        <polygon id="Fill-16" points="135.281554 388.696071 128.041059 376.501531 135.281554 364.307298 149.762545 364.307298 157.002727 376.501531 149.762545 388.696071"></polygon>
                        <polygon id="Fill-16" points="84.2175604 390.220369 76.977065 378.02583 84.2175604 365.831596 98.6985514 365.831596 105.938733 378.02583 98.6985514 390.220369"></polygon>
                        <polygon id="Fill-16" points="84.2175604 360.496552 76.977065 348.302013 84.2175604 336.107779 98.6985514 336.107779 105.938733 348.302013 98.6985514 360.496552"></polygon>
                        <polygon id="Fill-16" points="84.2175604 419.182037 76.977065 406.987498 84.2175604 394.793264 98.6985514 394.793264 105.938733 406.987498 98.6985514 419.182037"></polygon>
                        <polygon id="Fill-16" points="110.130632 403.939054 102.890136 391.744515 110.130632 379.550281 124.611623 379.550281 131.851804 391.744515 124.611623 403.939054"></polygon>
                        <polygon id="Fill-16" points="161.194625 403.176905 153.95413 390.982365 161.194625 378.788132 175.675616 378.788132 182.915798 390.982365 175.675616 403.176905"></polygon>
                        <polygon id="Fill-16" points="135.281554 417.657739 128.041059 405.463199 135.281554 393.268966 149.762545 393.268966 157.002727 405.463199 149.762545 417.657739"></polygon>
                        <polygon id="Fill-16" points="84.2175604 301.048917 76.977065 288.854378 84.2175604 276.660144 98.6985514 276.660144 105.938733 288.854378 98.6985514 301.048917"></polygon>
                        <polygon id="Fill-16" points="58.3044891 286.568083 51.0639936 274.373544 58.3044891 262.17931 72.78548 262.17931 80.0256616 274.373544 72.78548 286.568083"></polygon>
                        <polygon id="Fill-16" points="84.2175604 330.010585 76.977065 317.816046 84.2175604 305.621812 98.6985514 305.621812 105.938733 317.816046 98.6985514 330.010585"></polygon>
                        <polygon id="Fill-16" points="58.3044891 344.491419 51.0639936 332.29688 58.3044891 320.102646 72.78548 320.102646 80.0256616 332.29688 72.78548 344.491419"></polygon>
                        <polygon id="Fill-16" points="84.2175604 301.048917 76.977065 288.854378 84.2175604 276.660144 98.6985514 276.660144 105.938733 288.854378 98.6985514 301.048917"></polygon>
                        <polygon id="Fill-16" points="58.3044891 286.568083 51.0639936 274.373544 58.3044891 262.17931 72.78548 262.17931 80.0256616 274.373544 72.78548 286.568083"></polygon>
                        <polygon id="Fill-16" points="84.2175604 330.010585 76.977065 317.816046 84.2175604 305.621812 98.6985514 305.621812 105.938733 317.816046 98.6985514 330.010585"></polygon>
                        <polygon id="Fill-16" points="58.3044891 344.491419 51.0639936 332.29688 58.3044891 320.102646 72.78548 320.102646 80.0256616 332.29688 72.78548 344.491419"></polygon>
                        <polygon id="Fill-16" points="187.107697 301.048917 179.867201 288.854378 187.107697 276.660144 201.588688 276.660144 208.828869 288.854378 201.588688 301.048917"></polygon>
                        <polygon id="Fill-16" points="161.194625 286.568083 153.95413 274.373544 161.194625 262.17931 175.675616 262.17931 182.915798 274.373544 175.675616 286.568083"></polygon>
                        <polygon id="Fill-16" points="135.281554 301.048917 128.041059 288.854378 135.281554 276.660144 149.762545 276.660144 157.002727 288.854378 149.762545 301.048917"></polygon>
                        <polygon id="Fill-16" points="161.194625 315.529751 153.95413 303.335212 161.194625 291.140978 175.675616 291.140978 182.915798 303.335212 175.675616 315.529751"></polygon>
                        <polygon id="Fill-16" points="110.130632 317.05405 102.890136 304.859511 110.130632 292.665277 124.611623 292.665277 131.851804 304.859511 124.611623 317.05405"></polygon>
                        <polygon id="Fill-16" points="110.130632 287.330233 102.890136 275.135693 110.130632 262.94146 124.611623 262.94146 131.851804 275.135693 124.611623 287.330233"></polygon>
                        <polygon id="Fill-16" points="110.130632 346.015718 102.890136 333.821179 110.130632 321.626945 124.611623 321.626945 131.851804 333.821179 124.611623 346.015718"></polygon>
                        <polygon id="Fill-16" points="136.043703 330.772735 128.803208 318.578195 136.043703 306.383962 150.524694 306.383962 157.764876 318.578195 150.524694 330.772735"></polygon>
                        <polygon id="Fill-16" points="187.107697 330.010585 179.867201 317.816046 187.107697 305.621812 201.588688 305.621812 208.828869 317.816046 201.588688 330.010585"></polygon>
                        <polygon id="Fill-16" points="161.194625 344.491419 153.95413 332.29688 161.194625 320.102646 175.675616 320.102646 182.915798 332.29688 175.675616 344.491419"></polygon>
                        <polygon id="Fill-16" points="187.107697 330.010585 179.867201 317.816046 187.107697 305.621812 201.588688 305.621812 208.828869 317.816046 201.588688 330.010585"></polygon>
                    </g>
                    <g id="HONEYCOMBS" transform="translate(270.921604, 150.500000) scale(-1, 1) translate(-270.921604, -150.500000) translate(0.921604, 0.000000)">
                        <polygon id="Fill-16" points="264.846911 38.1074579 257.606415 25.9129188 264.846911 13.7186848 279.327902 13.7186848 286.568083 25.9129188 279.327902 38.1074579"></polygon>
                        <polygon id="Fill-16" points="392.887969 140.235445 385.647474 128.040906 392.887969 115.846672 407.36896 115.846672 414.609142 128.040906 407.36896 140.235445"></polygon>
                        <polygon id="Fill-16" points="366.974898 154.716279 359.734403 142.52174 366.974898 130.327506 381.455889 130.327506 388.696071 142.52174 381.455889 154.716279"></polygon>
                        <polygon id="Fill-16" points="366.974898 125.754611 359.734403 113.560072 366.974898 101.365838 381.455889 101.365838 388.696071 113.560072 381.455889 125.754611"></polygon>
                        <polygon id="Fill-16" points="341.061827 140.235445 333.821331 128.040906 341.061827 115.846672 355.542818 115.846672 362.782999 128.040906 355.542818 140.235445"></polygon>
                        <polygon id="Fill-16" points="341.823976 169.959262 334.58348 157.764723 341.823976 145.570489 356.304967 145.570489 363.545148 157.764723 356.304967 169.959262"></polygon>
                        <polygon id="Fill-16" points="392.887969 169.197113 385.647474 157.002574 392.887969 144.80834 407.36896 144.80834 414.609142 157.002574 407.36896 169.197113"></polygon>
                        <polygon id="Fill-16" points="366.974898 183.677947 359.734403 171.483408 366.974898 159.289174 381.455889 159.289174 388.696071 171.483408 381.455889 183.677947"></polygon>
                        <polygon id="Fill-16" points="392.887969 140.235445 385.647474 128.040906 392.887969 115.846672 407.36896 115.846672 414.609142 128.040906 407.36896 140.235445"></polygon>
                        <polygon id="Fill-16" points="366.974898 154.716279 359.734403 142.52174 366.974898 130.327506 381.455889 130.327506 388.696071 142.52174 381.455889 154.716279"></polygon>
                        <polygon id="Fill-16" points="366.974898 125.754611 359.734403 113.560072 366.974898 101.365838 381.455889 101.365838 388.696071 113.560072 381.455889 125.754611"></polygon>
                        <polygon id="Fill-16" points="341.061827 140.235445 333.821331 128.040906 341.061827 115.846672 355.542818 115.846672 362.782999 128.040906 355.542818 140.235445"></polygon>
                        <polygon id="Fill-16" points="341.823976 169.959262 334.58348 157.764723 341.823976 145.570489 356.304967 145.570489 363.545148 157.764723 356.304967 169.959262"></polygon>
                        <polygon id="Fill-16" points="392.887969 169.197113 385.647474 157.002574 392.887969 144.80834 407.36896 144.80834 414.609142 157.002574 407.36896 169.197113"></polygon>
                        <polygon id="Fill-16" points="366.974898 183.677947 359.734403 171.483408 366.974898 159.289174 381.455889 159.289174 388.696071 171.483408 381.455889 183.677947"></polygon>
                        <polygon id="Fill-16" points="366.974898 154.716279 359.734403 142.52174 366.974898 130.327506 381.455889 130.327506 388.696071 142.52174 381.455889 154.716279"></polygon>
                        <polygon id="Fill-16" points="443.951963 140.235445 436.711468 128.040906 443.951963 115.846672 458.432954 115.846672 465.673136 128.040906 458.432954 140.235445"></polygon>
                        <polygon id="Fill-16" points="418.801041 156.240577 411.560545 144.046038 418.801041 131.851804 433.282032 131.851804 440.522213 144.046038 433.282032 156.240577"></polygon>
                        <polygon id="Fill-16" points="418.801041 126.51676 411.560545 114.322221 418.801041 102.127987 433.282032 102.127987 440.522213 114.322221 433.282032 126.51676"></polygon>
                        <polygon id="Fill-16" points="418.801041 185.202245 411.560545 173.007706 418.801041 160.813472 433.282032 160.813472 440.522213 173.007706 433.282032 185.202245"></polygon>
                        <polygon id="Fill-16" points="444.714112 169.959262 437.473617 157.764723 444.714112 145.570489 459.195103 145.570489 466.435285 157.764723 459.195103 169.959262"></polygon>
                        <polygon id="Fill-16" points="495.778106 169.197113 488.53761 157.002574 495.778106 144.80834 510.259097 144.80834 517.499278 157.002574 510.259097 169.197113"></polygon>
                        <polygon id="Fill-16" points="469.102885 212.639615 461.86239 200.445076 469.102885 188.250842 483.583876 188.250842 490.824058 200.445076 483.583876 212.639615"></polygon>
                        <polygon id="Fill-16" points="517.880431 241.601283 510.639936 229.406744 517.880431 217.21251 532.361422 217.21251 539.601604 229.406744 532.361422 241.601283"></polygon>
                        <polygon id="Fill-16" points="494.253807 285.043785 487.013312 272.849246 494.253807 260.655012 508.734798 260.655012 515.97498 272.849246 508.734798 285.043785"></polygon>
                        <polygon id="Fill-16" points="492.729509 255.319968 485.489014 243.125429 492.729509 230.931195 507.2105 230.931195 514.450682 243.125429 507.2105 255.319968"></polygon>
                        <polygon id="Fill-16" points="469.865034 270.562951 462.624539 258.368412 469.865034 246.174178 484.346025 246.174178 491.586207 258.368412 484.346025 270.562951"></polygon>
                        <polygon id="Fill-16" points="469.865034 183.677947 462.624539 171.483408 469.865034 159.289174 484.346025 159.289174 491.586207 171.483408 484.346025 183.677947"></polygon>
                        <polygon id="Fill-16" points="418.801041 67.0691259 411.560545 54.8745868 418.801041 42.6803528 433.282032 42.6803528 440.522213 54.8745868 433.282032 67.0691259"></polygon>
                        <polygon id="Fill-16" points="367.737047 96.7929431 360.496552 84.5984039 367.737047 72.40417 382.218038 72.40417 389.45822 84.5984039 382.218038 96.7929431"></polygon>
                        <polygon id="Fill-16" points="418.801041 96.0307939 411.560545 83.8362548 418.801041 71.6420209 433.282032 71.6420209 440.522213 83.8362548 433.282032 96.0307939"></polygon>
                        <polygon id="Fill-16" points="392.887969 110.511628 385.647474 98.3170888 392.887969 86.1228549 407.36896 86.1228549 414.609142 98.3170888 407.36896 110.511628"></polygon>
                        <polygon id="Fill-16" points="418.801041 67.0691259 411.560545 54.8745868 418.801041 42.6803528 433.282032 42.6803528 440.522213 54.8745868 433.282032 67.0691259"></polygon>
                        <polygon id="Fill-16" points="418.801041 96.0307939 411.560545 83.8362548 418.801041 71.6420209 433.282032 71.6420209 440.522213 83.8362548 433.282032 96.0307939"></polygon>
                        <polygon id="Fill-16" points="392.887969 110.511628 385.647474 98.3170888 392.887969 86.1228549 407.36896 86.1228549 414.609142 98.3170888 407.36896 110.511628"></polygon>
                        <polygon id="Fill-16" points="444.714112 53.3504411 437.473617 41.1559019 444.714112 28.961668 459.195103 28.961668 466.435285 41.1559019 459.195103 53.3504411"></polygon>
                        <polygon id="Fill-16" points="444.714112 112.035926 437.473617 99.8413871 444.714112 87.6471532 459.195103 87.6471532 466.435285 99.8413871 459.195103 112.035926"></polygon>
                        <polygon id="Fill-16" points="238.933839 81.5499599 231.693344 69.3554208 238.933839 57.1611868 253.41483 57.1611868 260.655012 69.3554208 253.41483 81.5499599"></polygon>
                        <polygon id="Fill-16" points="213.782917 96.7929431 206.542422 84.5984039 213.782917 72.40417 228.263908 72.40417 235.50409 84.5984039 228.263908 96.7929431"></polygon>
                        <polygon id="Fill-16" points="264.846911 96.0307939 257.606415 83.8362548 264.846911 71.6420209 279.327902 71.6420209 286.568083 83.8362548 279.327902 96.0307939"></polygon>
                        <polygon id="Fill-16" points="238.933839 110.511628 231.693344 98.3170888 238.933839 86.1228549 253.41483 86.1228549 260.655012 98.3170888 253.41483 110.511628"></polygon>
                        <polygon id="Fill-16" points="238.933839 81.5499599 231.693344 69.3554208 238.933839 57.1611868 253.41483 57.1611868 260.655012 69.3554208 253.41483 81.5499599"></polygon>
                        <polygon id="Fill-16" points="213.782917 96.7929431 206.542422 84.5984039 213.782917 72.40417 228.263908 72.40417 235.50409 84.5984039 228.263908 96.7929431"></polygon>
                        <polygon id="Fill-16" points="264.846911 96.0307939 257.606415 83.8362548 264.846911 71.6420209 279.327902 71.6420209 286.568083 83.8362548 279.327902 96.0307939"></polygon>
                        <polygon id="Fill-16" points="238.933839 110.511628 231.693344 98.3170888 238.933839 86.1228549 253.41483 86.1228549 260.655012 98.3170888 253.41483 110.511628"></polygon>
                        <polygon id="Fill-16" points="238.933839 81.5499599 231.693344 69.3554208 238.933839 57.1611868 253.41483 57.1611868 260.655012 69.3554208 253.41483 81.5499599"></polygon>
                        <polygon id="Fill-16" points="341.823976 81.5499599 334.58348 69.3554208 341.823976 57.1611868 356.304967 57.1611868 363.545148 69.3554208 356.304967 81.5499599"></polygon>
                        <polygon id="Fill-16" points="290.759982 83.0742582 283.519487 70.8797191 290.759982 58.6854852 305.240973 58.6854852 312.481155 70.8797191 305.240973 83.0742582"></polygon>
                        <polygon id="Fill-16" points="290.759982 53.3504411 283.519487 41.1559019 290.759982 28.961668 305.240973 28.961668 312.481155 41.1559019 305.240973 53.3504411"></polygon>
                        <polygon id="Fill-16" points="290.759982 112.035926 283.519487 99.8413871 290.759982 87.6471532 305.240973 87.6471532 312.481155 99.8413871 305.240973 112.035926"></polygon>
                        <polygon id="Fill-16" points="316.673054 96.7929431 309.432558 84.5984039 316.673054 72.40417 331.154045 72.40417 338.394226 84.5984039 331.154045 96.7929431"></polygon>
                        <polygon id="Fill-16" points="264.846911 124.992462 257.606415 112.797923 264.846911 100.603689 279.327902 100.603689 286.568083 112.797923 279.327902 124.992462"></polygon>
                        <polygon id="Fill-16" points="238.933839 139.473296 231.693344 127.278757 238.933839 115.084523 253.41483 115.084523 260.655012 127.278757 253.41483 139.473296"></polygon>
                        <polygon id="Fill-16" points="238.933839 110.511628 231.693344 98.3170888 238.933839 86.1228549 253.41483 86.1228549 260.655012 98.3170888 253.41483 110.511628"></polygon>
                        <polygon id="Fill-16" points="213.020768 124.992462 205.780273 112.797923 213.020768 100.603689 227.501759 100.603689 234.741941 112.797923 227.501759 124.992462"></polygon>
                        <polygon id="Fill-16" points="213.782917 154.716279 206.542422 142.52174 213.782917 130.327506 228.263908 130.327506 235.50409 142.52174 228.263908 154.716279"></polygon>
                        <polygon id="Fill-16" points="264.846911 153.95413 257.606415 141.759591 264.846911 129.565357 279.327902 129.565357 286.568083 141.759591 279.327902 153.95413"></polygon>
                        <polygon id="Fill-16" points="238.933839 168.434964 231.693344 156.240425 238.933839 144.046191 253.41483 144.046191 260.655012 156.240425 253.41483 168.434964"></polygon>
                        <polygon id="Fill-16" points="264.846911 124.992462 257.606415 112.797923 264.846911 100.603689 279.327902 100.603689 286.568083 112.797923 279.327902 124.992462"></polygon>
                        <polygon id="Fill-16" points="238.933839 139.473296 231.693344 127.278757 238.933839 115.084523 253.41483 115.084523 260.655012 127.278757 253.41483 139.473296"></polygon>
                        <polygon id="Fill-16" points="238.933839 110.511628 231.693344 98.3170888 238.933839 86.1228549 253.41483 86.1228549 260.655012 98.3170888 253.41483 110.511628"></polygon>
                        <polygon id="Fill-16" points="213.020768 124.992462 205.780273 112.797923 213.020768 100.603689 227.501759 100.603689 234.741941 112.797923 227.501759 124.992462"></polygon>
                        <polygon id="Fill-16" points="213.782917 154.716279 206.542422 142.52174 213.782917 130.327506 228.263908 130.327506 235.50409 142.52174 228.263908 154.716279"></polygon>
                        <polygon id="Fill-16" points="264.846911 153.95413 257.606415 141.759591 264.846911 129.565357 279.327902 129.565357 286.568083 141.759591 279.327902 153.95413"></polygon>
                        <polygon id="Fill-16" points="238.933839 168.434964 231.693344 156.240425 238.933839 144.046191 253.41483 144.046191 260.655012 156.240425 253.41483 168.434964"></polygon>
                        <polygon id="Fill-16" points="238.933839 139.473296 231.693344 127.278757 238.933839 115.084523 253.41483 115.084523 260.655012 127.278757 253.41483 139.473296"></polygon>
                        <polygon id="Fill-16" points="315.910904 124.992462 308.670409 112.797923 315.910904 100.603689 330.391895 100.603689 337.632077 112.797923 330.391895 124.992462"></polygon>
                        <polygon id="Fill-16" points="290.759982 140.997594 283.519487 128.803055 290.759982 116.608821 305.240973 116.608821 312.481155 128.803055 305.240973 140.997594"></polygon>
                        <polygon id="Fill-16" points="290.759982 169.959262 283.519487 157.764723 290.759982 145.570489 305.240973 145.570489 312.481155 157.764723 305.240973 169.959262"></polygon>
                        <polygon id="Fill-16" points="316.673054 154.716279 309.432558 142.52174 316.673054 130.327506 331.154045 130.327506 338.394226 142.52174 331.154045 154.716279"></polygon>
                        <polygon id="Fill-16" points="341.823976 110.511628 334.58348 98.3170888 341.823976 86.1228549 356.304967 86.1228549 363.545148 98.3170888 356.304967 110.511628"></polygon>
                        <polygon id="Fill-16" points="58.3044891 125.754611 51.0639936 113.560072 58.3044891 101.365838 72.78548 101.365838 80.0256616 113.560072 72.78548 125.754611"></polygon>
                        <polygon id="Fill-16" points="33.1535668 140.997594 25.9130714 128.803055 33.1535668 116.608821 47.6345578 116.608821 54.8747394 128.803055 47.6345578 140.997594"></polygon>
                        <polygon id="Fill-16" points="84.2175604 140.235445 76.977065 128.040906 84.2175604 115.846672 98.6985514 115.846672 105.938733 128.040906 98.6985514 140.235445"></polygon>
                        <polygon id="Fill-16" points="58.3044891 125.754611 51.0639936 113.560072 58.3044891 101.365838 72.78548 101.365838 80.0256616 113.560072 72.78548 125.754611"></polygon>
                        <polygon id="Fill-16" points="33.1535668 140.997594 25.9130714 128.803055 33.1535668 116.608821 47.6345578 116.608821 54.8747394 128.803055 47.6345578 140.997594"></polygon>
                        <polygon id="Fill-16" points="84.2175604 140.235445 76.977065 128.040906 84.2175604 115.846672 98.6985514 115.846672 105.938733 128.040906 98.6985514 140.235445"></polygon>
                        <polygon id="Fill-16" points="187.107697 111.273777 179.867201 99.0792379 187.107697 86.885004 201.588688 86.885004 208.828869 99.0792379 201.588688 111.273777"></polygon>
                        <polygon id="Fill-16" points="58.3044891 125.754611 51.0639936 113.560072 58.3044891 101.365838 72.78548 101.365838 80.0256616 113.560072 72.78548 125.754611"></polygon>
                        <polygon id="Fill-16" points="161.194625 96.7929431 153.95413 84.5984039 161.194625 72.40417 175.675616 72.40417 182.915798 84.5984039 175.675616 96.7929431"></polygon>
                        <polygon id="Fill-16" points="161.194625 125.754611 153.95413 113.560072 161.194625 101.365838 175.675616 101.365838 182.915798 113.560072 175.675616 125.754611"></polygon>
                        <polygon id="Fill-16" points="110.130632 127.278909 102.890136 115.08437 110.130632 102.890136 124.611623 102.890136 131.851804 115.08437 124.611623 127.278909"></polygon>
                        <polygon id="Fill-16" points="110.130632 156.240577 102.890136 144.046038 110.130632 131.851804 124.611623 131.851804 131.851804 144.046038 124.611623 156.240577"></polygon>
                        <polygon id="Fill-16" points="136.043703 140.997594 128.803208 128.803055 136.043703 116.608821 150.524694 116.608821 157.764876 128.803055 150.524694 140.997594"></polygon>
                        <polygon id="Fill-16" points="187.107697 140.235445 179.867201 128.040906 187.107697 115.846672 201.588688 115.846672 208.828869 128.040906 201.588688 140.235445"></polygon>
                        <polygon id="Fill-16" points="161.194625 154.716279 153.95413 142.52174 161.194625 130.327506 175.675616 130.327506 182.915798 142.52174 175.675616 154.716279"></polygon>
                        <polygon id="Fill-16" points="161.956775 67.8312751 154.716279 55.6367359 161.956775 43.442502 176.437765 43.442502 183.677947 55.6367359 176.437765 67.8312751"></polygon>
                        <polygon id="Fill-16" points="187.107697 81.5499599 179.867201 69.3554208 187.107697 57.1611868 201.588688 57.1611868 208.828869 69.3554208 201.588688 81.5499599"></polygon>
                        <polygon id="Fill-16" points="7.24049547 156.240577 0 144.046038 7.24049547 131.851804 21.7214864 131.851804 28.961668 144.046038 21.7214864 156.240577"></polygon>
                        <polygon id="Fill-16" points="32.3914177 111.273777 25.1509222 99.0792379 32.3914177 86.885004 46.8724086 86.885004 54.1125902 99.0792379 46.8724086 111.273777"></polygon>
                        <polygon id="Fill-16" points="58.3044891 97.5550922 51.0639936 85.3605531 58.3044891 73.1663192 72.78548 73.1663192 80.0256616 85.3605531 72.78548 97.5550922"></polygon>
                        <polygon id="Fill-16" points="137.568001 52.5882919 130.327506 40.3937528 137.568001 28.1995188 152.048992 28.1995188 159.289174 40.3937528 152.048992 52.5882919"></polygon>
                        <polygon id="Fill-16" points="137.568001 24.3887731 130.327506 12.1942339 137.568001 0 152.048992 0 159.289174 12.1942339 152.048992 24.3887731"></polygon>
                        <polygon id="Fill-16" points="84.2175604 256.844266 76.977065 244.649727 84.2175604 232.455493 98.6985514 232.455493 105.938733 244.649727 98.6985514 256.844266"></polygon>
                        <polygon id="Fill-16" points="58.3044891 242.363432 51.0639936 230.168893 58.3044891 217.974659 72.78548 217.974659 80.0256616 230.168893 72.78548 242.363432"></polygon>
                        <polygon id="Fill-16" points="84.2175604 256.844266 76.977065 244.649727 84.2175604 232.455493 98.6985514 232.455493 105.938733 244.649727 98.6985514 256.844266"></polygon>
                        <polygon id="Fill-16" points="58.3044891 242.363432 51.0639936 230.168893 58.3044891 217.974659 72.78548 217.974659 80.0256616 230.168893 72.78548 242.363432"></polygon>
                        <polygon id="Fill-16" points="187.107697 256.844266 179.867201 244.649727 187.107697 232.455493 201.588688 232.455493 208.828869 244.649727 201.588688 256.844266"></polygon>
                        <polygon id="Fill-16" points="161.194625 242.363432 153.95413 230.168893 161.194625 217.974659 175.675616 217.974659 182.915798 230.168893 175.675616 242.363432"></polygon>
                        <polygon id="Fill-16" points="135.281554 256.844266 128.041059 244.649727 135.281554 232.455493 149.762545 232.455493 157.002727 244.649727 149.762545 256.844266"></polygon>
                        <polygon id="Fill-16" points="161.194625 271.3251 153.95413 259.130561 161.194625 246.936327 175.675616 246.936327 182.915798 259.130561 175.675616 271.3251"></polygon>
                        <polygon id="Fill-16" points="110.130632 272.849399 102.890136 260.654859 110.130632 248.460626 124.611623 248.460626 131.851804 260.654859 124.611623 272.849399"></polygon>
                        <polygon id="Fill-16" points="110.130632 243.125581 102.890136 230.931042 110.130632 218.736808 124.611623 218.736808 131.851804 230.931042 124.611623 243.125581"></polygon>
                        <polygon id="Fill-16" points="136.043703 286.568083 128.803208 274.373544 136.043703 262.17931 150.524694 262.17931 157.764876 274.373544 150.524694 286.568083"></polygon>
                        <polygon id="Fill-16" points="187.107697 285.805934 179.867201 273.611395 187.107697 261.417161 201.588688 261.417161 208.828869 273.611395 201.588688 285.805934"></polygon>
                        <polygon id="Fill-16" points="161.194625 300.286768 153.95413 288.092229 161.194625 275.897995 175.675616 275.897995 182.915798 288.092229 175.675616 300.286768"></polygon>
                        <polygon id="Fill-16" points="110.130632 183.677947 102.890136 171.483408 110.130632 159.289174 124.611623 159.289174 131.851804 171.483408 124.611623 183.677947"></polygon>
                        <polygon id="Fill-16" points="84.2175604 169.197113 76.977065 157.002574 84.2175604 144.80834 98.6985514 144.80834 105.938733 157.002574 98.6985514 169.197113"></polygon>
                        <polygon id="Fill-16" points="110.130632 212.639615 102.890136 200.445076 110.130632 188.250842 124.611623 188.250842 131.851804 200.445076 124.611623 212.639615"></polygon>
                        <polygon id="Fill-16" points="110.130632 183.677947 102.890136 171.483408 110.130632 159.289174 124.611623 159.289174 131.851804 171.483408 124.611623 183.677947"></polygon>
                        <polygon id="Fill-16" points="84.2175604 169.197113 76.977065 157.002574 84.2175604 144.80834 98.6985514 144.80834 105.938733 157.002574 98.6985514 169.197113"></polygon>
                        <polygon id="Fill-16" points="110.130632 212.639615 102.890136 200.445076 110.130632 188.250842 124.611623 188.250842 131.851804 200.445076 124.611623 212.639615"></polygon>
                        <polygon id="Fill-16" points="213.020768 183.677947 205.780273 171.483408 213.020768 159.289174 227.501759 159.289174 234.741941 171.483408 227.501759 183.677947"></polygon>
                        <polygon id="Fill-16" points="187.107697 169.197113 179.867201 157.002574 187.107697 144.80834 201.588688 144.80834 208.828869 157.002574 201.588688 169.197113"></polygon>
                        <polygon id="Fill-16" points="161.194625 183.677947 153.95413 171.483408 161.194625 159.289174 175.675616 159.289174 182.915798 171.483408 175.675616 183.677947"></polygon>
                        <polygon id="Fill-16" points="187.107697 198.158781 179.867201 185.964242 187.107697 173.770008 201.588688 173.770008 208.828869 185.964242 201.588688 198.158781"></polygon>
                        <polygon id="Fill-16" points="136.043703 199.683079 128.803208 187.48854 136.043703 175.294306 150.524694 175.294306 157.764876 187.48854 150.524694 199.683079"></polygon>
                        <polygon id="Fill-16" points="136.043703 169.959262 128.803208 157.764723 136.043703 145.570489 150.524694 145.570489 157.764876 157.764723 150.524694 169.959262"></polygon>
                        <polygon id="Fill-16" points="136.043703 228.644747 128.803208 216.450208 136.043703 204.255974 150.524694 204.255974 157.764876 216.450208 150.524694 228.644747"></polygon>
                        <polygon id="Fill-16" points="161.956775 213.401764 154.716279 201.207225 161.956775 189.012991 176.437765 189.012991 183.677947 201.207225 176.437765 213.401764"></polygon>
                        <polygon id="Fill-16" points="213.020768 212.639615 205.780273 200.445076 213.020768 188.250842 227.501759 188.250842 234.741941 200.445076 227.501759 212.639615"></polygon>
                        <polygon id="Fill-16" points="187.107697 227.120449 179.867201 214.92591 187.107697 202.731676 201.588688 202.731676 208.828869 214.92591 201.588688 227.120449"></polygon>
                        <polygon id="Fill-16" points="213.020768 212.639615 205.780273 200.445076 213.020768 188.250842 227.501759 188.250842 234.741941 200.445076 227.501759 212.639615"></polygon>
                    </g>
                </g>
            </g>
        </g>
    </g>
</svg>