<?xml version="1.0" encoding="UTF-8"?>
<svg width="37px" height="38px" viewBox="0 0 37 38" version="1.1" xmlns="http://www.w3.org/2000/svg" xmlns:xlink="http://www.w3.org/1999/xlink">
    <!-- Generator: Sketch 58 (84663) - https://sketch.com -->
    <title>ICON_MANU</title>
    <desc>Created with Sketch.</desc>
    <defs>
        <polygon id="path-1" points="0 36.5831596 36.5839217 36.5831596 36.5839217 0 0 0"></polygon>
    </defs>
    <g id="PAGES---DESKTOP-+-MOBILE" stroke="none" stroke-width="1" fill="none" fill-rule="evenodd">
        <g id="Desktop-HD" transform="translate(-282.000000, -2996.000000)">
            <g id="SECTION_4" transform="translate(279.000000, 2301.000000)">
                <g id="ICON-SECTION" transform="translate(1.000000, 490.061909)">
                    <g id="LIST---ICON-+-TEXT">
                        <g id="ICON_MANU" transform="translate(2.286447, 205.780273)">
                            <path d="M9.14647583,22.1025542 L9.14647583,28.1997475" id="Stroke-1" stroke="#D0AA6B" stroke-width="1.52429832" stroke-linejoin="round"></path>
                            <path d="M19.816564,22.1025542 L19.816564,28.1997475" id="Stroke-2" stroke="#D0AA6B" stroke-width="1.52429832" stroke-linejoin="round"></path>
                            <g id="Group-33" transform="translate(0.000000, 0.000229)">
                                <path d="M9.14647583,22.1023256 C9.14647583,25.0487942 11.5350513,27.4373697 14.4815199,27.4373697 C17.4279886,27.4373697 19.816564,25.0487942 19.816564,22.1023256 C19.816564,19.1558569 17.4279886,16.7672815 14.4815199,16.7672815 C11.5350513,16.7672815 9.14647583,19.1558569 9.14647583,22.1023256 Z" id="Stroke-3" stroke="#D0AA6B" stroke-width="1.52429832" stroke-linejoin="round"></path>
                                <path d="M24.389459,5.33504411 C24.389459,7.44010008 26.0951488,9.1457899 28.2002048,9.1457899 C30.3052608,9.1457899 32.0109506,7.44010008 32.0109506,5.33504411 C32.0109506,3.22998813 30.3052608,1.52429832 28.2002048,1.52429832 C26.0951488,1.52429832 24.389459,3.22998813 24.389459,5.33504411 Z" id="Stroke-5" stroke="#D0AA6B" stroke-width="1.52429832"></path>
                                <path d="M0.762072943,5.33504411 C0.762072943,7.86004427 2.80996773,9.90793905 5.33496789,9.90793905 C7.8607302,9.90793905 9.90786284,7.86004427 9.90786284,5.33504411 C9.90786284,2.81004395 7.8607302,0.762149158 5.33496789,0.762149158 C2.80996773,0.762149158 0.762072943,2.81004395 0.762072943,5.33504411 Z" id="Stroke-7" stroke="#D0AA6B" stroke-width="1.52429832" stroke-linejoin="round"></path>
                                <path d="M25.9137573,2.28644747 L8.38432667,2.28644747" id="Stroke-9" stroke="#D0AA6B" stroke-width="1.52429832" stroke-linejoin="round"></path>
                                <path d="M25.1516081,7.62149158 L9.14647583,7.62149158" id="Stroke-11" stroke="#D0AA6B" stroke-width="1.52429832" stroke-linejoin="round"></path>
                                <path d="M2.69130111,9.06538316 L9.14670447,21.3397953" id="Stroke-13" stroke="#D0AA6B" stroke-width="1.52429832" stroke-linejoin="round"></path>
                                <path d="M10.6707741,9.1457899 L16.0058183,15.2429832" id="Stroke-15" stroke="#D0AA6B" stroke-width="1.52429832" stroke-linejoin="round"></path>
                                <polyline id="Stroke-17" stroke="#D0AA6B" stroke-width="1.52429832" points="25.9137573 8.38364074 25.9137573 13.7186848 30.4866523 13.7186848 30.4866523 8.38364074"></polyline>
                                <polyline id="Stroke-19" stroke="#D0AA6B" stroke-width="1.52429832" points="30.4866523 13.7186848 31.2488014 13.7186848 33.5352489 16.0051323 31.2488014 19.0537289"></polyline>
                                <polyline id="Stroke-21" stroke="#D0AA6B" stroke-width="1.52429832" points="25.9137573 13.7186848 25.1516081 13.7186848 22.8651607 16.0051323 25.1516081 19.0537289"></polyline>
                                <mask id="mask-2" fill="white">
                                    <use xlink:href="#path-1"></use>
                                </mask>
                                <g id="Clip-24"></g>
                                <polygon id="Stroke-23" stroke="#D0AA6B" stroke-width="1.52429832" stroke-linejoin="round" mask="url(#mask-2)" points="25.1516844 29.7238172 32.7731759 29.7238172 32.7731759 22.8644747 25.1516844 22.8644747"></polygon>
                                <path d="M32.7730997,32.7724138 L31.2488014,32.7724138" id="Stroke-25" stroke="#D0AA6B" stroke-width="1.52429832" stroke-linejoin="round" mask="url(#mask-2)"></path>
                                <path d="M5.33573004,32.7724138 L3.81143172,32.7724138" id="Stroke-26" stroke="#D0AA6B" stroke-width="1.52429832" stroke-linejoin="round" mask="url(#mask-2)"></path>
                                <path d="M9.90862499,32.7724138 L8.38432667,32.7724138" id="Stroke-27" stroke="#D0AA6B" stroke-width="1.52429832" stroke-linejoin="round" mask="url(#mask-2)"></path>
                                <path d="M14.4815199,32.7724138 L12.9572216,32.7724138" id="Stroke-28" stroke="#D0AA6B" stroke-width="1.52429832" stroke-linejoin="round" mask="url(#mask-2)"></path>
                                <path d="M19.0544149,32.7724138 L17.5301166,32.7724138" id="Stroke-29" stroke="#D0AA6B" stroke-width="1.52429832" stroke-linejoin="round" mask="url(#mask-2)"></path>
                                <path d="M23.6273098,32.7724138 L22.1030115,32.7724138" id="Stroke-30" stroke="#D0AA6B" stroke-width="1.52429832" stroke-linejoin="round" mask="url(#mask-2)"></path>
                                <path d="M28.2002048,32.7724138 L26.6759065,32.7724138" id="Stroke-31" stroke="#D0AA6B" stroke-width="1.52429832" stroke-linejoin="round" mask="url(#mask-2)"></path>
                                <path d="M35.8216964,32.7724138 C35.8216964,31.0888263 34.4566872,29.7238172 32.7730997,29.7238172 L3.81143172,29.7238172 C2.12784423,29.7238172 0.762835092,31.0888263 0.762835092,32.7724138 C0.762835092,34.4560013 2.12784423,35.8210104 3.81143172,35.8210104 L32.7730997,35.8210104 C34.4566872,35.8210104 35.8216964,34.4560013 35.8216964,32.7724138 Z" id="Stroke-32" stroke="#D0AA6B" stroke-width="1.52429832" stroke-linejoin="round" mask="url(#mask-2)"></path>
                            </g>
                        </g>
                    </g>
                </g>
            </g>
        </g>
    </g>
</svg>