<?xml version="1.0" encoding="UTF-8"?>
<svg width="35px" height="39px" viewBox="0 0 35 39" version="1.1" xmlns="http://www.w3.org/2000/svg" xmlns:xlink="http://www.w3.org/1999/xlink">
    <!-- Generator: Sketch 58 (84663) - https://sketch.com -->
    <title>ICON_EDU</title>
    <desc>Created with Sketch.</desc>
    <g id="PAGES---DESKTOP-+-MOBILE" stroke="none" stroke-width="1" fill="none" fill-rule="evenodd" stroke-linejoin="round">
        <g id="Desktop-HD" transform="translate(-594.000000, -2862.000000)" stroke="#D0AA6B" stroke-width="1.14322374">
            <g id="SECTION_4" transform="translate(279.000000, 2301.000000)">
                <g id="ICON-SECTION" transform="translate(1.000000, 490.061909)">
                    <g id="LIST---ICON-+-TEXT">
                        <g id="ICON_EDU" transform="translate(315.529751, 72.404170)">
                            <path d="M23.0546927,22.8644747 C27.4784044,24.1820641 32.0102646,26.9929791 32.0102646,31.3604155 L32.0102646,36.5831596 L25.8821306,36.5831596 L16.0051323,36.5831596" id="Stroke-1" stroke-linecap="round"></path>
                            <path d="M8.9555719,22.8644747 C4.53186027,24.1820641 0,26.9929791 0,31.3604155 L0,36.5831596 L6.12813407,36.5831596 L16.0051323,36.5831596" id="Stroke-3" stroke-linecap="round"></path>
                            <path d="M25.5319968,36.5831596 L25.5319968,33.534563" id="Stroke-5" stroke-linecap="round"></path>
                            <path d="M5.71611868,36.5831596 L5.71611868,33.534563" id="Stroke-7" stroke-linecap="round"></path>
                            <path d="M19.4348035,19.8158781 L19.4348035,17.5294306" id="Stroke-9" stroke-linecap="round"></path>
                            <path d="M11.8133119,19.8158781 L11.8133119,17.5294306" id="Stroke-11" stroke-linecap="round"></path>
                            <polygon id="Stroke-13" stroke-linecap="round" points="22.8644747 22.7808741 19.4305943 20.5780273 16.0051323 25.6773722 19.1704646 27.4373697"></polygon>
                            <polygon id="Stroke-15" stroke-linecap="round" points="8.38364074 22.7808741 11.8149956 20.5780273 15.2429832 25.6773722 12.0776509 27.4373697"></polygon>
                            <path d="M15.850416,25.5319968 L15.3976994,25.5319968" id="Stroke-17" stroke-linecap="round"></path>
                            <polyline id="Stroke-19" stroke-linecap="round" points="13.7186848 26.6752205 14.5964876 29.7238172 16.6516278 29.7238172 17.5294306 26.6752205"></polyline>
                            <polyline id="Stroke-21" stroke-linecap="round" points="17.5294306 36.5831596 16.6622444 29.7238172 14.5858711 29.7238172 13.7186848 36.5831596"></polyline>
                            <polyline id="Stroke-23" stroke-linecap="round" points="9.94436445 8.38364074 3.04859663 5.40559255 15.5606806 0 28.1995188 5.40559255 25.2680094 6.65843274 21.2535598 8.37564955"></polyline>
                            <path d="M25.5319968,6.09719326 L25.5319968,10.6700882" id="Stroke-27" stroke-linecap="round"></path>
                            <path d="M21.3401764,11.4322374 C17.780824,9.20979683 13.4672914,9.20979683 9.90793905,11.4322374 L9.90793905,7.00118317 C13.4672914,4.77966442 17.780824,4.77966442 21.3401764,7.00118317 L21.3401764,11.4322374 Z" id="Stroke-29" stroke-linecap="round"></path>
                            <polygon id="Stroke-31" points="25.1509222 9.90793905 24.3887731 11.4322374 25.9130714 11.4322374"></polygon>
                            <path d="M9.90793905,9.1457899 L9.90793905,12.5133367 L9.91223883,12.7997135 C9.91223883,16.2536972 12.469744,19.0537289 15.6257776,19.0537289 C18.7818113,19.0537289 21.3401764,16.2536972 21.3401764,12.7997135 L21.3401764,9.1457899" id="Stroke-25" stroke-linecap="round"></path>
                        </g>
                    </g>
                </g>
            </g>
        </g>
    </g>
</svg>