<?xml version="1.0" encoding="UTF-8"?>
<svg width="45px" height="46px" viewBox="0 0 45 46" version="1.1" xmlns="http://www.w3.org/2000/svg" xmlns:xlink="http://www.w3.org/1999/xlink">
    <!-- Generator: Sketch 58 (84663) - https://sketch.com -->
    <title>ICON_LEGAL</title>
    <desc>Created with Sketch.</desc>
    <defs>
        <polygon id="path-1" points="0 0.204975443 9.54435732 0.204975443 9.54435732 9.74215942 0 9.74215942"></polygon>
        <polygon id="path-3" points="0.28681502 0.411560545 9.83133087 0.411560545 9.83133087 11.0005385 0.28681502 11.0005385"></polygon>
        <polygon id="path-5" points="0.362867682 0.093612436 11.2816071 0.093612436 11.2816071 11.4322374 0.362867682 11.4322374"></polygon>
        <polygon id="path-7" points="0 44.9668003 38.6880012 44.9668003 44.2046512 44.9668003 44.2046512 1.52429832 0 1.52429832"></polygon>
    </defs>
    <g id="PAGES---DESKTOP-+-MOBILE" stroke="none" stroke-width="1" fill="none" fill-rule="evenodd">
        <g id="Desktop-HD" transform="translate(-280.000000, -2862.000000)">
            <g id="SECTION_4" transform="translate(279.000000, 2301.000000)">
                <g id="ICON-SECTION" transform="translate(1.000000, 490.061909)">
                    <g id="LIST---ICON-+-TEXT">
                        <g id="ICON_LEGAL" transform="translate(0.000000, 70.879872)">
                            <path d="M3.85705519,16.0436097 L8.34531123,20.5319168 L19.7695687,9.10752934 L15.2813127,4.61922222 L3.85705519,16.0436097 Z M8.34531123,22.1023256 C8.17877434,22.1023256 8.01267113,22.0390061 7.88560001,21.9119336 L2.47705415,16.5037599 C2.22291191,16.2496147 2.22291191,15.8376047 2.47705415,15.5834596 L14.8216014,3.23920548 C15.0757437,2.98506035 15.4873153,2.98506035 15.7414576,3.23920548 L21.1495697,8.6473792 C21.403712,8.90152433 21.403712,9.31353436 21.1495697,9.56724579 L8.80545614,21.9119336 C8.67838502,22.0390061 8.51184813,22.1023256 8.34531123,22.1023256 L8.34531123,22.1023256 Z" id="Fill-1" fill="#D0AA6B"></path>
                            <g id="Group-5" transform="translate(0.000000, 14.480834)">
                                <mask id="mask-2" fill="white">
                                    <use xlink:href="#path-1"></use>
                                </mask>
                                <g id="Clip-4"></g>
                                <path d="M1.43510552,2.25136118 L7.49123419,8.30709352 L8.10909327,7.68923445 L2.05336092,1.63310578 L1.43510552,2.25136118 Z M7.49123419,9.74215942 C7.33904825,9.74215942 7.1868623,9.68429705 7.07074126,9.56817601 L0.174023042,2.67185411 C-0.0582190499,2.43961202 -0.0582190499,2.06311033 0.174023042,1.83086824 L1.63286799,0.372023296 C1.85599478,0.149292826 2.25072707,0.149292826 2.47345754,0.372023296 L9.37017575,7.26874151 C9.60241785,7.5009836 9.60241785,7.87748529 9.37017575,8.10933106 L7.91133081,9.56817601 C7.79520976,9.68429705 7.64342014,9.74215942 7.49123419,9.74215942 L7.49123419,9.74215942 Z" id="Fill-3" fill="#D0AA6B" mask="url(#mask-2)"></path>
                            </g>
                            <g id="Group-8" transform="translate(13.718685, 0.000000)">
                                <mask id="mask-4" fill="white">
                                    <use xlink:href="#path-3"></use>
                                </mask>
                                <g id="Clip-7"></g>
                                <path d="M1.72227723,2.68930193 L7.77800958,9.40837959 L8.39626498,8.72244535 L2.34053263,2.00336769 L1.72227723,2.68930193 Z M7.77800958,11.0005385 C7.62582364,11.0005385 7.47403401,10.9359024 7.35791296,10.8070699 L0.461194747,3.15582516 C0.349829512,3.03182935 0.28681502,2.8643031 0.28681502,2.68930193 C0.28681502,2.51430076 0.349829512,2.34677451 0.461194747,2.22277871 L1.92003969,0.604677417 C2.15228178,0.347012374 2.52838715,0.347012374 2.76062924,0.604677417 L9.65734746,8.25592213 C9.76871269,8.37947823 9.83133087,8.54744418 9.83133087,8.72244535 C9.83133087,8.89744652 9.76871269,9.06497277 9.65734746,9.18852888 L8.19850251,10.8070699 C8.08238147,10.9359024 7.93019552,11.0005385 7.77800958,11.0005385 L7.77800958,11.0005385 Z" id="Fill-6" fill="#D0AA6B" mask="url(#mask-4)"></path>
                            </g>
                            <path d="M14.4670133,16.6730637 L26.7631309,28.9750301 L28.2133396,27.5241809 L15.9172219,15.2222145 L14.4670133,16.6730637 Z M26.7631309,30.4859663 C26.5971306,30.4859663 26.4382208,30.4200376 26.3210196,30.3027846 L13.1398451,17.1157876 C12.8954326,16.8712672 12.8954326,16.4748603 13.1398451,16.2303398 L15.4746935,13.8948773 C15.709513,13.659954 16.1249308,13.659954 16.3593333,13.8948773 L29.5405078,27.0818743 C29.7849203,27.3259775 29.7849203,27.7223843 29.5405078,27.9669048 L27.2056594,30.3027846 C27.0884581,30.4200376 26.9291312,30.4859663 26.7631309,30.4859663 L26.7631309,30.4859663 Z" id="Fill-9" fill="#D0AA6B"></path>
                            <path d="M30.6848007,27.9385944 C30.4597529,27.9385944 30.2481911,28.026254 30.0888876,28.1851372 L27.4232937,30.851171 C27.2639902,31.0104756 27.1763311,31.2220388 27.1763311,31.4470882 C27.1763311,31.6721375 27.2639902,31.8837007 27.4232937,32.0430053 L35.7723976,40.3917455 L39.6298176,36.5342988 L31.2807137,28.1851372 C31.1214102,28.026254 30.9098484,27.9385944 30.6848007,27.9385944 M35.7723976,41.9182037 C35.6046653,41.9182037 35.4436761,41.8516161 35.3252521,41.7327698 L26.5294241,32.936881 C25.7076205,32.1154931 25.7076205,30.7786832 26.5294241,29.9572953 L29.1950181,27.2912615 C30.0164003,26.4698736 31.353201,26.4698736 32.1745832,27.2912615 L40.9708326,36.0871502 C41.2177952,36.3341145 41.2177952,36.7344831 40.9708326,36.9814474 L36.2191216,41.7327698 C36.1006976,41.8516161 35.9401298,41.9182037 35.7723976,41.9182037" id="Fill-11" fill="#D0AA6B"></path>
                            <g id="Group-15" transform="translate(33.534563, 34.296712)">
                                <mask id="mask-6" fill="white">
                                    <use xlink:href="#path-5"></use>
                                </mask>
                                <g id="Clip-14"></g>
                                <path d="M1.89626945,8.86983327 L2.830749,9.84025435 L9.74852285,2.65597256 L8.8140433,1.68599119 L1.89626945,8.86983327 Z M2.830749,11.4324133 C2.66815718,11.4324133 2.50556536,11.3677771 2.38150441,11.2389446 L0.548959102,9.3363565 C0.300837209,9.07869146 0.300837209,8.66097509 0.548959102,8.40331005 L8.36522213,0.286861218 C8.61334403,0.0291961754 9.015166,0.0291961754 9.26328789,0.286861218 L11.0958332,2.18988904 C11.3435317,2.44711438 11.3435317,2.86483074 11.0958332,3.12249579 L3.27957017,11.2389446 C3.15550922,11.3677771 2.9929174,11.4324133 2.830749,11.4324133 L2.830749,11.4324133 Z" id="Fill-13" fill="#D0AA6B" mask="url(#mask-6)"></path>
                            </g>
                            <path d="M5.13669983,40.1203989 C4.68912759,40.1203989 4.32494333,40.4772915 4.32494333,40.9159025 L4.32494333,42.1583557 C4.32494333,42.5969667 4.68912759,42.9538593 5.13669983,42.9538593 L20.0142224,42.9538593 C20.4617946,42.9538593 20.8259789,42.5969667 20.8259789,42.1583557 L20.8259789,40.9159025 C20.8259789,40.4772915 20.4617946,40.1203989 20.0142224,40.1203989 L5.13669983,40.1203989 Z M5.13669983,44.2046512 C3.98500966,44.2046512 3.04859663,43.2869869 3.04859663,42.1583557 L3.04859663,40.9159025 C3.04859663,39.7876883 3.98500966,38.8696071 5.13669983,38.8696071 L20.0142224,38.8696071 C21.1659126,38.8696071 22.1023256,39.7876883 22.1023256,40.9159025 L22.1023256,42.1583557 C22.1023256,43.2869869 21.1659126,44.2046512 20.0142224,44.2046512 L5.13669983,44.2046512 Z" id="Fill-16" fill="#D0AA6B"></path>
                            <mask id="mask-8" fill="white">
                                <use xlink:href="#path-7"></use>
                            </mask>
                            <g id="Clip-19"></g>
                            <path d="M7.40315425,38.9546812 L18.5094818,38.9546812 L18.5094818,37.2602346 L7.40315425,37.2602346 L7.40315425,38.9546812 Z M6.75017376,40.3939054 C6.38972852,40.3939054 6.09719326,40.0719989 6.09719326,39.6742933 L6.09719326,36.5406225 C6.09719326,36.1433966 6.38972852,35.8210104 6.75017376,35.8210104 L19.1628976,35.8210104 C19.5233428,35.8210104 19.8158781,36.1433966 19.8158781,36.5406225 L19.8158781,39.6742933 C19.8158781,40.0719989 19.5233428,40.3939054 19.1628976,40.3939054 L6.75017376,40.3939054 Z" id="Fill-18" fill="#D0AA6B" mask="url(#mask-8)"></path>
                        </g>
                    </g>
                </g>
            </g>
        </g>
    </g>
</svg>