<?xml version="1.0" encoding="UTF-8"?>
<svg width="39px" height="37px" viewBox="0 0 39 37" version="1.1" xmlns="http://www.w3.org/2000/svg" xmlns:xlink="http://www.w3.org/1999/xlink">
    <!-- Generator: Sketch 58 (84663) - https://sketch.com -->
    <title>ICON_HEALTHCARE</title>
    <desc>Created with Sketch.</desc>
    <defs>
        <polygon id="path-1" points="0 0 38.1074579 0 38.1074579 36.5831596 0 36.5831596"></polygon>
    </defs>
    <g id="PAGES---DESKTOP-+-MOBILE" stroke="none" stroke-width="1" fill="none" fill-rule="evenodd">
        <g id="Desktop-HD" transform="translate(-591.000000, -2799.000000)">
            <g id="SECTION_4" transform="translate(279.000000, 2301.000000)">
                <g id="ICON-SECTION" transform="translate(1.000000, 490.061909)">
                    <g id="LIST---ICON-+-TEXT">
                        <g id="ICON_HEALTHCARE" transform="translate(311.719006, 8.383641)">
                            <mask id="mask-2" fill="white">
                                <use xlink:href="#path-1"></use>
                            </mask>
                            <g id="Clip-2"></g>
                            <path d="M34.7972989,5.10108355 C34.7972989,5.10096058 34.7972989,5.10096058 34.7971751,5.10096058 L32.9758979,3.29078363 C32.9758979,3.29066066 32.9757741,3.29066066 32.9757741,3.29053768 L30.146608,0.478737694 C29.8358031,0.169950037 29.4227988,0 28.9835641,0 C28.5443294,0 28.1313251,0.169950037 27.8206439,0.478737694 C27.5099627,0.787525351 27.3388468,1.19801249 27.3388468,1.63469308 C27.3388468,2.0712507 27.5099627,2.48173784 27.8205202,2.79064847 L30.2999071,5.25480102 L26.8371295,8.69647373 L23.0244489,4.90715359 C22.6530172,4.53786274 22.158971,4.33446378 21.6336216,4.33446378 C21.1083959,4.33446378 20.6145972,4.53786274 20.2431655,4.90703062 C19.8717338,5.2761985 19.6672113,5.76711061 19.6672113,6.28913515 C19.6672113,6.81140563 19.8717338,7.3020718 20.2431655,7.67123968 L21.7142923,9.13364622 L15.6252626,15.1856875 C15.6252626,15.1856875 15.6251388,15.1856875 15.6251388,15.1858105 L13.9024728,16.8978542 L9.12087768,21.6504295 C8.32654344,22.4397995 8.31961467,23.7186059 9.09736935,24.5180597 L7.11994726,26.4836757 C6.77907642,26.8223461 6.59138093,27.2726768 6.59138093,27.7516604 C6.59138093,28.1812085 6.74319528,28.5866537 7.01985125,28.9101983 L0.145024525,35.7433703 C-0.0173067082,35.9045892 -0.0467539899,36.1555791 0.0738808826,36.349632 C0.166058298,36.4978156 0.327028523,36.5831596 0.49492752,36.5831596 C0.547140767,36.5831596 0.599725199,36.5747974 0.651319806,36.5578269 L4.55395073,35.2648785 C4.62695029,35.2407756 4.69302108,35.2000713 4.74746144,35.1459627 L9.02065794,30.8989334 C9.34631023,31.1739032 9.75436542,31.3247923 10.1863001,31.3247923 C10.668221,31.3247923 11.1214369,31.1382408 11.4620603,30.7994475 L13.4397298,28.8340774 C13.8377631,29.2165264 14.3532142,29.4089807 14.8694077,29.4089807 C15.3964893,29.4089807 15.9236947,29.2095169 16.3250685,28.8107123 L20.0971663,25.0613587 C20.0972901,25.0612358 20.0974138,25.0612358 20.0974138,25.0612358 L22.829206,22.3459703 C22.8293297,22.3459703 22.8293297,22.3458474 22.8293297,22.3458474 L28.9184831,16.293929 L30.3898574,17.7560896 C30.7612891,18.1253805 31.2550878,18.3286564 31.7804372,18.3286564 C32.3056629,18.3286564 32.7995854,18.1253805 33.1708933,17.7562126 C33.5424487,17.3869217 33.747095,16.8961326 33.747095,16.3739851 C33.747095,15.8519605 33.5424487,15.3610484 33.1710171,14.9918805 L29.3583364,11.2023145 L32.8209903,7.76064176 L35.3003772,10.2249173 L35.3005009,10.2249173 C35.6212041,10.5436658 36.0423745,10.7029171 36.4635448,10.7029171 C36.8847152,10.7029171 37.3057618,10.5435429 37.6265887,10.2249173 C38.2677476,9.58742019 38.2677476,8.55050362 37.6265887,7.91288354 L34.7972989,5.10108355 Z M23.5249289,10.9332474 L24.0559698,11.4609287 L18.3167194,17.1651996 L16.6749715,15.5335809 L22.4143457,9.82918703 L23.5249289,10.9332474 Z M19.7473871,24.0176786 L13.9431794,18.2487234 L15.9750418,16.2292447 L17.9664452,18.2083879 C17.9664452,18.2085109 17.9665689,18.2086338 17.9666926,18.2087568 L19.7877224,20.0188108 L19.7880936,20.0191797 L21.7793732,21.9981999 L19.7473871,24.0176786 Z M19.0165253,17.8608634 L24.7558995,12.1565925 L25.3165114,12.7136646 L25.8769996,13.2709827 L20.1378729,18.9752536 L19.0165253,17.8608634 Z M4.13018207,34.3682753 L2.32721657,34.9655599 L7.71458439,29.611027 L8.31565537,30.2083116 L4.13018207,34.3682753 Z M10.7622543,30.1037837 C10.6084603,30.2567633 10.4038141,30.3410005 10.1863001,30.3410005 C9.96866245,30.3410005 9.76413994,30.2567633 9.61034594,30.1036607 L7.81975325,28.3242273 C7.66595925,28.1713706 7.58120552,27.9680946 7.58120552,27.7516604 C7.58120552,27.5354722 7.66595925,27.3320732 7.81987698,27.1793395 L9.77069753,25.2401629 L12.7131986,28.16473 L10.7622543,30.1037837 Z M15.6251388,28.1150485 C15.2084227,28.5292249 14.5303928,28.5292249 14.1135529,28.1150485 L9.8208074,23.8484664 C9.61888318,23.6476499 9.50777537,23.3809193 9.50777537,23.0973413 C9.50777537,22.8135174 9.61888318,22.5466639 9.8208074,22.3459703 L13.2433734,18.9443871 L19.0475811,24.7133424 L15.6251388,28.1150485 Z M22.479303,21.3025361 L20.8378026,19.6709174 L26.5770531,13.9667695 L28.2186771,15.5981423 L22.479303,21.3025361 Z M32.7572704,16.3739851 C32.7572704,16.6332142 32.6555659,16.8771946 32.4710873,17.0605488 C32.2866088,17.243903 32.041256,17.3448646 31.7804372,17.3448646 C31.5196184,17.3448646 31.2741419,17.243903 31.0897871,17.0605488 L29.2685099,15.2504948 L26.9270798,12.9230893 L26.0165649,12.0182468 C26.0164412,12.0182468 26.0164412,12.0181238 26.0164412,12.0181238 L22.7642487,8.78575283 C22.7642487,8.78562986 22.764125,8.78562986 22.7640013,8.78550689 L20.9429715,6.97569886 C20.7584929,6.79234466 20.6570359,6.54848726 20.6570359,6.28913515 C20.6570359,6.029906 20.7584929,5.78604861 20.9429715,5.60269441 C21.1275737,5.41934021 21.3729265,5.3182556 21.6336216,5.3182556 C21.8946878,5.3182556 22.1399169,5.41934021 22.3243954,5.60269441 L26.4868553,9.73966198 C26.486979,9.73978495 26.4871027,9.7400309 26.4872265,9.74015387 L28.30838,11.5500849 L28.3086275,11.5503308 L32.4712111,15.6875443 C32.6555659,15.8708985 32.7572704,16.1147559 32.7572704,16.3739851 L32.7572704,16.3739851 Z M28.6584067,10.5067736 L27.5370592,9.39226049 L30.9998368,5.95058779 L32.1211843,7.06497797 L28.6584067,10.5067736 Z M36.926659,9.5292535 C36.6712843,9.78294882 36.2558054,9.78294882 36.0004307,9.5292535 L32.2605022,5.81199611 L31.3498635,4.90703062 C31.3498635,4.90690764 31.3498635,4.90690764 31.3497398,4.90690764 L28.5205736,2.0948617 C28.3968456,1.9720107 28.3286714,1.80845531 28.3286714,1.63469308 C28.3286714,1.4606849 28.3968456,1.29725249 28.5205736,1.17427851 C28.6443017,1.05142751 28.8087363,0.983791818 28.9835641,0.983791818 C29.1585156,0.983791818 29.3230739,1.05142751 29.4466783,1.17440148 L33.1866068,4.89153589 L34.0972454,5.79650139 C34.0972454,5.79662437 34.0973691,5.79662437 34.0973691,5.79662437 L36.926659,8.60854733 C37.1817863,8.8624886 37.1817863,9.27543521 36.926659,9.5292535 L36.926659,9.5292535 Z" id="Fill-1" fill="#D0AA6B" mask="url(#mask-2)"></path>
                        </g>
                    </g>
                </g>
            </g>
        </g>
    </g>
</svg>