<?xml version="1.0" encoding="UTF-8"?>
<svg width="31px" height="44px" viewBox="0 0 31 44" version="1.1" xmlns="http://www.w3.org/2000/svg" xmlns:xlink="http://www.w3.org/1999/xlink">
    <!-- Generator: Sketch 58 (84663) - https://sketch.com -->
    <title>ICON_ENERGY</title>
    <desc>Created with Sketch.</desc>
    <defs>
        <polygon id="path-1" points="0 0 30.4859663 0 30.4859663 43.442502 0 43.442502"></polygon>
    </defs>
    <g id="PAGES---DESKTOP-+-MOBILE" stroke="none" stroke-width="1" fill="none" fill-rule="evenodd">
        <g id="Desktop-HD" transform="translate(-595.000000, -2924.000000)">
            <g id="SECTION_4" transform="translate(279.000000, 2301.000000)">
                <g id="ICON-SECTION" transform="translate(1.000000, 490.061909)">
                    <g id="LIST---ICON-+-TEXT">
                        <g id="ICON_ENERGY" transform="translate(315.529751, 133.376103)">
                            <mask id="mask-2" fill="white">
                                <use xlink:href="#path-1"></use>
                            </mask>
                            <g id="Clip-2"></g>
                            <path d="M28.7584993,24.4729256 C28.7276656,24.5305238 28.657719,24.5566006 28.5977647,24.5325297 L19.6754243,21.0901067 L16.9397957,19.0205837 C17.2347137,18.7621083 17.4696775,18.438011 17.6229891,18.0634795 C17.6946488,17.8878194 17.7443252,17.7067146 17.7760153,17.5238905 L20.973292,18.6847376 L28.7202427,24.3052891 L28.7202427,24.3055757 C28.7730596,24.3436879 28.7893329,24.415614 28.7584993,24.4729256 L28.7584993,24.4729256 Z M17.1413563,41.7231531 L13.3765124,41.7231531 L14.591015,20.392051 L15.2516542,19.896592 L15.9279957,20.4080983 L17.1413563,41.7231531 Z M5.15677926,25.0698263 L8.41600867,23.8278832 C9.55656766,24.9938883 10.9757714,25.8561418 12.5374379,26.3260972 L12.3487246,29.6407153 C9.50746224,28.9807719 6.96854081,27.3657301 5.15677926,25.0698263 L5.15677926,25.0698263 Z M1.88812847,24.4763643 C1.82760318,24.5001487 1.75822751,24.4737853 1.72739387,24.4161871 C1.69656024,24.3585889 1.71340454,24.2866628 1.76622141,24.2485506 L9.5360119,18.6600936 L12.7409969,17.5118551 C12.7726871,17.7029894 12.8240765,17.8935505 12.9017315,18.0798133 C13.0558997,18.4497599 13.287152,18.7641142 13.5683662,19.0125601 L10.8244581,21.0706207 L1.88812847,24.4763643 Z M15.1303182,1.83282592 C15.1385976,1.76806378 15.1939839,1.7193489 15.2590771,1.7193489 C15.3238849,1.7193489 15.3792712,1.76806378 15.3878361,1.83282592 L16.6217525,11.346843 L16.1215624,14.6806606 C15.5799753,14.4852279 14.9730095,14.4717597 14.3963063,14.6798009 L13.8961163,11.346843 L15.1303182,1.83282592 Z M16.0359134,16.7642249 C16.1227044,16.9725526 16.1232754,17.2020857 16.0379119,17.4109866 C15.9528339,17.6198875 15.7915283,17.7829391 15.5839723,17.8700528 C15.1551564,18.0494382 14.6612472,17.8462684 14.4822408,17.4164312 C14.302949,16.986594 14.5056516,16.4905618 14.9338965,16.3106033 C15.3632834,16.1312179 15.8569071,16.3343876 16.0359134,16.7642249 L16.0359134,16.7642249 Z M12.6387892,24.5437055 C11.7511802,24.2250528 10.9286644,23.7510857 10.2077854,23.1447286 L11.5447661,22.6352282 C11.6192807,22.606859 11.6895129,22.5681736 11.7534641,22.5203184 L12.7986673,21.7362953 L12.6387892,24.5437055 Z M29.7237633,22.9117568 L29.7237633,22.9120434 L28.86813,22.2913584 C29.7286168,20.0398711 30.0223928,17.6018343 29.7140565,15.1907341 C29.2124389,11.2709051 27.2096801,7.79466822 24.0749272,5.40276735 L23.038289,6.77136907 C25.8047512,8.88244296 27.5722608,11.9503345 28.0150661,15.409951 C28.2677306,17.3846232 28.0581761,19.3776352 27.4212331,21.2416959 L24.681893,19.2538421 C25.0059317,17.8597367 25.0230615,16.4054541 24.7155816,14.9927224 C24.3675613,13.3931548 23.6178471,11.9007599 22.5472348,10.6774432 L21.2602161,11.8119269 C22.1395457,12.8171729 22.7559329,14.0436418 23.0420005,15.3595168 C23.2421336,16.279655 23.2758222,17.2212851 23.1496327,18.142283 L21.8794582,17.220712 C21.814936,17.1737165 21.7441328,17.1361773 21.6690472,17.1089543 L17.7054977,15.6701458 L18.3335902,11.4835313 C18.3452956,11.4044412 18.3461521,11.3239184 18.3358742,11.2445418 L17.086541,1.61074336 C16.9672034,0.692324489 16.1815167,0 15.2590771,0 C14.3363521,0 13.5506654,0.692324489 13.4313278,1.61074336 L13.3097062,2.54979441 C6.44893696,3.47394444 1.14983421,9.15066138 0.696180083,16.0807837 L2.40544834,16.193401 C2.79572222,10.2332781 7.248042,5.32339074 13.0798814,4.3233028 L12.6339357,7.7605678 C9.48433701,8.66981681 6.99280802,11.1327841 6.05323865,14.3173048 L7.6957007,14.8053133 C8.39516741,12.4346178 10.1418357,10.5533635 12.3872666,9.6627408 L12.1819946,11.2445418 C12.1717167,11.3239184 12.1725732,11.4044412 12.1842785,11.4835313 L12.8112291,15.6612625 L8.84682306,17.0814447 C8.77202295,17.1083812 8.70093429,17.1456338 8.63612656,17.1923427 L0.768125231,22.8510065 C0.0184111092,23.3905955 -0.218265588,24.4127484 0.217687749,25.2285795 C0.653926583,26.0449836 1.63289449,26.4132109 2.49595077,26.0839555 L3.48519656,25.706845 C5.61157538,28.6162699 8.73776335,30.6428091 12.2493718,31.3832754 L11.6147128,42.5338261 C11.6012944,42.76995 11.6852305,43.0012025 11.847107,43.1731373 C12.0089836,43.3450722 12.2342404,43.442502 12.4697752,43.442502 L18.0480936,43.442502 C18.2839138,43.442502 18.5091706,43.3450722 18.6710472,43.1731373 C18.8326383,43.0012025 18.9165743,42.76995 18.903156,42.5338261 L18.267926,31.3746787 C19.6896992,31.0743657 21.050376,30.5680175 22.317981,29.8627979 L21.4874714,28.3589407 C20.4454087,28.9386478 19.3314009,29.3653329 18.1691442,29.6355573 L17.9818584,26.3473025 C18.2031183,26.2828269 18.4220942,26.2129067 18.6365021,26.1338167 L18.0455241,24.5202077 C17.9915653,24.5399802 17.9356079,24.5560275 17.8807926,24.5746538 L17.7209145,21.7646646 L18.7404229,22.5357925 C18.8040886,22.5839343 18.8740353,22.6229062 18.9485499,22.651562 L27.9830905,26.1375419 C28.1980694,26.2206438 28.4204713,26.2601888 28.6400182,26.2601888 C29.3000864,26.2599023 29.9347453,25.9028508 30.2644939,25.2919088 C30.7041587,24.4777971 30.471479,23.454498 29.7237633,22.9117568 L29.7237633,22.9117568 Z" id="Fill-1" fill="#D0AA6B" mask="url(#mask-2)"></path>
                        </g>
                    </g>
                </g>
            </g>
        </g>
    </g>
</svg>