<?xml version="1.0" encoding="UTF-8"?>
<svg width="19px" height="16px" viewBox="0 0 19 16" version="1.1" xmlns="http://www.w3.org/2000/svg" xmlns:xlink="http://www.w3.org/1999/xlink">
    <!-- Generator: Sketch 58 (84663) - https://sketch.com -->
    <title>iconmonstr-twitter-1 (1)</title>
    <desc>Created with Sketch.</desc>
    <g id="GLOBAL-COMPONENTS" stroke="none" stroke-width="1" fill="none" fill-rule="evenodd">
        <g id="MOBILE---FOOTER" transform="translate(-173.000000, -360.000000)" fill="#D0AA6B" fill-rule="nonzero">
            <g transform="translate(0.000000, 2.000000)" id="SOCIAL-ICONS">
                <g transform="translate(87.000000, 355.000000)">
                    <g id="iconmonstr-twitter-1-(1)" transform="translate(86.000000, 3.000000)">
                        <path d="M19,2.0456 C18.3009583,2.3592 17.5496667,2.5704 16.7611667,2.6656 C17.5662917,2.1784 18.1845833,1.4064 18.475125,0.4864 C17.72225,0.9376 16.8878333,1.2656 15.9995833,1.4424 C15.2894583,0.6768 14.2753333,0.1984 13.1543333,0.1984 C10.637625,0.1984 8.78829167,2.5712 9.35670833,5.0344 C6.118,4.8704 3.24583333,3.3024 1.322875,0.9192 C0.301625,2.6896 0.79325,5.0056 2.52858333,6.1784 C1.8905,6.1576 1.28883333,5.9808 0.763958333,5.6856 C0.721208333,7.5104 2.01558333,9.2176 3.89025,9.5976 C3.341625,9.748 2.74075,9.7832 2.12958333,9.6648 C2.62516667,11.2296 4.06441667,12.368 5.77125,12.4 C4.1325,13.6984 2.06783333,14.2784 -1.77635684e-15,14.032 C1.72504167,15.1496 3.77466667,15.8016 5.9755,15.8016 C13.2129167,15.8016 17.301875,9.6248 17.054875,4.0848 C17.8164583,3.5288 18.4775,2.8352 19,2.0456 Z" id="Path"></path>
                    </g>
                </g>
            </g>
        </g>
    </g>
</svg>