<?xml version="1.0" encoding="UTF-8"?>
<svg width="41px" height="45px" viewBox="0 0 41 45" version="1.1" xmlns="http://www.w3.org/2000/svg" xmlns:xlink="http://www.w3.org/1999/xlink">
    <!-- Generator: Sketch 58 (84663) - https://sketch.com -->
    <title>ICON_FINANCE</title>
    <desc>Created with Sketch.</desc>
    <defs>
        <polygon id="path-1" points="8.31435445e-05 0.23118842 39.4898579 0.23118842 39.4898579 16.0051323 8.31435445e-05 16.0051323"></polygon>
        <polygon id="path-3" points="0 44.2046512 39.6317562 44.2046512 39.6317562 0 0 0"></polygon>
    </defs>
    <g id="PAGES---DESKTOP-+-MOBILE" stroke="none" stroke-width="1" fill="none" fill-rule="evenodd">
        <g id="Desktop-HD" transform="translate(-280.000000, -2791.000000)">
            <g id="SECTION_4" transform="translate(279.000000, 2301.000000)">
                <g id="ICON-SECTION" transform="translate(1.000000, 490.061909)">
                    <g id="LIST---ICON-+-TEXT">
                        <g id="ICON_FINANCE" transform="translate(0.762149, 0.000000)">
                            <path d="M19.8711104,3.15913724 C17.702077,5.16755117 16.1724176,8.88995622 15.966794,13.1556117 C15.4191208,12.8845425 14.6427582,12.7266273 13.8891802,12.7266273 C13.1817338,12.7266273 12.4965094,12.8845425 11.9257704,13.0872188 C12.4281557,8.46180596 15.5558282,4.60317129 19.8711104,3.15913724 M35.533101,13.0872188 C34.9848652,12.8845425 34.2087839,12.7266273 33.5924758,12.7266273 C32.8847481,12.7266273 32.13117,12.8845425 31.560431,13.1556117 C31.2864538,8.88995622 29.7570757,5.23510994 27.5880423,3.15913724 C31.9255465,4.60317129 35.0537815,8.46180596 35.533101,13.0872188 M23.7065105,11.3501521 L23.7065105,11.3501521 C21.1951462,11.3501521 18.5467933,11.8466952 17.0171339,12.7941861 C17.4278185,7.01777192 20.281795,2.48188138 23.7065105,2.48188138 C27.1767951,2.48188138 29.9624179,7.01777192 30.3958871,12.7941861 C28.9120781,11.8466952 26.1948089,11.3501521 23.7065105,11.3501521 M28.7064545,20.7149658 C28.7064545,23.3998016 26.491852,25.6114479 23.7751454,25.6114479 C21.0581576,25.6114479 18.8207705,23.3998016 18.8207705,20.7149658 C18.8207705,18.0292961 21.0581576,15.8404474 23.7751454,15.8404474 C26.491852,15.8404474 28.7064545,18.0292961 28.7064545,20.7149658 M10.8070768,14.3288546 C10.8757118,14.5315309 11.1038386,14.7350413 11.3094622,14.7350413 C11.4464508,14.7350413 11.5834394,14.6674825 11.6517931,14.5996457 C11.7201468,14.5315309 11.7201468,14.4639721 11.789063,14.4639721 C11.8574167,14.2612958 12.6337793,13.8323115 13.8891802,13.8323115 C15.1448623,13.8323115 15.8300867,14.2612958 15.966794,14.4639721 L15.966794,14.5315309 C15.966794,14.5996457 16.035429,14.5996457 16.035429,14.6674825 C16.1037827,14.7350413 16.1037827,14.7350413 16.1724176,14.7350413 C16.2410526,14.7350413 16.3094062,14.8026 16.3777599,14.8026 L16.5375331,14.8026 C16.6745217,14.7350413 16.8117916,14.5996457 16.8801453,14.4639721 C17.2911111,13.5617984 19.5968519,12.5915098 23.1354902,12.4555582 L23.1354902,14.8701588 C20.0764527,15.141228 17.633442,17.6909461 17.633442,20.7825246 C17.633442,23.8963447 20.0764527,26.4238213 23.1354902,26.716854 L23.1354902,28.4319572 C23.1354902,28.9735394 22.6561706,29.4700825 22.1084974,29.4700825 C21.5377584,29.4700825 21.0581576,28.9735394 21.0581576,28.4319572 C21.0581576,28.161166 20.852534,27.8678553 20.4871372,27.8678553 C20.2134413,27.8678553 19.939464,28.0936073 19.939464,28.4319572 C19.939464,29.6052001 20.921169,30.4859663 22.0170779,30.4859663 C23.2044064,30.4859663 24.1174763,29.5376413 24.1174763,28.4319572 L24.1174763,26.716854 C27.1767951,26.4238213 29.6195245,23.8963447 29.6195245,20.7825246 C29.6195245,17.6909461 27.1767951,15.141228 24.1174763,14.8701588 L24.1174763,12.3879994 C27.6791805,12.4555582 30.0307716,13.4936835 30.3958871,14.3964133 L30.3958871,14.4639721 C30.3958871,14.5315309 30.464522,14.5315309 30.464522,14.5315309 C30.464522,14.5315309 30.5328757,14.5996457 30.6012294,14.5996457 L30.6701456,14.5996457 C30.7387806,14.5996457 30.8068529,14.6674825 30.8754879,14.6674825 C30.9438416,14.6674825 31.0124765,14.6674825 31.0811115,14.5996457 C31.1494651,14.5996457 31.1494651,14.5315309 31.2181001,14.5315309 C31.2181001,14.5315309 31.2864538,14.5315309 31.2864538,14.4639721 C31.2864538,14.4639721 31.2864538,14.3964133 31.3548074,14.3964133 L31.4234424,14.3288546 C31.4920773,14.1031026 32.2678774,13.6969159 33.5238408,13.6969159 C34.779523,13.6969159 35.4647473,14.1031026 35.6014547,14.3288546 C35.6014547,14.3964133 35.6700882,14.4639721 35.7384433,14.4639721 C35.806797,14.5315309 35.9668514,14.5996457 36.1038401,14.5996457 L36.2408287,14.5996457 C36.3091823,14.5996457 36.3778173,14.5315309 36.446171,14.4639721 L36.5831596,14.3288546 L36.5831596,14.2612958 L36.5831596,14.1031026 C36.5831596,7.22044824 31.0811115,1.64671037 24.1861113,1.37647527 L24.1861113,0.564101863 C24.1861113,0.269957077 23.9804877,0 23.6381568,0 C23.3411137,0 23.0671365,0.202398303 23.0671365,0.564101863 L23.0671365,1.51159282 C16.1724176,1.78266197 10.6700882,7.3783634 10.6700882,14.2612958 C10.8070768,14.2612958 10.8070768,14.3288546 10.8070768,14.3288546" id="Fill-1" fill="#D0AA6B"></path>
                            <path d="M23.5038986,17.5294306 L23.5038986,18.3710783 C23.2410699,18.4410716 22.9782412,18.5810582 22.7154126,18.8149453 C22.2993122,19.1657758 22.1023256,19.5865997 22.1023256,20.0774168 C22.1023256,20.5918531 22.2993122,21.012677 22.7154126,21.3635075 C23.0440833,21.7370931 23.5038986,21.8779438 23.9855712,21.8779438 C24.2486697,21.8779438 24.4456563,21.9479371 24.5770706,22.0879237 C24.7087548,22.2284863 24.7740572,22.3687609 24.7740572,22.5787408 C24.7740572,22.7195915 24.7087548,22.9295714 24.5770706,23.0931771 C24.2486697,23.3740144 23.635043,23.3740144 23.306912,23.0931771 C23.1752278,22.9295714 23.1096556,22.7895848 23.1096556,22.5787408 L22.1023256,22.5787408 C22.1023256,23.0931771 22.2993122,23.5140009 22.7154126,23.8648315 C22.912669,24.0750994 23.1752278,24.2156621 23.5038986,24.2856554 L23.5038986,25.1509222 L24.5112285,25.1509222 L24.5112285,24.2856554 C24.7740572,24.2156621 25.0371557,24.0750994 25.321572,23.8648315 C25.715815,23.5140009 25.9130714,23.0931771 25.9130714,22.5787408 C25.9130714,22.0879237 25.715815,21.6670998 25.321572,21.2932262 C24.9713136,20.9426837 24.5112285,20.802409 24.0514133,20.802409 C23.7888545,20.802409 23.5694708,20.7318397 23.4380565,20.5918531 C23.306912,20.4518665 23.2410699,20.3115919 23.2410699,20.0774168 C23.2410699,19.9371422 23.306912,19.7271623 23.4380565,19.5865997 C23.7888545,19.3063385 24.3798142,19.3063385 24.7087548,19.5865997 C24.8398993,19.7271623 24.9054715,19.8671489 24.9054715,20.0774168 L25.9130714,20.0774168 C25.9130714,19.5865997 25.715815,19.1657758 25.321572,18.8149453 C25.1245854,18.5810582 24.8398993,18.4410716 24.5112285,18.3710783 L24.5112285,17.5294306 L23.5038986,17.5294306 Z" id="Fill-3" fill="#D0AA6B"></path>
                            <g id="Group-7" transform="translate(0.000000, 28.199519)">
                                <mask id="mask-2" fill="white">
                                    <use xlink:href="#path-1"></use>
                                </mask>
                                <g id="Clip-6"></g>
                                <path d="M37.588171,6.8190152 L23.5967754,14.381726 C22.5619154,14.9613405 21.3471882,15.0307913 20.3126054,14.6603868 L12.2144241,11.8995015 L9.47013286,11.8995015 L9.47013286,2.85231464 L12.75458,2.85231464 C13.6541932,2.85231464 14.4637341,3.06181039 15.296001,3.4087788 L19.8849704,5.61319997 L25.9361576,5.61319997 C26.5431054,5.61319997 27.0383638,6.16966412 27.0383638,6.8190152 C27.0383638,7.44578762 26.4760363,8.02597366 25.8685341,8.02597366 L18.80549,8.02597366 L18.7378666,8.02597366 C18.0405694,8.16458954 16.8033935,8.7210537 16.8033935,10.0669138 L17.8379763,10.0669138 C17.8379763,9.37069059 18.6702432,9.13861617 18.8728363,9.06945113 L25.8685341,9.06945113 C26.2060969,9.06945113 26.5431054,8.93054945 26.8357707,8.79050454 L36.576037,4.33679067 C36.9133226,4.19788898 37.2506082,4.19788898 37.588171,4.33679067 C37.9481826,4.47683557 38.1504985,4.75435314 38.2857454,5.05673581 C38.6227539,5.75210165 38.2857454,6.54121184 37.588171,6.8190152 M39.3203282,4.68490229 C39.1177351,4.12843814 38.6227539,3.64142483 38.0831523,3.4087788 C37.5208248,3.20042627 36.8456992,3.20042627 36.2833717,3.4087788 L28.0504979,7.16712683 L28.0504979,6.88846605 C28.0504979,5.682365 27.1057101,4.68490229 25.9361576,4.61573726 L25.8685341,4.61573726 L20.1102894,4.61573726 L15.7009101,2.50420302 C14.8237457,2.06406188 13.7891629,1.78540109 12.75458,1.78540109 L9.47013286,1.78540109 L9.47013286,0.23118842 L8.31435445e-05,0.23118842 L8.31435445e-05,1.29838778 L8.36764946,1.29838778 L8.36764946,13.4771502 L1.70951442,13.4771502 L1.70951442,14.5206277 L9.40278659,14.5206277 L9.40278659,12.9667009 L11.8771385,12.9667009 L19.8849704,15.7273004 C20.4472979,15.9356529 20.9874538,16.0053895 21.5497813,16.0053895 C22.3595994,16.0053895 23.2592126,15.7967512 24.0016844,15.3791887 L38.0155289,7.81647791 C39.2529819,7.30602852 39.7925835,5.89100334 39.3203282,4.68490229" id="Fill-5" fill="#D0AA6B" mask="url(#mask-2)"></path>
                            </g>
                            <mask id="mask-4" fill="white">
                                <use xlink:href="#path-3"></use>
                            </mask>
                            <g id="Clip-9"></g>
                            <polygon id="Fill-8" fill="#D0AA6B" mask="url(#mask-4)" points="3.81074579 40.3939054 4.57289495 40.3939054 4.57289495 39.6317562 3.81074579 39.6317562"></polygon>
                            <polygon id="Fill-10" fill="#D0AA6B" mask="url(#mask-4)" points="6.09719326 40.3939054 6.85934242 40.3939054 6.85934242 39.6317562 6.09719326 39.6317562"></polygon>
                        </g>
                    </g>
                </g>
            </g>
        </g>
    </g>
</svg>