<?xml version="1.0" encoding="UTF-8"?>
<svg width="33px" height="40px" viewBox="0 0 33 40" version="1.1" xmlns="http://www.w3.org/2000/svg" xmlns:xlink="http://www.w3.org/1999/xlink">
    <!-- Generator: Sketch 58 (84663) - https://sketch.com -->
    <title>ICON_HOSP</title>
    <desc>Created with Sketch.</desc>
    <defs>
        <polygon id="path-1" points="0 38.8696071 32.0102646 38.8696071 32.0102646 0 0 0"></polygon>
    </defs>
    <g id="PAGES---DESKTOP-+-MOBILE" stroke="none" stroke-width="1" fill="none" fill-rule="evenodd">
        <g id="Desktop-HD" transform="translate(-595.000000, -2991.000000)">
            <g id="SECTION_4" transform="translate(279.000000, 2301.000000)">
                <g id="ICON-SECTION" transform="translate(1.000000, 490.061909)">
                    <g id="LIST---ICON-+-TEXT">
                        <g id="ICON_HOSP" transform="translate(315.529751, 200.445229)">
                            <path d="M31.0402566,32.0102646 L7.76006415,32.0102646 C6.15542839,32.0102646 4.8500401,30.6915561 4.8500401,29.0705465 L4.8500401,7.51261313 C4.8500401,6.97194996 4.415234,6.53270707 3.88003208,6.53270707 L0.970008019,6.53270707 C0.433836087,6.53270707 0,6.09444408 0,5.55280101 C0,5.01115793 0.433836087,4.57289495 0.970008019,4.57289495 L3.88003208,4.57289495 C5.48466784,4.57289495 6.79005613,5.89160353 6.79005613,7.51261313 L6.79005613,29.0705465 C6.79005613,29.6112096 7.22486223,30.0504525 7.76006415,30.0504525 L31.0402566,30.0504525 C31.5764285,30.0504525 32.0102646,30.4887155 32.0102646,31.0303586 C32.0102646,31.5720016 31.5764285,32.0102646 31.0402566,32.0102646" id="Fill-1" fill="#D0AA6B"></path>
                            <path d="M11.4322374,34.8048115 C10.8715496,34.8048115 10.4160385,35.2603227 10.4160385,35.8210104 C10.4160385,36.3816982 10.8715496,36.8372093 11.4322374,36.8372093 C11.9929251,36.8372093 12.4484362,36.3816982 12.4484362,35.8210104 C12.4484362,35.2603227 11.9929251,34.8048115 11.4322374,34.8048115 M11.4322374,38.8696071 C9.75119038,38.8696071 8.38364074,37.5020574 8.38364074,35.8210104 C8.38364074,34.1399634 9.75119038,32.7724138 11.4322374,32.7724138 C13.1132844,32.7724138 14.480834,34.1399634 14.480834,35.8210104 C14.480834,37.5020574 13.1132844,38.8696071 11.4322374,38.8696071" id="Fill-3" fill="#D0AA6B"></path>
                            <path d="M25.9130714,34.8048115 C25.3523836,34.8048115 24.8968725,35.2603227 24.8968725,35.8210104 C24.8968725,36.3816982 25.3523836,36.8372093 25.9130714,36.8372093 C26.4737591,36.8372093 26.9292702,36.3816982 26.9292702,35.8210104 C26.9292702,35.2603227 26.4737591,34.8048115 25.9130714,34.8048115 M25.9130714,38.8696071 C24.2320244,38.8696071 22.8644747,37.5020574 22.8644747,35.8210104 C22.8644747,34.1399634 24.2320244,32.7724138 25.9130714,32.7724138 C27.5941184,32.7724138 28.961668,34.1399634 28.961668,35.8210104 C28.961668,37.5020574 27.5941184,38.8696071 25.9130714,38.8696071" id="Fill-5" fill="#D0AA6B"></path>
                            <mask id="mask-2" fill="white">
                                <use xlink:href="#path-1"></use>
                            </mask>
                            <g id="Clip-8"></g>
                            <path d="M10.3055821,26.217931 L28.564025,26.217931 L28.564025,20.2731676 L10.3055821,20.2731676 L10.3055821,26.217931 Z M29.5249956,28.1995188 L9.34461142,28.1995188 C8.81343487,28.1995188 8.38364074,27.7563863 8.38364074,27.2087249 L8.38364074,19.2823737 C8.38364074,18.7347124 8.81343487,18.2915798 9.34461142,18.2915798 L29.5249956,18.2915798 C30.0561722,18.2915798 30.4859663,18.7347124 30.4859663,19.2823737 L30.4859663,27.2087249 C30.4859663,27.7563863 30.0561722,28.1995188 29.5249956,28.1995188 L29.5249956,28.1995188 Z" id="Fill-7" fill="#D0AA6B" mask="url(#mask-2)"></path>
                            <path d="M26.4211708,24.3887731 L22.3563753,24.3887731 C21.7946714,24.3887731 21.3401764,24.0479018 21.3401764,23.6266239 C21.3401764,23.205346 21.7946714,22.8644747 22.3563753,22.8644747 L26.4211708,22.8644747 C26.9828747,22.8644747 27.4373697,23.205346 27.4373697,23.6266239 C27.4373697,24.0479018 26.9828747,24.3887731 26.4211708,24.3887731" id="Fill-9" fill="#D0AA6B" mask="url(#mask-2)"></path>
                            <path d="M18.0375301,24.3887731 L13.9727346,24.3887731 C13.4110306,24.3887731 12.9565357,24.0479018 12.9565357,23.6266239 C12.9565357,23.205346 13.4110306,22.8644747 13.9727346,22.8644747 L18.0375301,22.8644747 C18.599234,22.8644747 19.0537289,23.205346 19.0537289,23.6266239 C19.0537289,24.0479018 18.599234,24.3887731 18.0375301,24.3887731" id="Fill-10" fill="#D0AA6B" mask="url(#mask-2)"></path>
                            <path d="M10.3313553,14.8074694 L23.9653569,14.8074694 L23.9653569,5.00840875 L10.3313553,5.00840875 L10.3313553,14.8074694 Z M24.9392141,16.7672815 L9.357498,16.7672815 C8.8191984,16.7672815 8.38364074,16.3290185 8.38364074,15.7873754 L8.38364074,4.02850269 C8.38364074,3.48685962 8.8191984,3.04859663 9.357498,3.04859663 L24.9392141,3.04859663 C25.4775137,3.04859663 25.9130714,3.48685962 25.9130714,4.02850269 L25.9130714,15.7873754 C25.9130714,16.3290185 25.4775137,16.7672815 24.9392141,16.7672815 L24.9392141,16.7672815 Z" id="Fill-11" fill="#D0AA6B" mask="url(#mask-2)"></path>
                            <path d="M20.38749,3.81074579 C19.8608925,3.81074579 19.4348035,3.38465678 19.4348035,2.85805934 L19.4348035,1.90537289 L15.6240577,1.90537289 L15.6240577,2.85805934 C15.6240577,3.38465678 15.1979687,3.81074579 14.6713713,3.81074579 C14.1447739,3.81074579 13.7186848,3.38465678 13.7186848,2.85805934 L13.7186848,0.952686447 C13.7186848,0.426089014 14.1447739,0 14.6713713,0 L20.38749,0 C20.9140874,0 21.3401764,0.426089014 21.3401764,0.952686447 L21.3401764,2.85805934 C21.3401764,3.38465678 20.9140874,3.81074579 20.38749,3.81074579" id="Fill-12" fill="#D0AA6B" mask="url(#mask-2)"></path>
                            <path d="M13.7186848,12.9565357 C13.2974069,12.9565357 12.9565357,12.5020407 12.9565357,11.9403368 L12.9565357,7.8755413 C12.9565357,7.31383737 13.2974069,6.85934242 13.7186848,6.85934242 C14.1399628,6.85934242 14.480834,7.31383737 14.480834,7.8755413 L14.480834,11.9403368 C14.480834,12.5020407 14.1399628,12.9565357 13.7186848,12.9565357" id="Fill-13" fill="#D0AA6B" mask="url(#mask-2)"></path>
                            <path d="M21.3401764,12.9565357 C20.9188985,12.9565357 20.5780273,12.5020407 20.5780273,11.9403368 L20.5780273,7.8755413 C20.5780273,7.31383737 20.9188985,6.85934242 21.3401764,6.85934242 C21.7614544,6.85934242 22.1023256,7.31383737 22.1023256,7.8755413 L22.1023256,11.9403368 C22.1023256,12.5020407 21.7614544,12.9565357 21.3401764,12.9565357" id="Fill-14" fill="#D0AA6B" mask="url(#mask-2)"></path>
                        </g>
                    </g>
                </g>
            </g>
        </g>
    </g>
</svg>