<?xml version="1.0" encoding="UTF-8"?>
<svg width="40px" height="38px" viewBox="0 0 40 38" version="1.1" xmlns="http://www.w3.org/2000/svg" xmlns:xlink="http://www.w3.org/1999/xlink">
    <!-- Generator: Sketch 58 (84663) - https://sketch.com -->
    <title>ICON_RETAIL</title>
    <desc>Created with Sketch.</desc>
    <defs>
        <polygon id="path-1" points="0 37.3453087 38.8696071 37.3453087 38.8696071 0 0 0"></polygon>
    </defs>
    <g id="PAGES---DESKTOP-+-MOBILE" stroke="none" stroke-width="1" fill="none" fill-rule="evenodd">
        <g id="Desktop-HD" transform="translate(-280.000000, -2928.000000)">
            <g id="SECTION_4" transform="translate(279.000000, 2301.000000)">
                <g id="ICON-SECTION" transform="translate(1.000000, 490.061909)">
                    <g id="LIST---ICON-+-TEXT">
                        <g id="ICON_RETAIL" transform="translate(0.762149, 137.186848)">
                            <polyline id="Stroke-1" stroke="#D0AA6B" stroke-width="1.52429832" points="24.3887731 15.0188216 24.3887731 8.38364074 0.762149158 8.38364074 0.762149158 36.5831596 17.0563725 36.5831596"></polyline>
                            <mask id="mask-2" fill="white">
                                <use xlink:href="#path-1"></use>
                            </mask>
                            <g id="Clip-4"></g>
                            <polygon id="Stroke-3" stroke="#D0AA6B" stroke-width="1.52429832" mask="url(#mask-2)" points="19.0537289 36.5831596 38.1074579 36.5831596 38.1074579 16.7672815 19.0537289 16.7672815"></polygon>
                            <path d="M32.7724138,20.5780273 L32.7724138,25.6989462 C32.7724138,28.2483326 30.6938252,30.4859663 28.2045075,30.4859663 C25.7160212,30.4859663 23.6266239,28.2483326 23.6266239,25.6989462 L23.6266239,20.5780273" id="Stroke-5" stroke="#D0AA6B" stroke-width="1.52429832" mask="url(#mask-2)"></path>
                            <path d="M25.1509222,20.9591018 L22.1023256,20.9591018" id="Stroke-6" stroke="#D0AA6B" stroke-width="1.52429832" mask="url(#mask-2)"></path>
                            <path d="M34.2967121,20.9591018 L31.2481155,20.9591018" id="Stroke-7" stroke="#D0AA6B" stroke-width="1.52429832" mask="url(#mask-2)"></path>
                            <path d="M18.2915798,12.1943865 L18.2915798,6.28073635 C18.2915798,3.34153337 15.8670074,0.762149158 12.9631019,0.762149158 C10.0591963,0.762149158 7.62149158,3.34153337 7.62149158,6.28073635 L7.62149158,12.1943865" id="Stroke-8" stroke="#D0AA6B" stroke-width="1.52429832" mask="url(#mask-2)"></path>
                            <path d="M9.1457899,12.5754611 L6.09719326,12.5754611" id="Stroke-9" stroke="#D0AA6B" stroke-width="1.52429832" mask="url(#mask-2)"></path>
                            <path d="M19.8158781,12.5754611 L16.7672815,12.5754611" id="Stroke-10" stroke="#D0AA6B" stroke-width="1.52429832" mask="url(#mask-2)"></path>
                        </g>
                    </g>
                </g>
            </g>
        </g>
    </g>
</svg>